<svg xmlns="http://www.w3.org/2000/svg" xmlns:xlink="http://www.w3.org/1999/xlink" width="149.157" height="56.149" viewBox="0 0 149.157 56.149"><defs><clipPath id="a"><rect width="130" height="30.509" fill="none"/></clipPath></defs><g transform="translate(-204.831 -9158.359)"><path d="M4.216,5.255v2.5a6.124,6.124,0,0,1-.063.936h.729a4.708,4.708,0,0,1-.072-.936v-2.5H7.4V7.127c0,.18-.09.234-.4.234A8.869,8.869,0,0,1,5.917,7.28a2.965,2.965,0,0,1,.153.6c.315.018.621.027.81.027A2.5,2.5,0,0,0,7.69,7.8c.189-.081.288-.3.288-.612V5.444A5.915,5.915,0,0,1,8.014,4.7a7.169,7.169,0,0,1-.828.036H2.911a9,9,0,0,1-1.035-.054v.63a9.838,9.838,0,0,1,1.035-.054ZM4.639.548a6.417,6.417,0,0,1-1.4,1.6,9.587,9.587,0,0,1-2.4,1.53,1.49,1.49,0,0,1,.378.513A10.625,10.625,0,0,0,3.658,2.546,7.908,7.908,0,0,0,5,1.052,7.3,7.3,0,0,0,6.457,2.636,11.653,11.653,0,0,0,8.851,4.2a2.4,2.4,0,0,1,.36-.567A9.509,9.509,0,0,1,6.943,2.294,7.068,7.068,0,0,1,5.314.548ZM3.109,3.716a5.176,5.176,0,0,1,.7-.036H6.178a5.977,5.977,0,0,1,.756.036V3.122a5.293,5.293,0,0,1-.756.036H3.82a4.675,4.675,0,0,1-.711-.036ZM11.7,2.951H10.93a5.52,5.52,0,0,1-.855-.054v.612a5.942,5.942,0,0,1,.855-.054H11.6A6.9,6.9,0,0,1,9.823,6.47a2.394,2.394,0,0,1,.378.486,6.132,6.132,0,0,0,.819-1.107,6.9,6.9,0,0,0,.72-1.665c-.027.495-.045,1.152-.045,1.485V7.541a7.744,7.744,0,0,1-.054,1.1h.666a6.57,6.57,0,0,1-.054-1.1V5.615c-.018-1.044-.018-1.044-.045-1.53a5.628,5.628,0,0,0,1.17,1.773,1.858,1.858,0,0,1,.369-.459,5.232,5.232,0,0,1-1.089-1.233,3.43,3.43,0,0,1-.378-.711h.657a4.691,4.691,0,0,1,.783.045V2.906a4.374,4.374,0,0,1-.783.045h-.684V1.574a13.563,13.563,0,0,0,1.314-.459,1.469,1.469,0,0,1,.207-.081L13.387.557a2.293,2.293,0,0,1-.54.27A11.342,11.342,0,0,1,10.1,1.5a1.183,1.183,0,0,1,.252.513c.639-.117.864-.171,1.35-.288Zm2.979,4.761h2.412v.639h.63a8.731,8.731,0,0,1-.054-1.107V2.3a6.716,6.716,0,0,1,.045-.954,5.537,5.537,0,0,1-.855.045H14.917a5.624,5.624,0,0,1-.846-.045,8.9,8.9,0,0,1,.045.954v5a9.679,9.679,0,0,1-.045,1.044h.612Zm0-5.778h2.412V7.181H14.683ZM18.949,6.47a2.338,2.338,0,0,0,.459.873,2.571,2.571,0,0,0,2.016.738c1.5,0,2.439-.756,2.439-1.971a1.649,1.649,0,0,0-.6-1.359,1.93,1.93,0,0,0-1.107-.387A1.848,1.848,0,0,0,23,4.04a1.581,1.581,0,0,0,.63-1.314c0-1.08-.828-1.764-2.133-1.764a2.338,2.338,0,0,0-1.791.657,2.052,2.052,0,0,0-.486.9l.747.162a1.7,1.7,0,0,1,.288-.639,1.414,1.414,0,0,1,1.2-.477c.909,0,1.449.45,1.449,1.224a1.239,1.239,0,0,1-.36.873,1.8,1.8,0,0,1-1.314.414,3.839,3.839,0,0,1-.666-.054v.711a6.311,6.311,0,0,1,.72-.045c1.2,0,1.836.486,1.836,1.377,0,.855-.657,1.395-1.7,1.395a1.985,1.985,0,0,1-1.161-.324,1.359,1.359,0,0,1-.549-.855Zm7.6-.639h-.684a6.223,6.223,0,0,1-.909-.054v.648a6.486,6.486,0,0,1,.909-.054H29.11V7.856a4.007,4.007,0,0,1-.054.837h.711a4.1,4.1,0,0,1-.063-.837V6.371h2.268a6.486,6.486,0,0,1,.909.054V5.777a6.055,6.055,0,0,1-.909.054H29.7V4.067h1.638a6.512,6.512,0,0,1,.792.036V3.509a4.863,4.863,0,0,1-.8.045H29.7V2.087h2.034a4.916,4.916,0,0,1,.81.045V1.52a4.72,4.72,0,0,1-.81.045H27.274l.342-.729c.054-.108.081-.171.117-.243l-.639-.18a3.563,3.563,0,0,1-.225.657,5.865,5.865,0,0,1-1.8,2.421,1.413,1.413,0,0,1,.432.432,7.4,7.4,0,0,0,1.494-1.836H29.11V3.554H27.157c-.252,0-.45-.009-.639-.027a4.989,4.989,0,0,1,.027.531Zm.585,0V4.067h1.98V5.831Zm9.747-2.619v.882a5.291,5.291,0,0,1-.027.54,5.308,5.308,0,0,1,.648-.018H39.5a4.762,4.762,0,0,1,.585.018,4.8,4.8,0,0,1-.027-.54V3.212h1.08a4.71,4.71,0,0,1,.819.045V2.681a4.71,4.71,0,0,1-.819.045h-1.08V2.591a3.587,3.587,0,0,1,.036-.6h-.621a5.391,5.391,0,0,1,.036.594v.144H37.426V2.573a3.925,3.925,0,0,1,.036-.585H36.84a3.675,3.675,0,0,1,.036.594v.144H35.239l.009-.963h5.76a6.669,6.669,0,0,1,.936.045V1.214a6.316,6.316,0,0,1-.981.054H38.5V1.007a3.435,3.435,0,0,1,.045-.585h-.666a2.94,2.94,0,0,1,.054.585v.261H35.563c-.351,0-.639-.018-.927-.045a10.3,10.3,0,0,1,.036,1.1,21.239,21.239,0,0,1-.27,4.158,4.772,4.772,0,0,1-.639,1.629,1.82,1.82,0,0,1,.477.441c.738-1.359.936-2.421,1-5.337Zm.549,0h2.088v.945H37.426Zm3.087,2.079a5.589,5.589,0,0,1-.621.027H36.625a5.4,5.4,0,0,1-.909-.045v.558a5.627,5.627,0,0,1,.891-.045A5.545,5.545,0,0,0,38.056,7.3a9.156,9.156,0,0,1-3.024.819,1.791,1.791,0,0,1,.252.558A9.749,9.749,0,0,0,38.55,7.613a8.357,8.357,0,0,0,3.186,1.026,2.227,2.227,0,0,1,.27-.594A7.968,7.968,0,0,1,39.073,7.3a8.129,8.129,0,0,0,1.458-1.314c.153-.18.2-.225.306-.342Zm-.513.5A6,6,0,0,1,38.56,7.01a3.978,3.978,0,0,1-1.323-1.224Zm5.445-2.034A5.832,5.832,0,0,1,44.86,4.8a3.205,3.205,0,0,1-.36-.486,9.843,9.843,0,0,0,.936-1.683,2,2,0,0,1,.144-.288l-.252-.315a1.953,1.953,0,0,1-.423.027h-.4V1.178A4.985,4.985,0,0,1,44.554.5h-.612a4.459,4.459,0,0,1,.045.684v.864h-.306a3.362,3.362,0,0,1-.7-.045v.585a5.537,5.537,0,0,1,.729-.045H44.9A6.876,6.876,0,0,1,42.771,5.5a1.478,1.478,0,0,1,.288.495,6.848,6.848,0,0,0,.954-1.035c-.009.243-.027.774-.027.891V7.775a6.859,6.859,0,0,1-.054.927h.63a6.461,6.461,0,0,1-.054-.936V5.687c0-.09-.009-.324-.018-.711a5.952,5.952,0,0,0,.954,1.08,1.361,1.361,0,0,1,.3-.441,4.226,4.226,0,0,1-.585-.5,11.63,11.63,0,0,0,.693-1.044Zm1.071,2.853h1.422V7.8a5.817,5.817,0,0,1-.036.783h.6a6.056,6.056,0,0,1-.036-.792V6.605h1.6V7.757c0,.189-.036.225-.234.225a5.6,5.6,0,0,1-.8-.063,1.551,1.551,0,0,1,.144.567c.27.018.4.027.612.027.405,0,.531-.018.639-.117.126-.1.171-.243.171-.5V3.842a6.769,6.769,0,0,1,.036-.873,5.327,5.327,0,0,1-.855.045H48.469v-.9h1.62a6.123,6.123,0,0,1,.8.036V1.556a4.892,4.892,0,0,1-.792.054H48.469V1.331A5.384,5.384,0,0,1,48.522.5h-.639a5.423,5.423,0,0,1,.054.819V1.61h-1.53a4.073,4.073,0,0,1-.729-.045V2.15a5.677,5.677,0,0,1,.711-.036h1.548v.9H46.8a5.827,5.827,0,0,1-.855-.045,5.94,5.94,0,0,1,.036.855v3.96a6.447,6.447,0,0,1-.054.918h.63a7.135,7.135,0,0,1-.045-.927Zm0-.468V5.012h1.422V6.137Zm0-1.593V3.491h1.422V4.544Zm1.953,1.593V5.012h1.6V6.137Zm0-1.593V3.491h1.6V4.544ZM50.377,1.16A6.149,6.149,0,0,0,49.243.467l-.369.306a6.206,6.206,0,0,1,1.134.729Zm5.517,6.48H54.076V4.508a6.544,6.544,0,0,1,.063-1.035H53.4a6.7,6.7,0,0,1,.063,1.035V7.64h-.45a6.109,6.109,0,0,1-1.035-.063v.675a7.06,7.06,0,0,1,1.044-.063h5.859a6.773,6.773,0,0,1,1.035.063V7.577a6.822,6.822,0,0,1-1.044.063H56.514V4.67h1.791a5.994,5.994,0,0,1,.927.054V4.076a5.837,5.837,0,0,1-.927.054H56.514V1.565H58.6a8.149,8.149,0,0,1,1,.054V.962a7.844,7.844,0,0,1-1,.054H53.329a7.553,7.553,0,0,1-1-.054v.657a8.151,8.151,0,0,1,1.017-.054h2.547ZM67.647.926a6.061,6.061,0,0,1-.666.027H62.86A5.375,5.375,0,0,1,61.915.9v.612a6.008,6.008,0,0,1,.927-.045h4.167a8.775,8.775,0,0,1-1.917,1.278c-.432-.27-.738-.441-1.53-.855l-.369.4a13.423,13.423,0,0,1,2.484,1.53h-3.6a6.754,6.754,0,0,1-1-.054v.648A6.766,6.766,0,0,1,62,4.355h2.79v3.4c0,.2-.09.261-.4.261a7.588,7.588,0,0,1-1.26-.108,2.254,2.254,0,0,1,.144.621c.306.027.783.045,1.062.045.837,0,1.053-.153,1.053-.729V4.355h2.736a6.112,6.112,0,0,1-1.44,1.3,2.22,2.22,0,0,1,.468.369,7.257,7.257,0,0,0,1.575-1.575,3.344,3.344,0,0,1,.243-.3l-.351-.387a5.368,5.368,0,0,1-.954.045H66.046l.234-.234c-.342-.261-.45-.333-.7-.513a11.38,11.38,0,0,0,2.439-1.719Zm4.347.729a6.092,6.092,0,0,1,.5.918l.486-.2a8.009,8.009,0,0,0-.459-.72h.486a7.28,7.28,0,0,1,.855.036V1.124a5.279,5.279,0,0,1-.882.054H71.6c.117-.207.18-.324.324-.621L71.356.368a3.429,3.429,0,0,1-.513,1.026,4.744,4.744,0,0,1-.927,1.044,1.6,1.6,0,0,1,.423.4,7.144,7.144,0,0,0,.972-1.179Zm3.519,0a5.509,5.509,0,0,1,.531.9l.477-.207c-.153-.252-.27-.423-.459-.693h.945a9.177,9.177,0,0,1,.936.045V1.124a6.375,6.375,0,0,1-.936.054H74.983c.135-.243.189-.36.315-.63l-.54-.189a4.228,4.228,0,0,1-1.233,1.9,1.623,1.623,0,0,1,.441.315,5.664,5.664,0,0,0,.738-.918ZM74.965,7.19v.621a5.06,5.06,0,0,1-.054.855h.657a5.854,5.854,0,0,1-.054-.855V7.19h1.458a7.692,7.692,0,0,1,.99.054V6.659a6.371,6.371,0,0,1-.99.054H75.514V6.074h.315a9.233,9.233,0,0,1,1,.036,7.018,7.018,0,0,1-.036-.936V3.626c0-.441.009-.711.027-.99a8.151,8.151,0,0,1-.936.036h-3.8c-.423,0-.612-.009-.873-.027.018.252.027.513.027.927v1.62a7.229,7.229,0,0,1-.036.918,9.233,9.233,0,0,1,1-.036h.324a4.176,4.176,0,0,1-.045.639H70.96a6.477,6.477,0,0,1-.981-.054v.585a7.841,7.841,0,0,1,.981-.054h1.4a1.456,1.456,0,0,1-.828.747,4.639,4.639,0,0,1-1.233.333,1.733,1.733,0,0,1,.369.495,4.789,4.789,0,0,0,1.521-.585,1.818,1.818,0,0,0,.738-.99Zm-1.926-.477c.027-.225.036-.306.054-.639h1.872v.639Zm-1.278-3.6H76.27v.558H71.761Zm0,.981H76.27v.558H71.761Zm0,.981H76.27v.567H71.761Zm10.845.45h-2.7a5.855,5.855,0,0,1-.981-.054v.567a6.529,6.529,0,0,1,.981-.045h2.7v.648H80.419a5.384,5.384,0,0,1-.864-.045v.558a6,6,0,0,1,.882-.045h2.169v.738c0,.2-.081.243-.4.243A7.784,7.784,0,0,1,81.085,8a1.484,1.484,0,0,1,.153.567c.5.027.666.036.855.036.873,0,1.053-.126,1.053-.747V7.109h2.412v.369h.585a5.307,5.307,0,0,1-.054-.9V5.993a6.121,6.121,0,0,1,.954.045V5.471a4.574,4.574,0,0,1-.954.054V5.147a7.124,7.124,0,0,1,.027-.747,8.8,8.8,0,0,1-1.008.036H83.146V3.851h2.079a5.613,5.613,0,0,1,.729.036,4.26,4.26,0,0,1-.036-.6v-.4a4.391,4.391,0,0,1,.036-.612,5.763,5.763,0,0,1-.738.036h-2.07V1.718h2.772a8.051,8.051,0,0,1,1.017.054V1.178a6.817,6.817,0,0,1-1.035.054H83.146a2.935,2.935,0,0,1,.063-.81h-.657a3.624,3.624,0,0,1,.054.81H80.014a6.679,6.679,0,0,1-1.026-.054v.594A7.7,7.7,0,0,1,80,1.718h2.61v.594H80.734a6.007,6.007,0,0,1-.747-.036,4.476,4.476,0,0,1,.036.612v.4a4.26,4.26,0,0,1-.036.6,5.674,5.674,0,0,1,.738-.036h1.881v.585h-2.1a5.248,5.248,0,0,1-.864-.045v.558a5.7,5.7,0,0,1,.846-.045h2.115Zm.54,0V4.9h2.412v.621Zm0,.468h2.412v.648H83.146Zm-.54-3.24v.666H80.563V2.753Zm.54,0h2.232v.666H83.146Zm8.487,1.215v.657H89.851a6.858,6.858,0,0,1-.963-.045v.549a6.858,6.858,0,0,1,.963-.045h1.782v.693H89.05a6.867,6.867,0,0,1-1.017-.054v.585a8.462,8.462,0,0,1,1.017-.054h2.2a6.825,6.825,0,0,1-3.339,1.593,1.875,1.875,0,0,1,.369.522,7.155,7.155,0,0,0,3.384-1.935c-.027.351-.036.549-.036.756v.594a5.947,5.947,0,0,1-.054.945h.648a6.816,6.816,0,0,1-.054-.936v-.6c0-.2-.009-.36-.036-.765a5.9,5.9,0,0,0,1.431,1.1,9.649,9.649,0,0,0,2.205.846,2.092,2.092,0,0,1,.351-.558,7.112,7.112,0,0,1-3.573-1.557h2.358a8.569,8.569,0,0,1,1.017.054V5.723a6.76,6.76,0,0,1-1.026.054H92.173V5.084h1.89a7,7,0,0,1,.972.045V4.58a6.767,6.767,0,0,1-.972.045h-1.89V3.968h2.448a7.08,7.08,0,0,1,.972.045V3.455a6.767,6.767,0,0,1-.972.045H93.343a10.255,10.255,0,0,0,.486-1.017h1.062a9.6,9.6,0,0,1,1.017.045V1.952a6.979,6.979,0,0,1-1.008.054h-.54A8.949,8.949,0,0,0,95.035,1L94.486.764a5.783,5.783,0,0,1-.711,1.242h-.864V1.313a4.211,4.211,0,0,1,.054-.756h-.612a5.232,5.232,0,0,1,.036.747v.7h-.954V1.3a5.071,5.071,0,0,1,.036-.747h-.612a4.352,4.352,0,0,1,.054.756v.693h-.756a5.345,5.345,0,0,0-.8-1.2l-.513.243a4.724,4.724,0,0,1,.738.954H88.96a7.009,7.009,0,0,1-1-.054v.576a9.6,9.6,0,0,1,1.017-.045h1.134A5.425,5.425,0,0,1,90.589,3.5h-1.3a6.551,6.551,0,0,1-.963-.045v.558a7.016,7.016,0,0,1,.963-.045Zm-.5-.468a7.4,7.4,0,0,0-.423-1.017h2.5A4.621,4.621,0,0,1,92.758,3.5Zm9.657.576,1.287-.432V5.93a5.86,5.86,0,0,1-.054.873h.666a5.9,5.9,0,0,1-.054-.864V3.455l1.494-.513a18.139,18.139,0,0,1-.144,2.277c-.045.261-.09.306-.3.306A3.219,3.219,0,0,1,103,5.444a2.1,2.1,0,0,1,.135.567c.207.018.315.027.4.027a1.231,1.231,0,0,0,.648-.126c.234-.135.351-.513.414-1.314.072-.882.108-1.512.144-2.412a6.5,6.5,0,0,1-.711.279l-1.386.459V1.448A5.987,5.987,0,0,1,102.694.6h-.666a5.679,5.679,0,0,1,.054.837V3.1l-1.287.432V2.276a6.392,6.392,0,0,1,.054-.891h-.675a6.536,6.536,0,0,1,.054.918V3.716l-.324.108a3.468,3.468,0,0,1-.783.18l.162.612a4.962,4.962,0,0,1,.747-.288l.2-.063v3.3c0,.7.369.837,2.232.837,2.34,0,2.5-.108,2.61-1.773a1.65,1.65,0,0,1-.576-.234,2.623,2.623,0,0,1-.189,1.215c-.144.207-.522.261-1.791.261a6.542,6.542,0,0,1-1.449-.081c-.216-.054-.27-.126-.27-.342ZM98.041,2.969h-.333a3.321,3.321,0,0,1-.756-.054v.612a3.416,3.416,0,0,1,.756-.054h.333V6.551a5.069,5.069,0,0,1-1.206.405l.153.621c.1-.045.234-.108.36-.153a17.373,17.373,0,0,0,2.322-1.1l-.054-.549c-.468.261-.63.342-1.017.522V3.473h.243a5.613,5.613,0,0,1,.729.036V2.924a3.4,3.4,0,0,1-.72.045H98.6V1.628A7.514,7.514,0,0,1,98.653.62h-.666a7.366,7.366,0,0,1,.054,1ZM111.5,2.537a14.913,14.913,0,0,0,.5,3.6,6.043,6.043,0,0,1-2.3,2.007,1.526,1.526,0,0,1,.441.423,6.921,6.921,0,0,0,2.034-1.818c.369,1.071.891,1.782,1.314,1.782.153,0,.3-.108.414-.324a3.692,3.692,0,0,0,.288-1.278,1.625,1.625,0,0,1-.477-.342,2.141,2.141,0,0,1-.261,1.242,3.313,3.313,0,0,1-.882-1.665,10.226,10.226,0,0,0,.909-1.953c.081-.243.108-.306.2-.522l-.585-.2a6.593,6.593,0,0,1-.7,1.98,15.6,15.6,0,0,1-.351-2.934h.882c.351,0,.7.018.954.045V1.97a6.209,6.209,0,0,1-.936.054h-.918V1.457A4.863,4.863,0,0,1,112.09.53h-.666a10.2,10.2,0,0,1,.072,1.494h-2.2a6.45,6.45,0,0,1-.963-.054v.612a9.424,9.424,0,0,1,.954-.045Zm-4.572.441h-.243a4.979,4.979,0,0,1-.774-.045v.594a6.447,6.447,0,0,1,.756-.045h.261V6.407a7.217,7.217,0,0,1-1.152.45l.18.612a1.827,1.827,0,0,1,.3-.153,23.45,23.45,0,0,0,2.232-1.152l-.045-.567a8.54,8.54,0,0,1-.963.549V3.482h.171a5.562,5.562,0,0,1,.747.036V2.942a5.562,5.562,0,0,1-.747.036h-.171V1.6a6.213,6.213,0,0,1,.054-.99h-.657a7.4,7.4,0,0,1,.054.99Zm1.827,2.259a4.975,4.975,0,0,1-.027.549,4.559,4.559,0,0,1,.594-.027h1.044c.252,0,.45.009.639.027a3.876,3.876,0,0,1-.018-.531v-1.5a3.137,3.137,0,0,1,.018-.459,5.687,5.687,0,0,1-.6.027h-1.062a4.7,4.7,0,0,1-.612-.027c.009.153.027.36.027.558Zm.513-1.449h1.215v1.5h-1.215Zm1.953,2.367a15.47,15.47,0,0,1-3.168.729l.144.612c.117-.036.36-.1.558-.153,1.116-.27,1.674-.423,2.475-.684Zm2.52-4.68a5.977,5.977,0,0,0-1.062-.837l-.351.306a4.261,4.261,0,0,1,1.044.9Zm5.7.558a2.59,2.59,0,0,1,1.044.225,2.373,2.373,0,0,1,1.431,2.259,2.717,2.717,0,0,1-1.593,2.52,5.4,5.4,0,0,1-1.5.423,1.43,1.43,0,0,1,.315.6,6.962,6.962,0,0,0,1.368-.414,3.277,3.277,0,0,0,2.061-3.105,3.013,3.013,0,0,0-.873-2.2,3.484,3.484,0,0,0-2.475-.891,3.759,3.759,0,0,0-2.907,1.2,3.744,3.744,0,0,0-.945,2.484c0,1.26.639,2.2,1.494,2.2.648,0,1.179-.54,1.7-1.728A13.491,13.491,0,0,0,119.443,2.033Zm-.648.009a12.361,12.361,0,0,1-.819,3.33c-.387.882-.747,1.305-1.125,1.305-.486,0-.864-.666-.864-1.53a3.112,3.112,0,0,1,1.467-2.682A2.842,2.842,0,0,1,118.795,2.042Zm9.342,2.151a19.131,19.131,0,0,1-.621,1.854c-.234.63-.234.63-.63,1.512-.369.027-.477.036-.729.036h-.135l.162.621c.144-.027.216-.036.432-.063,1.7-.189,3.267-.432,4.428-.684.189.378.261.54.441.963l.531-.3a18.462,18.462,0,0,0-1.791-3.087l-.513.207A13.955,13.955,0,0,1,130.8,7.01a31.782,31.782,0,0,1-3.276.477,27.941,27.941,0,0,0,1.224-3.294h2.313a7.2,7.2,0,0,1,.954.054v-.63a6.827,6.827,0,0,1-.954.054h-3.969a6.376,6.376,0,0,1-.936-.054v.63a6.866,6.866,0,0,1,.945-.054Zm-2.619-1.485c.423-.981.486-1.152.63-1.557.09-.252.135-.387.2-.531l-.63-.207a7.049,7.049,0,0,1-.441,1.44,8.653,8.653,0,0,1-1.638,2.565,2.253,2.253,0,0,1,.387.495,6,6,0,0,0,.936-1.395c-.027.423-.027.684-.027,1.089V7.595a9.012,9.012,0,0,1-.054,1.089h.684a8.963,8.963,0,0,1-.045-1.062Zm1.224-.819a6.6,6.6,0,0,1,.945-.054h2.808a7.2,7.2,0,0,1,.954.054v-.63a6.827,6.827,0,0,1-.954.054h-2.817a6.375,6.375,0,0,1-.936-.054Zm6.264,3.1c.117-.027.531-.072,1.35-.144V7.775a6.392,6.392,0,0,1-.054.891h.639a6.484,6.484,0,0,1-.054-.891V4.787c.477-.063.6-.081.819-.117.063.189.09.27.162.54L136.309,5a7.454,7.454,0,0,0-.747-1.665l-.387.2a4.969,4.969,0,0,1,.369.72,12.232,12.232,0,0,1-1.4.135,25.084,25.084,0,0,0,1.53-2.331,1.731,1.731,0,0,1,.207-.315l-.531-.3a8.542,8.542,0,0,1-.918,1.692c-.18-.243-.27-.351-.5-.621a12.148,12.148,0,0,0,.738-1.215,5.907,5.907,0,0,1,.342-.612l-.549-.27a6.9,6.9,0,0,1-.855,1.737c-.171-.189-.189-.2-.387-.405l-.3.414a9.869,9.869,0,0,1,1.224,1.422c-.216.333-.216.333-.576.837-.126,0-.288.009-.378.009a1.32,1.32,0,0,1-.279-.018Zm7.146-2.79a7.574,7.574,0,0,1,.81.045V1.646a5.269,5.269,0,0,1-.837.054h-1.539V1.3a4.082,4.082,0,0,1,.054-.765h-.648a4.932,4.932,0,0,1,.054.765V1.7h-1.152a5.191,5.191,0,0,1-.837-.054V2.24a4.785,4.785,0,0,1,.81-.045h.783a9.688,9.688,0,0,1-.864,1.575c-.153.009-.207.009-.27.009-.153,0-.243-.009-.4-.018l.108.585a5.822,5.822,0,0,1,.585-.063c1.638-.108,2.124-.144,3.285-.3.171.225.261.342.486.684l.441-.36a12.867,12.867,0,0,0-1.665-1.872l-.4.3a9.138,9.138,0,0,1,.783.81c-.72.09-1.467.153-2.34.2a10.692,10.692,0,0,0,.828-1.548ZM133.4,5.372a7.285,7.285,0,0,1-.5,2.5l.477.243a8.324,8.324,0,0,0,.513-2.646Zm1.881.09a8.414,8.414,0,0,1,.4,1.845l.477-.189a11.986,11.986,0,0,0-.432-1.818Zm3.4-.828a5.364,5.364,0,0,1,.045.882V7.865c0,.486.171.594.981.594.6,0,.873-.072,1.017-.27a3.651,3.651,0,0,0,.306-1.71,1.6,1.6,0,0,1-.549-.243,5.49,5.49,0,0,1-.135,1.512c-.054.144-.225.2-.666.2-.342,0-.4-.036-.4-.261V5.516a5.429,5.429,0,0,1,.045-.882Zm-1.521.018a2.824,2.824,0,0,1,.045.576,3.816,3.816,0,0,1-.387,1.827,2.8,2.8,0,0,1-1.242,1.125,1.619,1.619,0,0,1,.459.441,3.387,3.387,0,0,0,1.233-1.215,4.189,4.189,0,0,0,.486-2.052,3.855,3.855,0,0,1,.045-.7Zm10.728-.81v3.9c0,.18-.072.216-.378.216a9.023,9.023,0,0,1-1.269-.108,2.167,2.167,0,0,1,.144.621c.387.027.81.045,1.1.045.792,0,1.008-.153,1.008-.729V3.842h.513a6.9,6.9,0,0,1,.981.054v-.63a6.371,6.371,0,0,1-.99.054h-3.159a6.838,6.838,0,0,1-1-.054V3.9a6.923,6.923,0,0,1,1-.054ZM143.977.512a3.52,3.52,0,0,1-.819,1.1,6.191,6.191,0,0,1-1.188.954,1.74,1.74,0,0,1,.4.441,8.779,8.779,0,0,0,2-1.953,1.472,1.472,0,0,1,.162-.2Zm1.233,1.125a7.1,7.1,0,0,1,.936-.054h2.52a6.953,6.953,0,0,1,.927.054v-.63a6.324,6.324,0,0,1-.927.054h-2.52a6.375,6.375,0,0,1-.936-.054Zm-1.917,5.922a6.825,6.825,0,0,1-.063,1.1h.711a6.753,6.753,0,0,1-.063-1.1V3.923a6.087,6.087,0,0,0,.6-.81,3.843,3.843,0,0,1,.27-.387l-.558-.315a3.094,3.094,0,0,1-.432.774,7.376,7.376,0,0,1-1.818,1.773,1.716,1.716,0,0,1,.351.513,5.2,5.2,0,0,0,1.026-1.008c-.018.432-.027.693-.027,1.08ZM8.994,17.525h-2.7a5.855,5.855,0,0,1-.981-.054v.567a6.529,6.529,0,0,1,.981-.045h2.7v.648H6.807a5.384,5.384,0,0,1-.864-.045v.558a6,6,0,0,1,.882-.045H8.994v.738c0,.2-.081.243-.405.243A7.784,7.784,0,0,1,7.473,20a1.484,1.484,0,0,1,.153.567c.5.027.666.036.855.036.873,0,1.053-.126,1.053-.747v-.747h2.412v.369h.585a5.306,5.306,0,0,1-.054-.9v-.585a6.121,6.121,0,0,1,.954.045v-.567a4.574,4.574,0,0,1-.954.054v-.378A7.123,7.123,0,0,1,12.5,16.4a8.8,8.8,0,0,1-1.008.036H9.534v-.585h2.079a5.614,5.614,0,0,1,.729.036,4.26,4.26,0,0,1-.036-.6v-.4a4.391,4.391,0,0,1,.036-.612,5.763,5.763,0,0,1-.738.036H9.534v-.594h2.772a8.051,8.051,0,0,1,1.017.054v-.594a6.817,6.817,0,0,1-1.035.054H9.534a2.935,2.935,0,0,1,.063-.81H8.94a3.624,3.624,0,0,1,.054.81H6.4a6.678,6.678,0,0,1-1.026-.054v.594a7.7,7.7,0,0,1,1.008-.054h2.61v.594H7.122a6.007,6.007,0,0,1-.747-.036,4.476,4.476,0,0,1,.036.612v.4a4.26,4.26,0,0,1-.036.6,5.674,5.674,0,0,1,.738-.036H8.994v.585H6.9a5.249,5.249,0,0,1-.864-.045v.558a5.7,5.7,0,0,1,.846-.045H8.994Zm.54,0V16.9h2.412v.621Zm0,.468h2.412v.648H9.534Zm-.54-3.24v.666H6.951v-.666Zm.54,0h2.232v.666H9.534Zm6.795-1.044a5.869,5.869,0,0,1,.5,1.1l.522-.189a5.519,5.519,0,0,0-.477-.909h.567a7.27,7.27,0,0,1,.828.036v-.576a5.556,5.556,0,0,1-.891.054H16.005c.126-.234.171-.315.306-.567l-.576-.171a4.3,4.3,0,0,1-1.476,2.025,1.522,1.522,0,0,1,.432.369,5.8,5.8,0,0,0,1.008-1.17Zm3.483-.009a6.027,6.027,0,0,1,.549,1.071l.513-.207a7.6,7.6,0,0,0-.495-.864h1a7.3,7.3,0,0,1,.945.045v-.576a6.565,6.565,0,0,1-.954.054H19.434c.189-.351.243-.441.324-.612l-.54-.171a4.118,4.118,0,0,1-1.2,1.773,1.2,1.2,0,0,1,.441.324,5.359,5.359,0,0,0,.684-.837ZM16.14,15.1a5.973,5.973,0,0,1-.909-.054v.594a6.223,6.223,0,0,1,.909-.054h1.809v.891H15.366a6.075,6.075,0,0,1-.927-.054v.594a6.908,6.908,0,0,1,.936-.054h4.383v.882H15.384a6.585,6.585,0,0,1-.927-.054v.594a6.816,6.816,0,0,1,.936-.054h4.365v1.512c0,.189-.072.234-.414.234a8.337,8.337,0,0,1-1.17-.072,2.091,2.091,0,0,1,.162.567c.315.018.63.027.882.027.891,0,1.107-.126,1.107-.657V18.335h1.044a6.766,6.766,0,0,1,.927.054V17.8a6.585,6.585,0,0,1-.927.054H20.325v-.882H21.4a6.585,6.585,0,0,1,.927.054v-.594a6.075,6.075,0,0,1-.927.054H18.489V15.59h2.16a6.261,6.261,0,0,1,.9.054V15.05a5.892,5.892,0,0,1-.909.054H18.489a2.762,2.762,0,0,1,.054-.558H17.9a2.837,2.837,0,0,1,.054.558Zm-.063,3.762a6.023,6.023,0,0,1,1.359,1.278l.45-.414a8.528,8.528,0,0,0-1.4-1.242Zm11.754-4.833a2.59,2.59,0,0,1,1.044.225,2.373,2.373,0,0,1,1.431,2.259,2.717,2.717,0,0,1-1.593,2.52,5.4,5.4,0,0,1-1.5.423,1.43,1.43,0,0,1,.315.6,6.963,6.963,0,0,0,1.368-.414,3.277,3.277,0,0,0,2.061-3.1,3.013,3.013,0,0,0-.873-2.2,3.484,3.484,0,0,0-2.475-.891,3.655,3.655,0,0,0-3.852,3.681c0,1.26.639,2.2,1.494,2.2.648,0,1.179-.54,1.7-1.728A13.491,13.491,0,0,0,27.831,14.033Zm-.648.009a12.362,12.362,0,0,1-.819,3.33c-.387.882-.747,1.305-1.125,1.305-.486,0-.864-.666-.864-1.53a3.112,3.112,0,0,1,1.467-2.682A2.842,2.842,0,0,1,27.183,14.042Zm5.661.936A1.34,1.34,0,0,1,33,14.969h.036c.351.018.432.018.747.018.333,0,.441,0,.621-.009a18.1,18.1,0,0,1-1.692,4.977l.657.279A23.715,23.715,0,0,0,34.4,17.489c.243-.819.495-1.836.63-2.547a13.155,13.155,0,0,0,1.521-.216c.18-.036.18-.036.252-.045l-.045-.621a7.421,7.421,0,0,1-1.62.306c.045-.27.072-.4.117-.684a8.51,8.51,0,0,1,.162-.855l-.711-.072a8.8,8.8,0,0,1-.2,1.656c-.261.018-.36.018-.54.018a6.207,6.207,0,0,1-1.125-.081Zm6.795.441c-.675-.027-.81-.027-.981-.027a10.2,10.2,0,0,0-2.385.3l.063.612a7.833,7.833,0,0,1,2.25-.306,9.036,9.036,0,0,1,1.062.063Zm-3.276,1.944c-.477.612-.6.891-.6,1.3,0,.891.765,1.35,2.241,1.35a9.018,9.018,0,0,0,1.6-.153c.3-.045.3-.045.4-.063l-.063-.675a6.687,6.687,0,0,1-1.989.306c-1.026,0-1.575-.288-1.575-.828a1.083,1.083,0,0,1,.225-.639,3.016,3.016,0,0,1,.27-.342Zm6.48-4.014a2.1,2.1,0,0,1,.117.477c.081.45.189.981.252,1.269a3.462,3.462,0,0,0-.9.918,3.232,3.232,0,0,0-.522,1.719c0,1.062.513,1.764,1.3,1.764a2.2,2.2,0,0,0,1.6-1.026,10.182,10.182,0,0,0,1.746-3.528,2.057,2.057,0,0,1,1.9,2.079,2.214,2.214,0,0,1-.4,1.278,2.928,2.928,0,0,1-1.35.981,4.079,4.079,0,0,1-1.341.333,1.487,1.487,0,0,1,.351.6c.387-.09.432-.1.567-.135a4.775,4.775,0,0,0,1.818-.891,2.829,2.829,0,0,0,.981-2.16,2.623,2.623,0,0,0-2.385-2.619c.045-.171.063-.27.108-.423a7.1,7.1,0,0,1,.243-.945l-.675-.144a10.107,10.107,0,0,1-.279,1.449c-.126-.009-.234-.009-.3-.009a4.288,4.288,0,0,0-1.926.45,11.668,11.668,0,0,1-.243-1.566Zm.522,2.349a12.441,12.441,0,0,0,.846,2.421c-.405.5-.792.765-1.107.765-.441,0-.729-.468-.729-1.179a2.683,2.683,0,0,1,.36-1.26A2.655,2.655,0,0,1,43.365,15.7Zm1.251,1.926a1.45,1.45,0,0,0-.072-.207,12.759,12.759,0,0,1-.675-2.088,3.364,3.364,0,0,1,1.737-.459c.045,0,.126.009.225.009a10.277,10.277,0,0,1-1.1,2.547,1.473,1.473,0,0,0-.108.2Zm10.215-3.591a2.59,2.59,0,0,1,1.044.225,2.373,2.373,0,0,1,1.431,2.259,2.717,2.717,0,0,1-1.593,2.52,5.4,5.4,0,0,1-1.5.423,1.43,1.43,0,0,1,.315.6,6.963,6.963,0,0,0,1.368-.414,3.277,3.277,0,0,0,2.061-3.1,3.013,3.013,0,0,0-.873-2.2,3.484,3.484,0,0,0-2.475-.891,3.655,3.655,0,0,0-3.852,3.681c0,1.26.639,2.2,1.494,2.2.648,0,1.179-.54,1.7-1.728A13.491,13.491,0,0,0,54.831,14.033Zm-.648.009a12.362,12.362,0,0,1-.819,3.33c-.387.882-.747,1.305-1.125,1.305-.486,0-.864-.666-.864-1.53a3.112,3.112,0,0,1,1.467-2.682A2.842,2.842,0,0,1,54.183,14.042Zm9.342,2.151a19.133,19.133,0,0,1-.621,1.854c-.234.63-.234.63-.63,1.512-.369.027-.477.036-.729.036H61.41l.162.621c.144-.027.216-.036.432-.063,1.7-.189,3.267-.432,4.428-.684.189.378.261.54.441.963l.531-.3a18.461,18.461,0,0,0-1.791-3.087l-.513.207a13.954,13.954,0,0,1,1.089,1.755,31.781,31.781,0,0,1-3.276.477,27.94,27.94,0,0,0,1.224-3.294h2.313a7.2,7.2,0,0,1,.954.054v-.63a6.827,6.827,0,0,1-.954.054H62.481a6.376,6.376,0,0,1-.936-.054v.63a6.866,6.866,0,0,1,.945-.054Zm-2.619-1.485c.423-.981.486-1.152.63-1.557.09-.252.135-.387.2-.531l-.63-.207a7.048,7.048,0,0,1-.441,1.44,8.653,8.653,0,0,1-1.638,2.565,2.253,2.253,0,0,1,.387.5,6,6,0,0,0,.936-1.4c-.027.423-.027.684-.027,1.089v2.988a9.013,9.013,0,0,1-.054,1.089h.684a8.964,8.964,0,0,1-.045-1.062Zm1.224-.819a6.6,6.6,0,0,1,.945-.054h2.808a7.2,7.2,0,0,1,.954.054v-.63a6.827,6.827,0,0,1-.954.054H63.066a6.375,6.375,0,0,1-.936-.054Zm13.806.756a6.746,6.746,0,0,1-1.3,1.476,7.561,7.561,0,0,1-.342-1.557l-.549.162c.027.1.036.144.072.261a12.127,12.127,0,0,0,.729,2.376,7.465,7.465,0,0,0,1.692,2.5,2.948,2.948,0,0,1,.459-.5,5.6,5.6,0,0,1-1.368-1.6,6.536,6.536,0,0,1-.513-1.107,15.522,15.522,0,0,0,1.494-1.485,1,1,0,0,1,.1-.1Zm-3.852,2.268h-.63a3.917,3.917,0,0,1-.711-.045V17.4a4.039,4.039,0,0,1,.711-.045h.63v.882h-1.1a3.9,3.9,0,0,1-.72-.045v.549a4.345,4.345,0,0,1,.756-.045h1.062v1.062c0,.216-.063.261-.378.261a7.648,7.648,0,0,1-1.278-.117,1.7,1.7,0,0,1,.135.585c.4.027.729.045,1.089.045a1.537,1.537,0,0,0,.72-.1c.171-.1.243-.261.243-.585V18.695h1.1a4.013,4.013,0,0,1,.729.045v-.549a3.378,3.378,0,0,1-.684.045H72.615v-.882h.72a3.544,3.544,0,0,1,.684.045v-.531a3.378,3.378,0,0,1-.684.045h-.72v-.792h.576a3.56,3.56,0,0,1,.639.045v-.531a3.325,3.325,0,0,1-.639.045h-.576V14.9a13.918,13.918,0,0,0,2.232-1.458l.171-.144-.3-.4a6.037,6.037,0,0,1-.846.036h-3.3a7.91,7.91,0,0,1-1.026-.054v.6a7.444,7.444,0,0,1,1.026-.054h3.492a10.725,10.725,0,0,1-1.764,1.1h-.261a4.862,4.862,0,0,1,.045.8v.351h-.549a3.382,3.382,0,0,1-.639-.045v.531a4.641,4.641,0,0,1,.639-.045h.549Zm-1.512-1.962a2.446,2.446,0,0,1-.513.036h-.99a3.516,3.516,0,0,1-.711-.045v.585a3.534,3.534,0,0,1,.693-.045h1.161a8.028,8.028,0,0,1-.81,2.367A5.517,5.517,0,0,1,68.07,19.46a2.033,2.033,0,0,1,.423.45,7.047,7.047,0,0,0,1.368-1.782,10.568,10.568,0,0,0,.882-2.547c.045-.171.063-.243.1-.342Zm10.422,2.574h-2.7a5.855,5.855,0,0,1-.981-.054v.567a6.529,6.529,0,0,1,.981-.045h2.7v.648H78.807a5.384,5.384,0,0,1-.864-.045v.558a6,6,0,0,1,.882-.045h2.169v.738c0,.2-.081.243-.4.243A7.784,7.784,0,0,1,79.473,20a1.484,1.484,0,0,1,.153.567c.5.027.666.036.855.036.873,0,1.053-.126,1.053-.747v-.747h2.412v.369h.585a5.307,5.307,0,0,1-.054-.9v-.585a6.121,6.121,0,0,1,.954.045v-.567a4.574,4.574,0,0,1-.954.054v-.378A7.124,7.124,0,0,1,84.5,16.4a8.8,8.8,0,0,1-1.008.036H81.535v-.585h2.079a5.614,5.614,0,0,1,.729.036,4.26,4.26,0,0,1-.036-.6v-.4a4.391,4.391,0,0,1,.036-.612,5.763,5.763,0,0,1-.738.036h-2.07v-.594h2.772a8.051,8.051,0,0,1,1.017.054v-.594a6.817,6.817,0,0,1-1.035.054H81.535a2.935,2.935,0,0,1,.063-.81H80.94a3.624,3.624,0,0,1,.054.81H78.4a6.679,6.679,0,0,1-1.026-.054v.594a7.7,7.7,0,0,1,1.008-.054h2.61v.594H79.122a6.007,6.007,0,0,1-.747-.036,4.476,4.476,0,0,1,.036.612v.4a4.26,4.26,0,0,1-.036.6,5.674,5.674,0,0,1,.738-.036h1.881v.585H78.9a5.248,5.248,0,0,1-.864-.045v.558a5.7,5.7,0,0,1,.846-.045h2.115Zm.54,0V16.9h2.412v.621Zm0,.468h2.412v.648H81.535Zm-.54-3.24v.666H78.951v-.666Zm.54,0h2.232v.666H81.535Zm8.487,1.215v.657H88.239a6.858,6.858,0,0,1-.963-.045v.549a6.858,6.858,0,0,1,.963-.045h1.782v.693H87.438a6.867,6.867,0,0,1-1.017-.054v.585a8.462,8.462,0,0,1,1.017-.054h2.2A6.825,6.825,0,0,1,86.3,19.847a1.875,1.875,0,0,1,.369.522,7.155,7.155,0,0,0,3.384-1.935c-.027.351-.036.549-.036.756v.594a5.947,5.947,0,0,1-.054.945h.648a6.816,6.816,0,0,1-.054-.936v-.6c0-.2-.009-.36-.036-.765a5.9,5.9,0,0,0,1.431,1.1,9.649,9.649,0,0,0,2.205.846,2.092,2.092,0,0,1,.351-.558,7.112,7.112,0,0,1-3.573-1.557H93.3a8.569,8.569,0,0,1,1.017.054v-.585a6.759,6.759,0,0,1-1.026.054H90.562v-.693h1.89a7,7,0,0,1,.972.045V16.58a6.767,6.767,0,0,1-.972.045h-1.89v-.657h2.448a7.08,7.08,0,0,1,.972.045v-.558a6.767,6.767,0,0,1-.972.045H91.731a10.255,10.255,0,0,0,.486-1.017h1.062a9.6,9.6,0,0,1,1.017.045v-.576a6.979,6.979,0,0,1-1.008.054h-.54A8.949,8.949,0,0,0,93.424,13l-.549-.234a5.783,5.783,0,0,1-.711,1.242H91.3v-.693a4.211,4.211,0,0,1,.054-.756h-.612a5.232,5.232,0,0,1,.036.747v.7h-.954v-.7a5.071,5.071,0,0,1,.036-.747h-.612a4.352,4.352,0,0,1,.054.756v.693h-.756a5.345,5.345,0,0,0-.8-1.2l-.513.243a4.724,4.724,0,0,1,.738.954h-.621a7.009,7.009,0,0,1-1-.054v.576a9.6,9.6,0,0,1,1.017-.045H88.5a5.425,5.425,0,0,1,.477,1.017h-1.3a6.551,6.551,0,0,1-.963-.045v.558a7.016,7.016,0,0,1,.963-.045Zm-.5-.468a7.4,7.4,0,0,0-.423-1.017h2.5a4.621,4.621,0,0,1-.459,1.017Zm11.286,5.229a5.691,5.691,0,0,1-1.368-1.863,5.619,5.619,0,0,1,0-4.572,5.691,5.691,0,0,1,1.368-1.863h-.8a6.058,6.058,0,0,0-1.251,1.935,5.889,5.889,0,0,0,0,4.428,6.058,6.058,0,0,0,1.251,1.935Zm8.334-.5a22.268,22.268,0,0,0-2.214-3.267l-.5.306a16.548,16.548,0,0,1,1.359,1.845,38.119,38.119,0,0,1-3.978.369,33.4,33.4,0,0,0,1.764-3.744c.072-.2.108-.288.144-.369a.2.2,0,0,0,.027-.045l-.693-.207a9.269,9.269,0,0,1-.522,1.548,19.514,19.514,0,0,1-1.386,2.844c-.3.009-.4.009-.585.009-.162,0-.378-.009-.6-.018l.144.7a6.629,6.629,0,0,1,1.026-.1c1.755-.1,3.393-.261,4.95-.5.2.351.3.522.522.981ZM104.3,12.809a3.415,3.415,0,0,1-.486,1.143,7.64,7.64,0,0,1-2.358,2.43,1.806,1.806,0,0,1,.432.5,9.758,9.758,0,0,0,1.341-1.188,9.74,9.74,0,0,0,1.512-2.187,3.157,3.157,0,0,1,.252-.459Zm2,.243a1.8,1.8,0,0,1,.135.252,9.2,9.2,0,0,0,3.042,3.6,2.041,2.041,0,0,1,.423-.549,8.075,8.075,0,0,1-1.98-1.782,6.075,6.075,0,0,1-1.017-1.782Zm7.191,3.618c-.009.684-.009.684-.036,1.116h-.36a5.316,5.316,0,0,1-.864-.045v.54a5.453,5.453,0,0,1,.864-.045h.315a2.4,2.4,0,0,1-1.125,1.863,1.648,1.648,0,0,1,.45.369,3.03,3.03,0,0,0,1.188-2.232h1.359v1.386a3.358,3.358,0,0,1-.054.774h.621a3.13,3.13,0,0,1-.054-.774V18.236h.45a5.453,5.453,0,0,1,.864.045v-.54a5.248,5.248,0,0,1-.864.045h-.45V16.67h.324a6.993,6.993,0,0,1,.855.036v-.531a5.523,5.523,0,0,1-.864.045H113.25a5.4,5.4,0,0,1-.855-.045v.531a6.993,6.993,0,0,1,.855-.036Zm1.791,0v1.116h-1.314c.018-.306.036-.63.036-.909V16.67Zm-3.7-1.17H113.3c.387,0,.693.009.909.027-.018-.225-.027-.477-.027-.837V13.583c0-.333.009-.6.027-.855a7.821,7.821,0,0,1-.909.036h-1.368a8.33,8.33,0,0,1-.945-.036c.027.288.036.549.036.99v5.913a6.727,6.727,0,0,1-.054,1.008h.666a6.565,6.565,0,0,1-.054-1.008Zm0-2.3h2.088V13.9h-2.088Zm0,1.125h2.088v.729h-2.088Zm6.741-.612a8.328,8.328,0,0,1,.045-.99,8.433,8.433,0,0,1-.945.036h-1.485a8.073,8.073,0,0,1-.927-.036c.018.3.027.522.027.855V14.69c0,.36-.009.576-.027.837.252-.018.54-.027.918-.027h1.845v4.221c0,.207-.063.252-.351.252a7.561,7.561,0,0,1-1-.09,1.78,1.78,0,0,1,.171.576c.18.009.657.027.765.027a1.829,1.829,0,0,0,.639-.063c.234-.1.324-.288.324-.675Zm-2.763-.513h2.214V13.9h-2.214Zm0,1.125h2.214v.729h-2.214Zm7.785-.486h-2.547a5.711,5.711,0,0,1-.945-.063v.648a6.816,6.816,0,0,1,.936-.054h2.556v1.449h-1.881a6.534,6.534,0,0,1-.963-.054v.612a7.1,7.1,0,0,1,.954-.054h.117a5.162,5.162,0,0,0,.684,1.179,6.142,6.142,0,0,0,1.035,1.08,8.823,8.823,0,0,1-3.537,1.377,1.973,1.973,0,0,1,.324.567,9.635,9.635,0,0,0,3.672-1.584,10.155,10.155,0,0,0,3.636,1.62,2.008,2.008,0,0,1,.342-.6,9.543,9.543,0,0,1-3.51-1.368A8.989,8.989,0,0,0,126,16.607a3.4,3.4,0,0,1,.315-.441l-.387-.387a4.185,4.185,0,0,1-.792.045h-1.215V14.375h2.691a6.866,6.866,0,0,1,.945.054v-.648a5.711,5.711,0,0,1-.945.063h-2.691V13.3a3.539,3.539,0,0,1,.063-.783h-.711a3.759,3.759,0,0,1,.063.783Zm2.151,2.484a6.747,6.747,0,0,1-1.755,1.935,4.9,4.9,0,0,1-1.548-1.935Zm7.11-.738c-.018.306-.036.5-.072.765h-.369a6.514,6.514,0,0,1-.936-.045v.567a6.452,6.452,0,0,1,.927-.045h.288a5.838,5.838,0,0,1-.765,1.89,5.238,5.238,0,0,1-1.3,1.458,1.246,1.246,0,0,1,.4.423,6.608,6.608,0,0,0,1.791-2.448,5.379,5.379,0,0,0,1.143,1.17,6.291,6.291,0,0,1-2.142.855,1.262,1.262,0,0,1,.315.486,7.271,7.271,0,0,0,2.286-1.017,8.441,8.441,0,0,0,2.394,1.035,3.275,3.275,0,0,1,.3-.558,7.157,7.157,0,0,1-2.268-.8,7.029,7.029,0,0,0,1.107-1.188,2.827,2.827,0,0,1,.216-.3l-.288-.369a4.68,4.68,0,0,1-.756.036H132.8c.072-.252.117-.405.171-.675h2.7a7.74,7.74,0,0,1,.981.054V16.3a6.316,6.316,0,0,1-.981.054h-2.61c.036-.27.045-.36.081-.765h2.511a7.44,7.44,0,0,1,.837.036v-.549a3.683,3.683,0,0,1-.792.054h-.423a9.925,9.925,0,0,0,.882-1.512l-.549-.189a6.8,6.8,0,0,1-.873,1.7h-2.556a4.72,4.72,0,0,1-.81-.045v.54a7.51,7.51,0,0,1,.846-.036Zm2.529,2.385a4.334,4.334,0,0,1-1.008,1.062A4.929,4.929,0,0,1,133,17.975Zm-5.409-3.636h-.513a3.048,3.048,0,0,1-.6-.045v.585a4.609,4.609,0,0,1,.6-.036h.513v1.845a4.718,4.718,0,0,1-1.224.405l.162.594a2.926,2.926,0,0,1,.387-.162c.288-.108.3-.117.675-.279v2.673c0,.126-.054.171-.243.171a5.6,5.6,0,0,1-.774-.072,1.821,1.821,0,0,1,.117.558c.243.018.342.018.531.018.747,0,.927-.117.927-.612V17c.324-.153.441-.216.792-.405l-.027-.531a6.808,6.808,0,0,1-.765.387V14.843h.279a3.756,3.756,0,0,1,.567.036V14.3a3.532,3.532,0,0,1-.567.036h-.279v-.873a5.813,5.813,0,0,1,.054-.909h-.666a5.16,5.16,0,0,1,.054.918Zm6.21-1.827a15.937,15.937,0,0,1-4.644.6h-.225a1.236,1.236,0,0,1,.189.513,26.23,26.23,0,0,0,4.644-.513c.288-.063.288-.063.45-.09Zm-3.267,2.34a4.528,4.528,0,0,0-.558-1.125l-.459.18a3.915,3.915,0,0,1,.585,1.143Zm1.53-.054a4.9,4.9,0,0,0-.531-1.206l-.459.135a4.878,4.878,0,0,1,.522,1.233Zm4.1,5.931a6.058,6.058,0,0,0,1.251-1.935,5.889,5.889,0,0,0,0-4.428,6.058,6.058,0,0,0-1.251-1.935h-.8a5.6,5.6,0,0,1,1.368,1.863,5.619,5.619,0,0,1,0,4.572,5.6,5.6,0,0,1-1.368,1.863Z" transform="translate(204 9158)" fill="#212223"/><g transform="translate(215 9184)" clip-path="url(#a)"><path d="M127.858,34.1c-.081.036-.152.055-.2.127-.017.028-.085.032-.131.039s-.082-.009-.12,0a.221.221,0,0,0-.107.042,1.123,1.123,0,0,0-.232.214c-.064.093-.175.12-.245.2a.12.12,0,0,1-.061.035.629.629,0,0,0-.235.109.37.37,0,0,1-.161.031,1.049,1.049,0,0,0-.2.026.446.446,0,0,1-.224.023.388.388,0,0,0-.323.09.35.35,0,0,1-.186.068c-.087.012-.173.032-.259.042a.567.567,0,0,1-.123-.014.506.506,0,0,0-.088.254c0,.064-.029.078-.095.063s-.3,0-.331.038c-.066.1-.157.1-.263.1a.411.411,0,0,0-.216.073.782.782,0,0,1-.321.081,1.006,1.006,0,0,0-.328.1c-.06.039-.141.044-.19.112-.015.021-.067.017-.1.024l-.464.1a.1.1,0,0,0-.051.028.285.285,0,0,1-.217.085c-.155.009-.311.007-.466.007a1.568,1.568,0,0,1-.216-.009c-.089-.011-.179-.029-.267-.049-.253-.057-.509-.109-.758-.178a2.934,2.934,0,0,1-.369-.154.192.192,0,0,0-.067-.024.353.353,0,0,1-.286-.09c-.007-.008-.03,0-.045,0s-.026.014-.034.011a1.8,1.8,0,0,1-.264-.1c-.093-.051-.172-.124-.263-.18a.911.911,0,0,1-.2-.193c-.02-.024-.045-.062-.068-.061-.147,0-.24-.117-.375-.145a.363.363,0,0,1-.159-.1,1.3,1.3,0,0,0-.374-.245,1.839,1.839,0,0,1-.321-.2,3.564,3.564,0,0,0-.408-.281,1.126,1.126,0,0,1-.18-.151c-.1-.086-.2-.175-.306-.254-.079-.06-.168-.106-.249-.163s-.15-.114-.226-.17a.255.255,0,0,0-.086-.058.207.207,0,0,1-.144-.111.5.5,0,0,0-.156-.14c-.116-.082-.239-.151-.359-.228a2.8,2.8,0,0,1-.281-.2,1.754,1.754,0,0,1-.164-.181,1.623,1.623,0,0,0-.227-.239,2.655,2.655,0,0,0-.485-.3.657.657,0,0,1-.185-.158,2.119,2.119,0,0,1-.166-.185.354.354,0,0,0-.2-.159c-.02,0-.037-.027-.055-.043a.922.922,0,0,0-.256-.207.122.122,0,0,1-.057-.058.388.388,0,0,0-.211-.183.522.522,0,0,1-.215-.164,3.242,3.242,0,0,0-.529-.494.827.827,0,0,1-.205-.221c-.031-.056-.106-.089-.161-.132a.248.248,0,0,1-.064-.05,3.015,3.015,0,0,0-.482-.492c-.122-.122-.3-.164-.421-.277-.02-.018-.05-.028-.07-.045-.093-.084-.18-.175-.279-.252-.117-.093-.243-.175-.366-.261a.076.076,0,0,0-.1.006,1.461,1.461,0,0,0-.277.278.3.3,0,0,1-.072.058c-.035.025-.074.047-.107.075-.055.048-.094.115-.187.106-.02,0-.053.027-.063.049a.825.825,0,0,1-.159.185c-.055.059-.1.128-.15.191a.913.913,0,0,1-.135.147,1.267,1.267,0,0,0-.272.289c0,.006-.008.016-.014.018-.136.056-.157.186-.207.3a.1.1,0,0,1-.086.071c-.118.008-.17.1-.246.167l-.109.086c-.051.042-.1.085-.152.13s-.084.08-.125.119c-.009.008-.022.012-.029.021-.129.144-.316.228-.432.387a.147.147,0,0,1-.056.043.108.108,0,0,0-.063.091c-.016.1-.094.138-.181.166a1.086,1.086,0,0,0-.135.04.25.25,0,0,0-.139.134.335.335,0,0,1-.1.137c-.055.043-.126.066-.166.13-.009.013-.035.016-.053.023-.067.025-.131.054-.2.075a.632.632,0,0,1-.13.018c-.05.005-.1.012-.115.067s-.089.061-.135.085a2.121,2.121,0,0,1-.23.1c-.03.012-.07.015-.087.036a.329.329,0,0,1-.2.09.634.634,0,0,0-.312.16.222.222,0,0,1-.125.082.156.156,0,0,0-.086.055.2.2,0,0,1-.181.072A.312.312,0,0,0,104.8,33a.683.683,0,0,1-.258.113.206.206,0,0,0-.119.065.188.188,0,0,1-.178.074.431.431,0,0,0-.249.067.911.911,0,0,1-.274.077.191.191,0,0,0-.123.062.165.165,0,0,1-.093.043,1.32,1.32,0,0,1-.191.012.48.48,0,0,0-.26.073.7.7,0,0,1-.1.046c-.022.01-.058.01-.066.026-.047.094-.143.082-.224.109a1.058,1.058,0,0,0-.167.088.138.138,0,0,1-.053.025,3.585,3.585,0,0,0-.407.12c-.143.023-.287.037-.43.052a.621.621,0,0,1-.12-.009.378.378,0,0,0-.253.051.238.238,0,0,1-.26,0,.615.615,0,0,0-.263-.075.15.15,0,0,1-.087-.029.334.334,0,0,0-.285-.073.847.847,0,0,1-.265-.062.622.622,0,0,1-.108-.045,1.006,1.006,0,0,1-.11-.065c-.02-.013-.035-.043-.055-.044a1.707,1.707,0,0,1-.331-.118c-.022-.006-.053-.011-.064-.026a.288.288,0,0,0-.251-.119.086.086,0,0,1-.095-.082,1.423,1.423,0,0,1-.006-.529.391.391,0,0,0-.026-.18.26.26,0,0,0-.121-.134.367.367,0,0,1-.207-.294.281.281,0,0,0-.051-.128c-.06-.1-.062-.1-.043-.2l.175-.126a.141.141,0,0,1,.051-.171c.066-.049.047-.128.077-.19.013-.027.011-.062.03-.085a.447.447,0,0,0,.086-.3.819.819,0,0,1,.011-.139.271.271,0,0,1,.04-.073c.094.084.029.246.178.291.039-.07.078-.133.111-.2a.284.284,0,0,0,.043-.118.591.591,0,0,1,.08-.262.119.119,0,0,0-.014-.15c-.04-.042-.025-.085-.006-.13a.1.1,0,0,1,.1-.059.072.072,0,0,1,.079.073c0,.116.087.188.144.274.04.06.1.063.153.012s.1-.1.152-.147a.1.1,0,0,0,0-.137l-.046-.063s0-.007.006-.019a.491.491,0,0,1,.439.139.528.528,0,0,0,.066.067.155.155,0,0,1,.071.18c-.019.082,0,.1.1.144a.233.233,0,0,1,.093-.277c.066-.06.1-.055.136.02.018.035.034.07.051.106a.372.372,0,0,0,.2.163.338.338,0,0,0,.184-.007.354.354,0,0,1,.164-.016c.023.005.055-.024.091-.042l.093.045c.043-.024.087-.069.145-.023.007.005.024,0,.033,0a2.023,2.023,0,0,1,.672-.057.6.6,0,0,0,.245-.041.444.444,0,0,1,.221-.033.457.457,0,0,0,.165-.008,1.11,1.11,0,0,0,.366-.106c.023-.016.068,0,.117,0,0,0,.014-.025.029-.029.181-.038.316-.189.519-.186a.368.368,0,0,0,.324-.145.125.125,0,0,1,.046-.036c.093-.049.187-.1.28-.145.031-.017.059-.039.09-.055a.49.49,0,0,1,.159-.073,1.125,1.125,0,0,0,.47-.187c.037-.022.08-.036.117-.057s.092-.06.139-.088a3.914,3.914,0,0,0,.32-.253c.043-.031.107-.034.153-.061.078-.044.175-.063.223-.148a.029.029,0,0,1,.02-.012c.137-.023.208-.133.3-.21a.349.349,0,0,1,.06-.035c.017-.009.043-.011.053-.024a.525.525,0,0,1,.207-.15,1.223,1.223,0,0,1,.161-.091c.111-.032.194-.128.319-.129a.147.147,0,0,0,.092-.051,1.23,1.23,0,0,1,.225-.185.507.507,0,0,1,.2-.1.18.18,0,0,0,.127-.1.943.943,0,0,1,.19-.26,5.081,5.081,0,0,0,.388-.388c.046-.049.037-.1-.021-.151a1.07,1.07,0,0,0-.213-.169c-.1-.047-.131-.141-.2-.206a.726.726,0,0,1-.141-.186.315.315,0,0,0-.12-.138c-.025-.014-.031-.068-.036-.1s0-.069,0-.1a.134.134,0,0,0-.089-.126.611.611,0,0,1-.251-.186.546.546,0,0,0-.143-.1c-.083-.055-.168-.107-.249-.163-.041-.029-.077-.065-.115-.1a1.154,1.154,0,0,0-.137-.111,1.359,1.359,0,0,0-.3-.179.117.117,0,0,1-.05-.032.277.277,0,0,0-.183-.1c-.06,0-.08-.053-.085-.1a.9.9,0,0,0-.174-.368.133.133,0,0,1-.022-.074c.007-.077.066-.1.121-.049s.128,0,.192.028a.287.287,0,0,0-.024-.231c-.06-.1,0-.192.035-.276.016-.041.1-.055.15-.083a.769.769,0,0,0,.128-.078.574.574,0,0,1,.26-.139.31.31,0,0,0,.133-.051.321.321,0,0,1,.215-.059c.173,0,.345-.007.518-.007a1.057,1.057,0,0,1,.168.014.08.08,0,0,1,.057.034.164.164,0,0,0,.1.089.083.083,0,0,1,.057.092.211.211,0,0,0,.068.156.32.32,0,0,1,.054.113c.015.048.019.1.035.147a.106.106,0,0,0,.116.08c.073,0,.145.027.217-.025a.086.086,0,0,1,.115.032c.04.052.081.1.123.153.01.012.026.028.038.026.083-.009.1.058.143.1a.831.831,0,0,0,.162.118c.11.07.22.14.333.206a1.287,1.287,0,0,0,.2.1.274.274,0,0,1,.142.1.3.3,0,0,0,.3.116.142.142,0,0,0,.054-.025,2.174,2.174,0,0,0,.169-.19,1.187,1.187,0,0,1,.217-.272.052.052,0,0,0,.021-.028c.013-.124.119-.2.168-.3a1.081,1.081,0,0,1,.33-.354c.015-.012.038-.022.043-.037a3.891,3.891,0,0,1,.283-.5.2.2,0,0,1,.158-.106c.087-.013.089-.017.087-.1,0-.057-.018-.113-.019-.17A.841.841,0,0,1,112.1,23a.689.689,0,0,1,.095-.3.25.25,0,0,0,.023-.112c.006-.055.012-.107.075-.136a.092.092,0,0,0,.04-.065,2.616,2.616,0,0,0,.016-.279c0-.094-.048-.129-.145-.129-.165,0-.33,0-.494,0s-.313.009-.469.013-.313,0-.469.006a1.619,1.619,0,0,0-.261.037,1.216,1.216,0,0,1-.33.047,1.139,1.139,0,0,0-.192.014.1.1,0,0,0-.066.025c-.086.1-.208.087-.322.1-.063,0-.129-.009-.193,0a.932.932,0,0,0-.356.081,1.067,1.067,0,0,1-.353.053c-.048.006-.1,0-.144.006s-.1.009-.115.065-.054.053-.1.053-.088,0-.132,0a.36.36,0,0,0-.238.068.348.348,0,0,1-.19.062c-.071.006-.143.015-.214.023a.081.081,0,0,0-.035.01.892.892,0,0,1-.494.1c-.075.008-.152.01-.228.016a.161.161,0,0,0-.058.013c-.095.048-.189.1-.282.15-.015.008-.017.033-.028.049a.222.222,0,0,1-.192.1c-.052,0-.1,0-.156,0a.135.135,0,0,0-.129.069.131.131,0,0,1-.134.059c-.035,0-.071.009-.107.007-.126-.008-.18.1-.266.152-.026.017-.049.046-.078.052a.8.8,0,0,0-.362.171c-.029.026-.062.047-.092.071s-.034.041-.054.045a.482.482,0,0,0-.275.216.079.079,0,0,1-.05.028,1.7,1.7,0,0,1-.216,0,.111.111,0,0,1-.08-.042.169.169,0,0,0-.173-.08.193.193,0,0,1-.2-.08c-.035-.055-.1-.046-.154-.039a.244.244,0,0,1-.238-.077.165.165,0,0,0-.121-.034.173.173,0,0,1-.172-.1.3.3,0,0,1-.045-.241c.019-.083,0-.1-.079-.145s-.1-.127-.027-.173a.188.188,0,0,0,.089-.186.064.064,0,0,1,0-.022c.118-.111.231-.212.338-.319a.142.142,0,0,0,.034-.094.144.144,0,0,1,.09-.146c.072-.039.165-.073.181-.172.112-.047.1-.155.131-.241a.333.333,0,0,1,.32-.181.11.11,0,0,0,.121-.045.714.714,0,0,1,.164-.147.23.23,0,0,1,.115-.02q.246,0,.494,0a.2.2,0,0,0,.187-.082.21.21,0,0,1,.11-.057,1.683,1.683,0,0,1,.185-.038c.063-.01.126-.02.189-.027a.5.5,0,0,0,.247-.08.3.3,0,0,1,.145-.045c.164-.011.329-.011.493-.022.085,0,.171-.022.256-.034a.032.032,0,0,0,.02-.012c.049-.083.135-.073.214-.077a1.085,1.085,0,0,0,.524-.106.557.557,0,0,1,.212-.035.833.833,0,0,1,.282-.038.061.061,0,0,0,.052-.02c.031-.058.087-.047.137-.053s.128-.016.193-.018a.338.338,0,0,0,.241-.1.4.4,0,0,1,.447-.12.2.2,0,0,0,.059.008l.177.019a.609.609,0,0,1,.154-.039.408.408,0,0,0,.329-.162.174.174,0,0,0,.036-.106c0-.194-.007-.387-.011-.58-.006-.248-.013-.5-.017-.744a.124.124,0,0,1,.03-.085.21.21,0,0,0,.048-.172c0-.082-.013-.171.088-.225.029-.015.041-.072.048-.113a.155.155,0,0,1,.1-.121c.1-.052.216-.07.283-.168a.079.079,0,0,1,.041-.023,1.248,1.248,0,0,0,.266-.131.523.523,0,0,0,.234-.192.132.132,0,0,1,.09-.047,2.664,2.664,0,0,1,.576-.014.127.127,0,0,1,.074.034.26.26,0,0,0,.209.066c.185,0,.37.007.555.009.055,0,.1.005.134.059.007.012.023.029.034.028.08,0,.1.071.142.1.111.075.123.2.2.295.014.018.021.049.04.057.1.042.091.13.089.208a.21.21,0,0,0,.082.205.1.1,0,0,1,.03.071c.007.081.013.162.014.243,0,.317,0,.635,0,.952,0,.134.03.165.166.165.061,0,.121,0,.182,0a1.258,1.258,0,0,1,.34.063,3.26,3.26,0,0,0,.551.019,2.229,2.229,0,0,1,.574.022.356.356,0,0,0,.084-.005.442.442,0,0,1,.264.048.49.49,0,0,0,.221.039.493.493,0,0,1,.237.072.454.454,0,0,0,.182.049.827.827,0,0,1,.322.083.507.507,0,0,0,.2.044.978.978,0,0,1,.3.072.622.622,0,0,0,.174.036c.088.01.177.011.264.02a.2.2,0,0,1,.1.029.541.541,0,0,0,.343.079.365.365,0,0,1,.257.073.281.281,0,0,0,.169.04.348.348,0,0,1,.254.085.192.192,0,0,0,.1.039.733.733,0,0,1,.3.086.4.4,0,0,0,.151.035c.106.018.214.032.32.049s.214.032.32.052a.3.3,0,0,1,.112.038.3.3,0,0,0,.2.055.086.086,0,0,1,.047.005c.109.067.24.089.343.157a.648.648,0,0,0,.254.091.163.163,0,0,0,.06,0,.6.6,0,0,1,.485.147c.086.06.2.087.264.175.011.015.043.019.065.026.081.027.1.051.1.134,0,.062-.012.123-.016.185a.129.129,0,0,0,.072.133.637.637,0,0,1,.169.144.237.237,0,0,1,.043.139c0,.093-.011.185-.016.278a.1.1,0,0,1-.1.1.2.2,0,0,0-.174.106s0,.009-.007.009c-.131,0-.2.126-.322.145a.376.376,0,0,0-.084.036.483.483,0,0,1-.091.039.125.125,0,0,0-.105.171c.024.1.019.111-.088.127a.212.212,0,0,0-.158.091.661.661,0,0,1-.123.126.15.15,0,0,1-.072.034,1.464,1.464,0,0,1-.169.013.111.111,0,0,1-.057-.013,1.262,1.262,0,0,0-.681-.129.127.127,0,0,1-.1-.044c-.231-.229-.15-.2-.487-.2a.749.749,0,0,0-.108.01.143.143,0,0,1-.129-.049c-.015-.017-.028-.047-.047-.05-.189-.034-.32-.2-.52-.208-.076-.063-.175-.045-.262-.072a.414.414,0,0,1-.122-.047.393.393,0,0,0-.261-.064,1.472,1.472,0,0,1-.285-.022c-.038-.007-.072-.045-.1-.071s-.054-.051-.074-.071c-.06.027-.105.052-.153.068a.128.128,0,0,1-.154-.026.076.076,0,0,0-.064-.023c-.114.043-.195-.032-.279-.073a1.317,1.317,0,0,0-.28-.1,1.143,1.143,0,0,1-.153-.061c-.036-.015-.072-.033-.109-.045-.064-.022-.131-.039-.194-.061a.286.286,0,0,0-.221.013.389.389,0,0,1-.1.03,2.838,2.838,0,0,0-.4.052c-.093.026-.175.094-.274.12-.017,0-.029.053-.031.082a.182.182,0,0,1-.082.147.209.209,0,0,0-.049.062c-.026.042-.053.086-.076.129a.245.245,0,0,0-.04.082.155.155,0,0,1-.068.115.165.165,0,0,0-.05.1c-.017.086-.014.178-.1.236-.018.011-.02.047-.028.073a.908.908,0,0,1-.092.285,3.139,3.139,0,0,1-.213.335s-.008.005-.008.008c-.013.118-.114.19-.163.29s-.1.191-.156.284c-.01.018-.041.024-.057.04-.044.044-.085.09-.124.138a1.143,1.143,0,0,1-.1.131,1.439,1.439,0,0,0-.294.445,3.211,3.211,0,0,1-.163.285c-.037.057-.106.093-.152.145a1.041,1.041,0,0,0-.149.194.979.979,0,0,1-.2.269.109.109,0,0,0-.012.172.549.549,0,0,0,.142.1.734.734,0,0,1,.189.118,1.05,1.05,0,0,0,.189.121.746.746,0,0,1,.3.3.1.1,0,0,0,.039.043c.1.053.2.1.289.158.061.04.1.108.162.152a.923.923,0,0,0,.358.217.366.366,0,0,1,.111.064l.32.2c.017.01.032.028.05.031.117.022.185.115.279.172.055.035.118.059.176.091.026.015.049.036.075.054s.075.055.114.08a.936.936,0,0,1,.3.266.121.121,0,0,0,.07.051,1.715,1.715,0,0,1,.511.188c.025.012.054.017.079.029.055.028.11.06.166.089.095.05.187.1.285.147.063.028.143.019.189.088a.054.054,0,0,0,.044.014.317.317,0,0,1,.239.093,1.87,1.87,0,0,0,.353.192,1.328,1.328,0,0,1,.213.1,1.475,1.475,0,0,0,.4.176c.029.011.062.013.092.024a.148.148,0,0,1,.069.036.273.273,0,0,0,.165.087c.133.032.166.077.164.215a.146.146,0,0,0,.115.168,1.859,1.859,0,0,1,.3.12c.094.057.2.073.292.123.124.07.264.09.384.158.011.006.023.015.033.014a.741.741,0,0,1,.345.11c.066.026.127.063.19.095.008,0,.013.012.02.013.149.017.254.125.389.175a.314.314,0,0,1,.063.032.628.628,0,0,0,.195.084.638.638,0,0,1,.213.093.642.642,0,0,0,.3.129.174.174,0,0,1,.092.027,1.61,1.61,0,0,0,.258.134,3.74,3.74,0,0,0,.442.18c.036.014.066.04.1.056a.893.893,0,0,0,.142.056.187.187,0,0,1,.132.086c.025.042.084.066.128.1a.7.7,0,0,0,.416.074c.032,0,.077-.008.093.009.093.1.229.077.338.127.011.005.024.013.034.011a.332.332,0,0,1,.228.048.82.82,0,0,0,.247.034c.118.017.235.042.354.051.326.025.653.048.98.061.255.01.512,0,.768,0,.156,0,.312-.006.468-.007.068,0,.136.014.2.012.143,0,.286-.018.429-.02.437-.006.874-.006,1.31-.015.175,0,.351-.024.526-.037a.14.14,0,0,1,.047,0c.039.012.1,0,.108.058s-.032.062-.062.088a.26.26,0,0,1-.194.076c-.062,0-.087.036-.093.085a.4.4,0,0,1-.182.286.115.115,0,0,0-.037.045.353.353,0,0,1-.331.185,1.775,1.775,0,0,0-.491.138c-.07.027-.084.067-.065.14s.038.118.056.177c.008.025.013.051.022.086M98.933,32.178c-.017.007-.049.012-.059.029a.091.091,0,0,0,0,.073.3.3,0,0,0,.059.085.112.112,0,0,0,.158-.011.1.1,0,0,0-.037-.138.748.748,0,0,0-.125-.038m8.023-7.944c.079.01.1-.021.117-.063a.051.051,0,0,0-.018-.046.055.055,0,0,0-.051.008.6.6,0,0,0-.047.1" transform="translate(-64.944 -11.52)" fill="#1a1311"/><path d="M244.975,31.381c.019-.157.039-.313.057-.468.022-.2.05-.393.064-.591.017-.243.018-.488.031-.732.007-.136.025-.272.035-.408a.351.351,0,0,0-.009-.128.774.774,0,0,1-.014-.377,3.2,3.2,0,0,0,.016-.455.071.071,0,0,0-.028-.051c-.083-.057-.068-.141-.064-.22.011-.188.023-.376.037-.564a1.146,1.146,0,0,1,.019-.117.78.78,0,0,0,.019-.1.222.222,0,0,1,.229-.227.37.37,0,0,0,.208-.07,1.525,1.525,0,0,1,.24-.125.163.163,0,0,1,.1-.009c.111.024.219.054.327.083a.483.483,0,0,1,.268.143.113.113,0,0,0,.049.037.242.242,0,0,1,.161.171.508.508,0,0,1,.045.293,1.1,1.1,0,0,0-.033.226c0,.16-.007.321,0,.481a.293.293,0,0,0,.057.155.141.141,0,0,1,.006.178c-.016.028-.034.055-.049.083a.128.128,0,0,0,0,.148.133.133,0,0,1,.008.147.538.538,0,0,0-.038.162,3.036,3.036,0,0,0-.014.334.656.656,0,0,0,.038.188c.046.148.134.174.262.084.067-.047.131-.1.2-.138a.908.908,0,0,1,.149-.055c.006,0,.018,0,.025,0,.136-.061.277-.116.407-.19a2.065,2.065,0,0,0,.224-.188.16.16,0,0,1,.091-.033.715.715,0,0,0,.366-.162.348.348,0,0,1,.095-.055.408.408,0,0,0,.257-.18.137.137,0,0,1,.123-.062.351.351,0,0,0,.167-.04,1.393,1.393,0,0,1,.443-.154l.072-.019a.114.114,0,0,0,.09-.1.325.325,0,0,1,.223-.254.356.356,0,0,0,.1-.065c.054-.049.1-.1.153-.156a.526.526,0,0,0,.176-.322.424.424,0,0,1,.05-.122.893.893,0,0,0,.07-.166.2.2,0,0,1,.088-.125c.1-.074.2-.151.307-.225.025-.018.058-.043.085-.04a.27.27,0,0,0,.176-.048.327.327,0,0,1,.294-.038.283.283,0,0,0,.2-.008.768.768,0,0,1,.258-.04c.154,0,.309.012.463.018a.266.266,0,0,1,.183.062.213.213,0,0,0,.065.036,2.381,2.381,0,0,1,.475.256.284.284,0,0,0,.129.033.557.557,0,0,1,.245.08c.106.068.223.121.329.188a1.35,1.35,0,0,1,.181.145c.064.057.121.122.188.175a.144.144,0,0,1,.065.121.992.992,0,0,1,0,.168.23.23,0,0,1-.063.138c-.1.067-.074.153-.065.239a.539.539,0,0,1,.014.094c-.009.121-.034.147-.161.15a.426.426,0,0,0-.368.263.281.281,0,0,1-.049.082,1.787,1.787,0,0,1-.413.289.581.581,0,0,0-.214.156.625.625,0,0,1-.362.216.229.229,0,0,0-.06.015c-.165.088-.331.175-.494.267a.128.128,0,0,0-.058.086.154.154,0,0,1-.1.129.086.086,0,0,0-.036.031.454.454,0,0,1-.3.2c-.062.018-.117.059-.177.08a.776.776,0,0,1-.192.043.489.489,0,0,0-.366.147.237.237,0,0,1-.073.042c-.022.011-.057.013-.066.029-.05.09-.137.081-.22.081a.56.56,0,0,0-.345.074.213.213,0,0,1-.1.022.367.367,0,0,0-.182.083.625.625,0,0,1-.309.167.09.09,0,0,0-.057.021c-.063.079-.164.066-.244.1a1.664,1.664,0,0,1-.426.12.892.892,0,0,0-.166.049c-.065.023-.129.052-.2.073s-.142.038-.213.055c-.009,0-.017,0-.025,0-.033.007-.077.005-.095.025-.1.112-.293.058-.383.2a1.206,1.206,0,0,1-.4.336c-.021.014-.041.027-.061.042a.1.1,0,0,0-.033.13.276.276,0,0,0,.144.159.768.768,0,0,1,.262.218.654.654,0,0,0,.223.2c.039.017.059.074.09.111a.808.808,0,0,0,.153.17,1.856,1.856,0,0,0,.363.251.319.319,0,0,1,.12.114c.07.09.129.187.266.2.034,0,.068.041.1.067.086.072.155.169.284.18a.086.086,0,0,1,.053.029,2.86,2.86,0,0,1,.369.4.179.179,0,0,0,.076.059c.073.039.147.072.22.111a.407.407,0,0,1,.066.052c.015.013.029.035.045.037a1.243,1.243,0,0,1,.308.155.36.36,0,0,1,.069.049c.016.012.028.039.043.039.175.009.251.17.389.234.023.011.043.035.064.035.161.005.256.121.377.2a.67.67,0,0,0,.162.081.7.7,0,0,1,.336.174.364.364,0,0,0,.094.058,1.068,1.068,0,0,1,.25.13.711.711,0,0,0,.248.127,1.213,1.213,0,0,1,.266.155.815.815,0,0,0,.3.108.819.819,0,0,1,.11.043.256.256,0,0,0,.055.025c.143.022.286.042.429.06a.135.135,0,0,1,.106.051.168.168,0,0,0,.152.066.193.193,0,0,1,.186.076.144.144,0,0,0,.085.043c.053.011.108.012.161.018a.407.407,0,0,1,.147.02c.215.122.466.062.691.125.02.005.043,0,.061.006a2.425,2.425,0,0,0,.75.106.463.463,0,0,1,.344.109c.023.025.083.022.127.023.112,0,.223-.006.334-.01.013,0,.029,0,.038,0,.126-.093.278-.053.418-.071a2.172,2.172,0,0,1,.4,0,4.717,4.717,0,0,0,.773-.012,1.013,1.013,0,0,1,.111,0,.414.414,0,0,0,.217-.038.292.292,0,0,1,.132-.032c.195-.01.391-.01.586-.024.173-.013.347-.039.52-.059.013,0,.029,0,.036-.009.1-.112.247-.071.372-.1a.658.658,0,0,0,.183-.066.32.32,0,0,1,.2-.061.229.229,0,0,0,.074-.009,4.03,4.03,0,0,0,.423-.1c.116-.041.237-.064.355-.1a1,1,0,0,0,.259-.142c.054-.037.092-.043.138.008a1.234,1.234,0,0,0,.113.1c-.03.033-.058.059-.082.089a.3.3,0,0,0-.07.107.682.682,0,0,1-.067.152.255.255,0,0,1-.227.175.113.113,0,0,0-.1.1.116.116,0,0,1-.117.1.134.134,0,0,0-.139.15.1.1,0,0,1-.089.111c-.033.007-.058.043-.086.065s-.065.047-.1.072a.448.448,0,0,0-.076.074c-.071.1-.133.2-.283.194a.106.106,0,0,0-.112.095.175.175,0,0,0-.009.071c.039.181-.088.257-.22.331a.5.5,0,0,0-.06.041.788.788,0,0,1-.144.112,3.854,3.854,0,0,1-.372.21.376.376,0,0,0-.168.121.264.264,0,0,1-.154.092.645.645,0,0,0-.264.131.232.232,0,0,1-.084.05,1.17,1.17,0,0,0-.331.181,1.749,1.749,0,0,1-.188.086c-.166.087-.325.188-.5.262a2.366,2.366,0,0,1-.591.242,2.3,2.3,0,0,0-.281.068c-.03.009-.072.025-.082.048a.2.2,0,0,1-.215.113.447.447,0,0,0-.341.164.215.215,0,0,1-.081.05c-.076.018-.16.011-.192.1,0,.006-.013.01-.02.013l-.279.127c-.007,0-.018,0-.023.01-.086.112-.214.085-.333.095-.036,0-.084-.009-.11.009a.955.955,0,0,1-.606.061,3.516,3.516,0,0,1-.4-.088.181.181,0,0,0-.128.011.5.5,0,0,1-.34.091.617.617,0,0,1-.367-.09.813.813,0,0,0-.3-.074.206.206,0,0,1-.154-.085,2.768,2.768,0,0,1-.2-.24.38.38,0,0,0-.261-.151.46.46,0,0,1-.124-.072c-.1-.061-.153-.182-.281-.207a1.23,1.23,0,0,0-.389-.2.457.457,0,0,1-.079-.057c-.01-.008-.014-.027-.022-.028-.115-.024-.189-.114-.291-.159a.273.273,0,0,1-.088-.041,1.366,1.366,0,0,0-.395-.227c-.051-.027-.1-.056-.147-.085a.244.244,0,0,0-.064-.037c-.177-.034-.279-.176-.413-.27a.185.185,0,0,0-.108-.042.213.213,0,0,1-.166-.067.487.487,0,0,0-.1-.061,1.365,1.365,0,0,1-.439-.283c-.022-.023-.034-.055-.056-.079-.041-.043-.078-.1-.13-.121a.326.326,0,0,1-.153-.115.59.59,0,0,0-.1-.089c-.016-.013-.041-.018-.05-.034a1.112,1.112,0,0,0-.337-.278,1.59,1.59,0,0,1-.23-.248c-.059-.067-.118-.132-.18-.2-.124-.133-.248-.268-.375-.4a.5.5,0,0,0-.118-.089.994.994,0,0,1-.246-.229,1.87,1.87,0,0,0-.2-.159c-.108-.091-.215-.183-.316-.281a3.776,3.776,0,0,0-.495-.473.189.189,0,0,1-.07-.1,1.024,1.024,0,0,0-.327-.452,1.765,1.765,0,0,1-.326-.322c0-.007-.009-.016-.016-.018-.119-.037-.116-.131-.112-.224a.6.6,0,0,0-.064-.276,3.1,3.1,0,0,1-.115-.4.919.919,0,0,0-.07-.15.3.3,0,0,1-.028-.051,1.714,1.714,0,0,0-.188-.4.749.749,0,0,1-.087-.367.38.38,0,0,0-.055-.169.192.192,0,0,1-.028-.148.253.253,0,0,0,.009-.071c-.011-.175-.019-.35-.037-.525,0-.042-.046-.081-.069-.117" transform="translate(-161.349 -17.56)" fill="#1a1311"/><path d="M204.053,32.426c.01-.109.018-.235.038-.358a1.02,1.02,0,0,1,.063-.232.482.482,0,0,0,.026-.354.269.269,0,0,1,.008-.165.4.4,0,0,0-.009-.261.372.372,0,0,1-.025-.165c.017-.127.049-.251.073-.378a1.45,1.45,0,0,0,.024-.192c.007-.166.015-.332.014-.5a.325.325,0,0,0-.056-.22.078.078,0,0,1,0-.077c.1-.108.049-.228.015-.332a.814.814,0,0,1-.051-.38,2.119,2.119,0,0,0-.017-.568,1.874,1.874,0,0,1,.023-.53.162.162,0,0,0-.012-.1.114.114,0,0,0-.172-.035,1.5,1.5,0,0,0-.327.325.408.408,0,0,0-.045.125.473.473,0,0,1-.156.226.438.438,0,0,0-.187.316.332.332,0,0,1-.167.282.157.157,0,0,0-.075.167.357.357,0,0,1-.153.348,1.507,1.507,0,0,0-.12.123c-.093.1-.185.2-.28.29a2.267,2.267,0,0,1-.18.165,1.1,1.1,0,0,1-.447.173.234.234,0,0,0-.049.009c-.055.026-.059.114-.139.108a.251.251,0,0,0-.168.063.479.479,0,0,1-.166.036l-.167.036-.084.018s-.009,0-.011,0a2.129,2.129,0,0,1-.205.06.351.351,0,0,0-.179.1.313.313,0,0,1-.17.055c-.051.005-.088-.05-.09-.109a.381.381,0,0,0-.005-.072c-.013-.047-.041-.086-.1-.066a.1.1,0,0,1-.12-.039c-.1-.11-.2-.221-.3-.334-.017-.019-.016-.053-.026-.079-.029-.071-.06-.14-.091-.21a.264.264,0,0,1-.031-.066c-.015-.123-.026-.247-.038-.37,0-.019.011-.046,0-.059-.11-.144-.066-.312-.082-.471-.006-.068-.015-.136-.025-.2a.384.384,0,0,1-.009-.059c.012-.108.028-.215.038-.324a.218.218,0,0,1,.075-.159.188.188,0,0,0,.07-.173.226.226,0,0,1,.09-.221c.074-.063.172-.133.169-.255a.053.053,0,0,1,.017-.032.484.484,0,0,0,.135-.239c.009-.034.062-.062.1-.081a.45.45,0,0,0,.245-.272.239.239,0,0,1,.069-.1.572.572,0,0,0,.2-.239.069.069,0,0,1,.041-.041c.107-.029.168-.116.251-.174l.131-.092a.8.8,0,0,0,.209-.184.513.513,0,0,1,.292-.226c.015,0,.026-.019.039-.029a2.433,2.433,0,0,1,.381-.243.851.851,0,0,0,.148-.11.642.642,0,0,1,.239-.15.052.052,0,0,0,.031-.02.343.343,0,0,1,.266-.133.15.15,0,0,0,.079-.033,2.953,2.953,0,0,1,.529-.289.119.119,0,0,1,.06-.015.211.211,0,0,0,.168-.064c.021-.021.061-.025.089-.041.051-.027.1-.057.15-.085a.274.274,0,0,1,.076-.038.394.394,0,0,0,.186-.09.282.282,0,0,1,.089-.037c.011,0,.029,0,.037,0a1.1,1.1,0,0,1,.363-.12l.2-.06a.3.3,0,0,0,.084-.022.8.8,0,0,1,.381-.1c.021,0,.051,0,.06-.015.079-.107.217-.088.322-.143a.461.461,0,0,1,.179-.032c.132-.011.267-.013.4-.023a.175.175,0,0,0,.093-.031.387.387,0,0,1,.225-.06c.178-.012.357-.016.537-.019a.949.949,0,0,1,.257.016.554.554,0,0,0,.327-.028.87.87,0,0,1,.24-.051c.308,0,.616.005.924.015.086,0,.172.029.259.039.053.006.107,0,.16.006a.317.317,0,0,1,.144.026.66.66,0,0,0,.356.091.146.146,0,0,1,.134.072.115.115,0,0,1-.021.155,1.121,1.121,0,0,1-.372.24.732.732,0,0,0-.21.124,1.781,1.781,0,0,1-.354.244,1.006,1.006,0,0,1-.312.067.334.334,0,0,0-.129.055c-.11.058-.2.157-.339.162a.343.343,0,0,0-.228.084.2.2,0,0,1-.129.031.259.259,0,0,0-.163.051,1.228,1.228,0,0,1-.439.194,1.129,1.129,0,0,0-.234.11.6.6,0,0,1-.073.043,1.49,1.49,0,0,0-.358.216c-.114.083-.231.166-.346.247a.119.119,0,0,1-.057.023.427.427,0,0,0-.244.134,2.574,2.574,0,0,1-.222.173.241.241,0,0,0-.122.26,2.362,2.362,0,0,1,.011.458,2.3,2.3,0,0,0,.037.532.767.767,0,0,1-.012.249c-.009.1-.024.208-.026.312,0,.036.028.072.035.109.014.077.021.156.035.233a.593.593,0,0,1-.06.32.739.739,0,0,0-.026.189.06.06,0,0,0,.011.046c.1.087.065.209.094.314.012.039.021.077.029.116.018.086.038.173.053.26a.156.156,0,0,1-.014.081.643.643,0,0,0,0,.573.165.165,0,0,1,.016.069c0,.161,0,.323,0,.485s.008.3.022.456a2.022,2.022,0,0,0,.052.243.094.094,0,0,1,0,.058,1.211,1.211,0,0,0-.1.578,3.2,3.2,0,0,0-.01.387,1.174,1.174,0,0,0,.063.241,1.2,1.2,0,0,1,.007.553c0,.008,0,.018,0,.023-.125.113-.1.268-.115.408-.021.177-.025.355-.043.532a.373.373,0,0,1-.045.163.43.43,0,0,0-.077.2.074.074,0,0,1-.023.054c-.13.077-.129.221-.179.337a.27.27,0,0,1-.083.13.207.207,0,0,0-.057.077c-.025.055-.038.117-.1.146a.039.039,0,0,0-.021.029c0,.122-.086.209-.136.308a1.128,1.128,0,0,1-.279.336c-.074.064-.133.142-.2.21s-.141.122-.212.182c-.053.045-.108.088-.16.133a.132.132,0,0,0-.024.028c-.058.074-.157.051-.225.091s-.113.122-.212.111a.1.1,0,0,0-.059.012c-.066.046-.128.1-.2.142s-.119.056-.177.085a1.3,1.3,0,0,0-.148.083.76.76,0,0,1-.466.194c-.127-.005-.2.087-.268.157a4.036,4.036,0,0,1-.354.338,1.151,1.151,0,0,0-.1.1.993.993,0,0,1-.335.157c-.067.029-.125.076-.19.108-.113.053-.194.166-.331.179a.086.086,0,0,0-.055.025.219.219,0,0,1-.172.084.05.05,0,0,0-.034.013c-.072.095-.183.08-.282.1a.628.628,0,0,0-.132.056l-.088.041c-.052.024-.1.048-.155.071a.263.263,0,0,1-.081.028c-.107.009-.216.018-.324.02a.257.257,0,0,0-.217.069.076.076,0,0,1-.042.024,1.815,1.815,0,0,1-.537.081.991.991,0,0,1-.227-.057.775.775,0,0,0-.431-.023,1.3,1.3,0,0,1-.492-.02.465.465,0,0,1-.157-.029,1.583,1.583,0,0,0-.283-.128c-.013,0-.018-.033-.028-.05a1.388,1.388,0,0,0-.094-.166c-.013-.019-.049-.027-.077-.03a.581.581,0,0,0-.1,0c-.128.011-.124.01-.145-.114a.237.237,0,0,0-.061-.126.181.181,0,0,1-.049-.118,2.2,2.2,0,0,1,.042-.564.082.082,0,0,1,.015-.045.605.605,0,0,0,.108-.436c0-.1,0-.194.01-.29a.367.367,0,0,1,.048-.123c.015-.029.049-.051.055-.08.032-.155.157-.253.239-.377a.231.231,0,0,1,.062-.054.718.718,0,0,1,.12-.079,2.013,2.013,0,0,1,.3-.114,1.047,1.047,0,0,0,.339-.112.816.816,0,0,1,.252-.1,1.255,1.255,0,0,1,.233-.011c.1,0,.208-.006.311-.011a.227.227,0,0,0,.159-.06.164.164,0,0,1,.087-.041.185.185,0,0,0,.154-.09c.012-.022.063-.033.1-.034a.246.246,0,0,0,.183-.063.08.08,0,0,1,.042-.026c.139-.018.228-.128.346-.183.071-.032.143-.061.213-.094a1.168,1.168,0,0,0,.1-.059,1.134,1.134,0,0,1,.144-.087c.1-.043.209-.079.314-.117.011,0,.022-.014.033-.014.138,0,.235-.095.351-.144a.111.111,0,0,0,.057-.044.132.132,0,0,1,.123-.067.115.115,0,0,0,.109-.084.17.17,0,0,1,.159-.133.077.077,0,0,0,.036-.01c.1-.062.2-.125.3-.186a.5.5,0,0,1,.173-.093.509.509,0,0,0,.3-.175,1.5,1.5,0,0,1,.353-.223c.066-.038.145-.054.214-.089a.236.236,0,0,0,.093-.088c.037-.069.066-.139.155-.162.017,0,.032-.025.046-.039a.788.788,0,0,1,.127-.145,1.317,1.317,0,0,0,.285-.26.259.259,0,0,0,.051-.093.263.263,0,0,1,.092-.139c.1-.079.192-.165.3-.258" transform="translate(-129.56 -15.534)" fill="#1a1311"/><path d="M327.452,24.853a.894.894,0,0,1-.149.095.349.349,0,0,0-.108.087c-.027.034-.059.062-.089.094s-.043.045-.063.069a.44.44,0,0,1-.072.077.172.172,0,0,0-.083.137.33.33,0,0,1-.1.211.254.254,0,0,0-.077.237.2.2,0,0,1-.112.234c-.041.024-.072.065-.115.087a.57.57,0,0,1-.156.06c-.094.019-.1.026-.128.113-.009.036-.02.071-.034.117-.032-.02-.049-.029-.064-.04-.074-.051-.085-.049-.156.006a.311.311,0,0,1-.083.044.685.685,0,0,0-.265.126.956.956,0,0,1-.186.1.321.321,0,0,1-.226,0,.637.637,0,0,0-.3.023.51.51,0,0,1-.465-.043.223.223,0,0,0-.159-.043c-.072.006-.145,0-.218,0-.034-.066-.044-.139-.123-.162-.01,0-.01-.039-.016-.068a.18.18,0,0,1-.221,0c-.061-.034-.143-.029-.185-.1-.006-.011-.028-.014-.044-.015a.768.768,0,0,1-.443-.169c-.109,0-.17-.1-.267-.124l-.278-.074a.289.289,0,0,1-.047-.015.869.869,0,0,0-.481-.09c-.077-.047-.191.026-.25-.086-.057.06-.106.04-.169.018a.949.949,0,0,0-.228-.029.223.223,0,0,1-.15-.06.394.394,0,0,0-.177-.054c-.047-.01-.1-.011-.142-.017-.028,0-.061-.021-.082-.011-.077.036-.123,0-.17-.058-.054.028-.107.044-.151-.009,0,0-.009-.005-.012,0-.079.045-.16-.026-.238,0s-.152-.031-.216.028c-.055-.04-.124,0-.172-.018-.09-.03-.165.042-.249.012a.147.147,0,0,1-.163,0,.437.437,0,0,0-.168.379c0,.243,0,.486,0,.73,0,.113,0,.227,0,.34a.124.124,0,0,1-.072.113.276.276,0,0,0-.16.292,1.35,1.35,0,0,1,0,.2c0,.153.008.306.007.458,0,.178-.007.353-.011.53a.426.426,0,0,0,0,.106,1.182,1.182,0,0,1,.01.406c-.016.136-.026.274-.034.411a.523.523,0,0,1-.043.186.176.176,0,0,0,.01.207.1.1,0,0,1,0,.078,2.433,2.433,0,0,0-.065.558c-.024.208.01.414-.01.619a.112.112,0,0,1-.008.046.737.737,0,0,0-.076.467c0,.051,0,.1,0,.153,0,.13-.006.26-.012.39a.325.325,0,0,1-.055.186.423.423,0,0,0-.048.214,1.115,1.115,0,0,1-.068.309.2.2,0,0,1-.055.087.192.192,0,0,0-.067.134c-.008.062-.017.125-.028.186,0,.019-.007.049-.018.054-.083.028-.081.1-.1.162a.1.1,0,0,1-.032.06.507.507,0,0,0-.2.3,2.1,2.1,0,0,1-.091.215c-.007.014-.032.02-.047.031-.066.046-.131.091-.195.14s-.053.058-.013.114a.183.183,0,0,1,.03.091c0,.008-.047.022-.073.024-.043,0-.084-.005-.095-.055a.73.73,0,0,0-.308-.394c-.067-.056-.128-.117-.194-.175s-.15-.123-.224-.187a.232.232,0,0,1-.055-.073c-.028-.06-.052-.122-.076-.184a.786.786,0,0,1-.041-.111c-.022-.09-.026-.182-.118-.247-.036-.025-.038-.1-.045-.154-.014-.1-.023-.21-.031-.315q-.034-.411-.064-.823c0-.039,0-.078-.008-.117-.017-.179-.044-.358-.053-.538a2.094,2.094,0,0,1,.023-.316c.007-.075.021-.147-.052-.207-.037-.029-.022-.069.008-.1a.194.194,0,0,0,.007-.265c-.056-.078-.056-.083,0-.163a.252.252,0,0,0,.015-.279.179.179,0,0,1-.006-.131,2.9,2.9,0,0,0,.037-.373c0-.1-.005-.2-.005-.295a.255.255,0,0,1,.024-.1.22.22,0,0,0,.009-.243c-.024-.038,0-.1,0-.151,0-.105-.005-.211-.007-.316,0-.035,0-.07,0-.1.007-.113.017-.226.023-.34a.319.319,0,0,0-.019-.067c-.014-.057-.029-.115-.041-.172a.875.875,0,0,0-.039-.184,1.687,1.687,0,0,1-.091-.7c0-.113-.022-.226-.031-.339a1.315,1.315,0,0,0-.022-.233.5.5,0,0,1,.032-.311.18.18,0,0,0-.06-.227.517.517,0,0,0-.054.011.118.118,0,0,1-.148-.048.13.13,0,0,0-.135-.059c-.081.007-.163-.006-.243,0a1.307,1.307,0,0,1-.385-.039c-.026-.005-.065-.012-.081,0a.392.392,0,0,1-.233.052c-.076.009-.153.021-.229.03-.032,0-.064,0-.1,0a.55.55,0,0,0-.226.021,1.834,1.834,0,0,1-.371.1,1.428,1.428,0,0,0-.2.071.49.49,0,0,1-.218.062.228.228,0,0,0-.2.086.662.662,0,0,1-.242.144c-.05.025-.108.031-.144.082a.144.144,0,0,1-.072.038c-.07.021-.141.038-.222.059l-.2.252s-.005.007-.009.009c-.147.065-.223.2-.33.306-.008.008-.018.015,0,0-.027.1-.041.179-.07.253-.036.092-.133.108-.216.138a.213.213,0,0,0-.091.047.23.23,0,0,1-.129.054c-.076.009-.153,0-.23,0a.965.965,0,0,0-.322.033c-.082.036-.162.067-.246.1a.112.112,0,0,0-.058.095c.031.1-.056.152-.068.231a.677.677,0,0,1-.042.133c-.017.047-.039.092-.06.138a.633.633,0,0,0-.032.062,2.432,2.432,0,0,0-.136.405.121.121,0,0,1-.058.083c-.065.03-.068.077-.072.136a1.314,1.314,0,0,1-.039.158c-.012.057-.024.115-.03.173a.3.3,0,0,1-.114.26c-.026.017-.031.069-.036.106a.845.845,0,0,1-.035.265.928.928,0,0,0-.073.363.362.362,0,0,1-.048.1.722.722,0,0,1-.04.068c-.034.052-.071.1-.107.154a.31.31,0,0,0-.041.057.31.31,0,0,1-.112.176c-.018.012-.023.049-.024.075,0,.051,0,.1,0,.154,0,.023,0,.055-.007.069-.126.138-.137.33-.24.477a1.512,1.512,0,0,1-.156.161c-.017.017-.044.033-.046.051-.019.157-.155.253-.214.388-.01.023-.043.034-.064.053s-.048.047-.071.072c-.007.009-.006.027-.014.031-.164.084-.247.254-.4.352a.4.4,0,0,1-.236.11.091.091,0,0,0-.094.09.243.243,0,0,1-.134.2,2.128,2.128,0,0,1-.387.228.071.071,0,0,1-.024.008.557.557,0,0,0-.249.094c-.084.047-.178.079-.26.136a.173.173,0,0,1-.183.032.076.076,0,0,0-.064.033c-.023.056-.066.057-.116.067-.131.027-.26.061-.389.1a.546.546,0,0,0-.1.061c-.019.012-.045.034-.059.029-.089-.026-.141.029-.188.08-.032.033-.056.055-.1.032a.036.036,0,0,0-.033,0c-.087.091-.2.04-.3.05s-.211,0-.316.008a.152.152,0,0,0-.135.083.305.305,0,0,1-.3.178c-.148-.012-.3,0-.451,0-.024,0-.047,0-.072,0-.089,0-.178.007-.267.015-.064.006-.127.016-.189.028-.081.014-.157.072-.245.023,0,0-.009,0-.012,0a1,1,0,0,1-.374.005c-.058,0-.117-.009-.178-.012l-.473-.027a.212.212,0,0,1-.06-.011,1.2,1.2,0,0,0-.154-.057.9.9,0,0,0-.169,0,.215.215,0,0,1-.252,0,.235.235,0,0,0-.169-.047.455.455,0,0,1-.386-.2c-.065-.074-.136-.143-.208-.212a.159.159,0,0,1-.061-.175,1.052,1.052,0,0,0,.021-.246.175.175,0,0,1,.106-.171.234.234,0,0,0,.046-.037c.1-.076.1-.073.028-.174a.492.492,0,0,1-.078-.327c.006-.047.029-.087.083-.085.145,0,.216-.109.311-.182a2.679,2.679,0,0,0,.254-.228.4.4,0,0,1,.216-.094c.088-.019.189-.015.242-.113.009-.015.044-.017.066-.027.075-.03.147-.063.222-.091a.8.8,0,0,1,.095-.019l.235-.056a1.173,1.173,0,0,1,.117-.029c.115-.017.234-.028.349-.047.032-.005.063-.052.09-.048.113.013.2-.067.317-.056a3.059,3.059,0,0,0,.316,0,.568.568,0,0,0,.317-.057.154.154,0,0,1,.067-.025c.112-.015.223-.028.335-.041.084-.01.176,0,.215-.1a.016.016,0,0,1,.01-.008c.129-.019.209-.127.322-.173a.207.207,0,0,0,.109-.068.135.135,0,0,1,.086-.033c.055-.005.113,0,.17,0,.126,0,.157-.033.154-.155,0-.019,0-.039,0-.055a.524.524,0,0,1,.427-.173.317.317,0,0,0,.116-.031c.065-.022.129-.043.193-.069a.152.152,0,0,0,.076-.053.177.177,0,0,1,.142-.081.261.261,0,0,0,.239-.228.6.6,0,0,1,.263-.377l.072-.062a1.234,1.234,0,0,1,.152-.132c.048-.03.1-.052.12-.11.006-.018.036-.027.056-.041a.313.313,0,0,0,.057-.04.983.983,0,0,1,.235-.237.56.56,0,0,0,.235-.3.513.513,0,0,1,.078-.115c.007-.009.026-.015.027-.023.009-.132.154-.2.166-.331a.063.063,0,0,1,.006-.023.58.58,0,0,0,.133-.3c0-.039.07-.061.092-.115.053-.132.135-.255.191-.387a1.163,1.163,0,0,0,.06-.257c.01-.062.007-.126.015-.188a.806.806,0,0,1,.038-.109.52.52,0,0,0,.051-.153c.007-.267,0-.535.008-.8a.882.882,0,0,1,.051-.382.554.554,0,0,0,.02-.221c0-.071-.01-.141.061-.193.019-.014.025-.047.033-.073.018-.053.028-.1.1-.124.023-.007.044-.055.045-.085,0-.094-.009-.187-.014-.281,0-.058,0-.117,0-.175,0-.086,0-.173,0-.259,0-.185-.006-.37-.009-.555,0-.107,0-.213,0-.319a.155.155,0,0,0-.059-.134.228.228,0,0,1-.058-.125.52.52,0,0,0-.073-.131.288.288,0,0,0-.272-.122.273.273,0,0,1-.152-.056,1.872,1.872,0,0,0-.272-.128c-.028-.013-.072-.018-.084-.04-.042-.072-.109-.069-.178-.079a.142.142,0,0,0-.129.046.663.663,0,0,1-.478.193.253.253,0,0,0-.234.142.187.187,0,0,1-.127.113.093.093,0,0,0-.034.013.7.7,0,0,1-.4.117,1.3,1.3,0,0,1-.456-.025c-.112-.034-.217-.1-.329-.139a.093.093,0,0,1-.045-.052c-.038-.09-.076-.181-.107-.274a.129.129,0,0,1,.026-.085.551.551,0,0,0,.085-.291.207.207,0,0,1,.125-.175c.151-.093.173-.162.085-.307-.035-.056-.022-.095.024-.119a.854.854,0,0,0,.209-.223c.005-.005.015-.011.016-.017.014-.182.2-.271.25-.434.009-.026.032-.051.032-.076-.005-.18.176-.255.237-.4.086-.042.171-.088.259-.124a.809.809,0,0,1,.168-.035c.077-.012.155-.019.178-.111.141-.067.2-.236.375-.266a.073.073,0,0,0,.039-.027.423.423,0,0,1,.3-.121.17.17,0,0,0,.1-.036.281.281,0,0,1,.219-.086.18.18,0,0,0,.148-.067.176.176,0,0,1,.1-.049,1.075,1.075,0,0,0,.457-.169.619.619,0,0,1,.125-.044c.067-.026.132-.061.2-.081.084-.025.172-.038.259-.057.046-.01.094-.02.14-.032s.066-.02.1-.029c.007,0,.018,0,.023,0,.154-.113.352-.064.518-.13a1.823,1.823,0,0,1,.413-.08,1.687,1.687,0,0,1,.345-.021c.035,0,.07-.029.121-.051.087.043.176-.011.268-.018a1.454,1.454,0,0,0,.165-.029c.051-.011.115-.009.149-.039a.456.456,0,0,1,.309-.074c.137-.009.275,0,.413,0,.337-.005.675-.017,1.014-.017.157,0,.315.024.473.03a1.677,1.677,0,0,0,.2-.015c.053,0,.107,0,.159-.011a.341.341,0,0,1,.188.03.619.619,0,0,0,.354.051c.134-.024.275-.006.412-.016a.878.878,0,0,0,.29-.068,1.909,1.909,0,0,1-.07-.835c0-.113.01-.227.014-.34a.073.073,0,0,1,.063-.075,1.607,1.607,0,0,1,.168-.02c.1-.01.115-.025.107-.121a.226.226,0,0,1,.128-.194.172.172,0,0,0,.105-.089.5.5,0,0,1,.105-.111.073.073,0,0,1,.109,0,.3.3,0,0,0,.2.068c.087.012.181,0,.247.079a.018.018,0,0,0,.012.005,1.952,1.952,0,0,0,.409.037,4.2,4.2,0,0,1,.449-.007.283.283,0,0,1,.192.112.115.115,0,0,0,.109.033c.063-.01.129-.017.194-.021a.306.306,0,0,1,.189.057.428.428,0,0,0,.363.112c.018.058.036.109.05.161a.164.164,0,0,0,.091.119.747.747,0,0,1,.1.08.088.088,0,0,1,.031.123.241.241,0,0,0-.017.111.765.765,0,0,0,.031.186.7.7,0,0,0,.1.184c.037.049.08.094.073.156a.578.578,0,0,1-.078.337c-.023.03-.04.063-.006.1s.114.028.129-.01c.035-.084.108-.074.173-.075.11,0,.219,0,.328.005.147,0,.293,0,.439,0a.224.224,0,0,1,.085.009,1.382,1.382,0,0,0,.6.075,4.933,4.933,0,0,1,.559.02.523.523,0,0,1,.2.071.226.226,0,0,0,.137.033,3.23,3.23,0,0,1,.338-.032.975.975,0,0,1,.381.032.741.741,0,0,0,.263.016c.088,0,.178-.009.267-.009a.126.126,0,0,1,.079.024.283.283,0,0,0,.2.065c.044,0,.089.005.134.007a.258.258,0,0,1,.243.106c.058-.013.108-.044.167-.019.017.007.042-.013.065-.018s.044-.015.052-.009c.055.04.1.012.144-.017a.315.315,0,0,0,.174.044,4.475,4.475,0,0,1,.469.064c.012,0,.022.012.034.011a.364.364,0,0,1,.316.134.284.284,0,0,0,.2.1c.025,0,.059.043.07.073a.115.115,0,0,0,.1.081.893.893,0,0,1,.167.063.435.435,0,0,0,.066.03.8.8,0,0,1,.335.2c.02.016.05.041.069.037a.761.761,0,0,1,.276.034.121.121,0,0,1,.12.126.945.945,0,0,0,.125.375.422.422,0,0,1,.018.365c-.008.021-.04.036-.065.047a.151.151,0,0,0-.093.152.852.852,0,0,1,0,.106c0,.122-.055.2-.18.209a.378.378,0,0,0-.312.19c-.015.025-.049.039-.075.056l-.132.08a1.128,1.128,0,0,1-.175-.034.968.968,0,0,1-.2-.093.289.289,0,0,0-.327,0,.8.8,0,0,0-.1.164.728.728,0,0,0-.115.066c-.1.085-.125.09-.268.04a.565.565,0,0,1,.059-.059.546.546,0,0,1,.072-.042c-.016-.034-.023-.073-.046-.092a.234.234,0,0,0-.111-.045c-.048-.006-.091.056-.11.148-.072.028-.1-.027-.124-.056-.126-.008-.236-.012-.346-.024a.435.435,0,0,1-.11-.045c-.058-.024-.11-.071-.182-.048a.046.046,0,0,1-.034,0c-.064-.036-.1-.1-.2-.087-.062.01-.133-.045-.2-.062a.852.852,0,0,0-.179-.022c-.048,0-.095.008-.127-.045a.118.118,0,0,0-.072-.038.938.938,0,0,0-.2-.026.835.835,0,0,1-.364-.084.858.858,0,0,1-.081-.049c-.024-.013-.054-.036-.074-.03a.475.475,0,0,1-.141-.009,1.854,1.854,0,0,0-.242.025c-.015,0-.032.01-.045.006-.1-.031-.2-.063-.3-.1a.3.3,0,0,1-.283.066,1.757,1.757,0,0,0-.665-.008.906.906,0,0,1-.4-.037.9.9,0,0,0-.455-.006.43.43,0,0,1-.259,0,.452.452,0,0,0-.179-.027c-.125,0-.25-.005-.375-.005-.15,0-.3,0-.45.006-.081,0-.162,0-.243,0l-.548.005c-.143,0-.285,0-.427,0a5.736,5.736,0,0,0-.633.02c-.139.019-.252-.052-.381-.049-.02,0-.044-.012-.058,0-.152.08-.312.023-.467.029-.016,0-.033-.009-.048,0a.14.14,0,0,1-.158-.065l-.092.067a.165.165,0,0,1-.033-.006c-.026-.01-.046-.044-.083-.009s-.1.023-.138-.031c-.051.036-.1.062-.158.008a.057.057,0,0,0-.054-.008c-.05.046-.091-.009-.148-.006a.156.156,0,0,1-.173.072,2.676,2.676,0,0,0-.327.025c-.162,0-.325,0-.487,0-.073,0-.145.012-.218.016a.549.549,0,0,1-.158,0,1.028,1.028,0,0,0-.468.019.682.682,0,0,0-.3.088.09.09,0,0,1-.059,0,.538.538,0,0,0-.276.036c-.094.032-.193.043-.287.085a.851.851,0,0,1-.383.031.312.312,0,0,0-.159.035,1.749,1.749,0,0,1-.341.147c-.016,0-.037.013-.047.008-.1-.057-.2.018-.294.019-.024,0-.048.017-.071.016a.2.2,0,0,0-.225.15c-.008.025-.039.043-.059.063a.763.763,0,0,0,.089.053.627.627,0,0,1,.35.524,1.263,1.263,0,0,1,.008.443c-.01.077.015.157.012.235a2.178,2.178,0,0,1-.056.618c0,.008-.007.017,0,.023.053.089,0,.161-.03.242a.7.7,0,0,1-.11.233.161.161,0,0,0-.013.046l.3.1a.707.707,0,0,0,.1-.074.5.5,0,0,1,.382-.145.146.146,0,0,0,.082-.016,1.122,1.122,0,0,1,.4-.109c.023-.006.054,0,.069-.017a.637.637,0,0,1,.292-.1.39.39,0,0,0,.209-.086.235.235,0,0,1,.1-.038c.064-.018.141-.005.188-.07a.028.028,0,0,1,.021-.01,1.2,1.2,0,0,0,.4-.089,1.774,1.774,0,0,1,.205-.015c.168-.029.333-.069.5-.1a1.462,1.462,0,0,1,.206-.011.742.742,0,0,0,.1,0c.146-.029.292-.06.438-.09a.125.125,0,0,1,.049,0,.124.124,0,0,0,.149-.076.18.18,0,0,0,.145.013,1,1,0,0,1,.288-.037,2.547,2.547,0,0,0,.615-.076.5.5,0,0,1,.265-.017.433.433,0,0,0,.119-.011c.239-.017.478-.041.717-.046.364-.009.73-.005,1.1,0,.129,0,.259,0,.387.016.075.008.147.045.222.056.12.018.243.029.364.036a.863.863,0,0,1,.326.073.694.694,0,0,0,.19.039,2.1,2.1,0,0,0,.6.063.182.182,0,0,1,.06.006c.024.005.046.014.073.023,0,.041,0,.078,0,.121.039.023.078.061.116-.009a.062.062,0,0,1,.047-.022c.157,0,.315,0,.47.008a.434.434,0,0,1,.171.072.364.364,0,0,1,.167.016c.1.036.2.055.3.1a.783.783,0,0,0,.284.04.223.223,0,0,1,.188.067l.111-.04c.043.06.106.048.171.048.088,0,.176.024.265.027.186.006.372,0,.558.011a1.6,1.6,0,0,1,.237.038,1.213,1.213,0,0,0,.188.045c.251.01.5.015.754.018.162,0,.325-.011.487,0a.793.793,0,0,1,.2.062c.015.005.031.023.042.02.141-.036.28.026.425.005a4.418,4.418,0,0,1,.513-.026c.072,0,.142.01.213.012a.183.183,0,0,0,.082-.011.1.1,0,0,1,.1-.012.063.063,0,0,0,.046,0,1.462,1.462,0,0,1,.6-.1.121.121,0,0,1,.109.061.343.343,0,0,0,.068.062.654.654,0,0,1,.134-.11.956.956,0,0,1,.168-.032.2.2,0,0,0,.1-.038c.1-.116.224-.08.353-.065a.431.431,0,0,1-.158.439c-.046.037-.1.067-.142.1a.092.092,0,0,0-.026.051c-.01.034-.016.069-.024.1a.143.143,0,0,1-.147.117.611.611,0,0,0-.109.012.085.085,0,0,0-.076.08.248.248,0,0,1-.084.172m-.014.012h0m.014-.012-.014.012m-25.074,8.537c-.007-.026-.01-.052-.019-.076a.182.182,0,0,0-.3-.046.074.074,0,0,0-.012.053c.007.031.125.094.16.09l.174-.02m4.185-2.86.134-.034c-.022-.061-.056-.086-.1-.072s-.05.052-.03.107" transform="translate(-198.239 -11.05)" fill="#1a1311"/><path d="M15.2,23.732l3.389-.013-.013-3.389,3.388-.013.013,3.389,3.388-.013-.013-3.389-3.388.013-.013-3.389-3.388.013.013,3.389-3.389.013.013,3.388-3.389.013L11.8,20.356l3.388-.013-.013-3.388,3.388-.013-.013-3.388,3.389-.013-.013-3.389,3.389-.013.013,3.389-3.389.013.013,3.388,3.389-.013.013,3.388,3.389-.013L28.729,16.9l-3.389.013-.013-3.389,3.388-.013L28.7,10.127l-3.389.013L25.3,6.751l-3.389.013.013,3.389-3.388.013.013,3.389-3.388.013-.013-3.388-3.389.013.013,3.389,3.388-.013.013,3.389-3.389.013.013,3.388-3.389.013L8.4,16.981l3.389-.013-.013-3.388-3.389.013L8.372,10.2l3.388-.013L11.748,6.8l3.389-.013.013,3.389,3.388-.013-.013-3.388-3.388.013L15.123,3.4l3.389-.013.013,3.389,3.389-.013L21.9,3.375l-3.389.013L18.5,0l-3.34.013a15.248,15.248,0,0,0,.115,30.5l3.341-.013L18.6,27.108,21.99,27.1l-.013-3.388-3.389.013.013,3.388-3.388.013" transform="translate(0 0)" fill="#dc000c"/></g></g></svg>