<svg height="35.141" viewBox="0 0 165.844 35.141" width="165.844" xmlns="http://www.w3.org/2000/svg"><g fill="#fff"><path d="m519.75 270.115c0 5.857-8.808 29.284-13.213 35.141 4.4-5.857 22.021-5.857 26.425 0-4.404-5.856-13.212-29.284-13.212-35.141z" transform="translate(-367.118 -270.115)"/><path d="m312.416 275.966a13.7 13.7 0 0 1 12.908 9.133l.2-.028a15.458 15.458 0 1 0 -.109 9.551c-.073-.007-.142-.022-.213-.033a13.707 13.707 0 1 1 -12.79-18.623z" transform="translate(-295.319 -271.509)"/><path d="m371.109 274.217h-3.7a.155.155 0 0 0 -.156.164c.158 2.42 2 30.684 2 30.7s.007.014.007 0l2-30.7a.156.156 0 0 0 -.151-.164z" transform="translate(-319.773 -271.509)"/><path d="m408.3 274.217a.058.058 0 0 0 -.015.114c7.275 2.795 7.812 31.225 13.5 31.225 4.772 0 .978-24.172 5.813-31.249.036-.052.024-.09-.056-.09z" transform="translate(-333.705 -271.509)"/><path d="m405.548 289.422a7.564 7.564 0 0 0 -1.071-4.058 6.791 6.791 0 0 1 -.966-3.417.084.084 0 0 0 0-.018v-.059c0-.058 0-.116 0-.177a6.823 6.823 0 0 1 .816-3.335c.053-.114.107-.227.16-.341a7.249 7.249 0 0 0 .487-4.493.069.069 0 0 0 -.075-.054.074.074 0 0 0 -.069.062 15.149 15.149 0 0 1 -1.48 4.1l-.018.035a7.563 7.563 0 0 0 -1.052 4.022c0 .118 0 .231.007.343a.064.064 0 0 0 0 .016v.032c.007.192.02.383.038.566l.012.1c.018.159.039.311.063.453l.021.123a.052.052 0 0 0 .006.018 8.132 8.132 0 0 0 .923 2.4 7.412 7.412 0 0 1 0 7.345 8.219 8.219 0 0 0 -.018 8.08l.018.035a15.153 15.153 0 0 1 1.48 4.1.074.074 0 0 0 .069.062.074.074 0 0 0 .071-.054 7.251 7.251 0 0 0 -.487-4.494c-.052-.114-.106-.227-.16-.34a7.32 7.32 0 0 1 .158-7.007 7.564 7.564 0 0 0 1.067-4.045z" transform="translate(-331.675 -271.255)"/><path d="m475.189 290.207c-1.543-1.608-3.887-2.495-7.138-2.695a7.315 7.315 0 0 0 4.185-2.015 6.8 6.8 0 0 0 2.11-4.715c0-8.627-13.631-8.508-13.631-.014 0 17.509.329 20.847-2.546 24.768 0 .015-.075.31.263 0 4.275-3.915 4.458-5.933 4.458-24.953 0-7.038 9.38-7.038 9.38.256a6.214 6.214 0 0 1 -1.754 4.5 7.521 7.521 0 0 1 -5.463 2.106.072.072 0 0 0 -.02 0c-.023 0-.106.006-.187.006a.146.146 0 0 0 -.159.139v1.688a.127.127 0 0 0 .133.128c5.015 0 8.268 1.123 9.943 3.434 1.491 2.057 1.624 4.843 1.752 7.537a24.747 24.747 0 0 0 .535 4.787c.043.168.17.3.28.3h.025c.041-.007.135-.046.112-.238a29.558 29.558 0 0 1 -.021-4.347c.154-3.745.324-7.985-2.257-10.672z" transform="translate(-350.674 -271.556)"/></g></svg>