<svg xmlns="http://www.w3.org/2000/svg" width="275.52" height="60.48" viewBox="0 0 275.52 60.48"><path d="M15.281,38.26l1.76-.16.32,2.88,5.44-.64.16,1.76-5.44.64L18,45.46l6.08-.64.16,1.76-6.08.48.64,4.96-1.92.16-.48-4.8-6.08.64L10,46.26l6.08-.64-.32-2.88-5.28.64-.16-1.76,5.28-.64Z" transform="translate(-10.001 7.82)"/><path d="M33.121,40.34c-.32,5.12-2.88,6.56-4.16,7.36l-1.28-1.28a5.763,5.763,0,0,0,3.36-4l-5.6.8,1.44,8.64-1.92.32-1.44-8.64-4,.64-.32-1.76,4-.64-.48-3.36,1.92-.32.48,3.36Z" transform="translate(-4.481 7.82)"/><path d="M27.2,50.36c3.68-1.6,8.32-3.68,10.4-12.16l2.08.48c-1.12,3.52-3.2,10.08-11.52,13.12Z" transform="translate(0.319 7.88)"/><path d="M40.8,42.7A22.432,22.432,0,0,0,36,40.3l.8-1.6a12.915,12.915,0,0,1,4.96,2.24Zm-4.64,6.56c5.6-.32,9.28-2.24,11.68-9.6l1.76.8c-2.4,7.04-5.92,9.92-12.96,10.72Z" transform="translate(5.599 8.18)"/><path d="M53.8,51.26a26.337,26.337,0,0,0-6.4-6.4l1.28-1.12a15.746,15.746,0,0,1,2.88,2.24,13.467,13.467,0,0,0,4.8-5.12H45V39.1h14.24A13.247,13.247,0,0,1,53,46.94a19.51,19.51,0,0,1,2.56,2.88Z" transform="translate(10.999 8.42)"/><rect width="14.24" height="1.92" transform="translate(69.92 51.84)"/><path d="M77.841,41.14V42.9h-4c-.48,4.16-1.12,7.68-7.68,9.28l-.96-1.6c5.28-.96,6.24-3.68,6.56-7.68H67.6a10.544,10.544,0,0,1-2.72,3.36L63.6,44.98a9.356,9.356,0,0,0,3.52-6.88l1.92.16a8.78,8.78,0,0,1-.8,2.72h9.6Z" transform="translate(22.159 7.82)"/><path d="M86.181,42.6v1.76H80.9v.16c-.32,4.32-2.24,6.4-6.56,7.36l-.8-1.6c4.32-.64,5.44-2.4,5.6-5.76v-.16H72.9V42.6ZM84.9,40.2H74.181V38.6H84.9Z" transform="translate(27.739 8.12)"/><path d="M88.1,51.1H86.5V45.5a21.663,21.663,0,0,1-4.8,2.24l-.8-1.44a18.475,18.475,0,0,0,9.28-6.4l1.44,1.12a38.8,38.8,0,0,1-3.52,3.36V51.1" transform="translate(32.539 8.9)"/><path d="M93.2,42.7a22.432,22.432,0,0,0-4.8-2.4l.8-1.6a12.915,12.915,0,0,1,4.96,2.24Zm-4.64,6.56c5.6-.32,9.28-2.24,11.68-9.6l1.76.8c-2.4,7.04-5.92,9.92-12.96,10.72Z" transform="translate(37.039 8.18)"/><path d="M97.4,44.48a9.789,9.789,0,0,0,4.96-6.08l1.92.32a11,11,0,0,1-.96,2.08h6.88c-1.44,9.76-8.48,11.04-11.2,11.52l-.64-1.76c5.12-.8,8.32-2.72,9.76-8.16h-5.76a14.486,14.486,0,0,1-3.68,3.36Zm10.72-4.16a13.827,13.827,0,0,0-.8-2.4l1.28-.32a9.441,9.441,0,0,1,.8,2.4Zm2.4,0a9.991,9.991,0,0,0-.8-2.24l1.28-.32a10.314,10.314,0,0,1,.96,2.24Z" transform="translate(42.439 7.52)"/><path d="M111.281,46.02c-1.92-.96-3.68-1.6-4.48-1.92l.8-1.6a16.726,16.726,0,0,1,4.48,1.76Zm-3.68,4c6.08-.48,8.8-2.4,10.88-8.64l1.76.8c-2.24,6.08-4.8,8.96-12.16,9.92Zm4.8-7.68a32.256,32.256,0,0,0-4.48-1.76l.8-1.76a16.77,16.77,0,0,1,4.48,1.76Zm4.96-1.6a9.659,9.659,0,0,0-.8-2.56l1.28-.32a11.99,11.99,0,0,1,.8,2.56Zm2.24-.32a9.441,9.441,0,0,0-.8-2.4l1.28-.32a6.86,6.86,0,0,1,.8,2.4Z" transform="translate(48.079 7.58)"/><path d="M118.421,40.06l1.6-.16.48,2.56,6.4-.96a7,7,0,0,1-3.36,6.08l-1.12-1.12c1.6-1.12,2.08-1.76,2.4-3.2l-4.16.64,1.12,6.88-1.76.16-1.12-6.88-3.04.48-.16-1.6,3.04-.48Z" transform="translate(53.419 8.9)"/><path d="M123,50.76c2.4-2.72,3.2-6.88,3.52-11.36l1.76.16c-.48,7.52-2.08,10.4-3.84,12.64Zm10.72-11.52a21.746,21.746,0,0,0,4,11.52l-1.6,1.28c-2.56-3.36-3.68-8.32-4.16-12.48Zm2.72,1.76a1.6,1.6,0,1,1,1.6-1.6,1.507,1.507,0,0,1-1.6,1.6m0-2.56a.8.8,0,1,0,.8.8.857.857,0,0,0-.8-.8" transform="translate(57.799 7.64)"/><path d="M138.1,42.7a22.432,22.432,0,0,0-4.8-2.4l.8-1.6a12.915,12.915,0,0,1,4.96,2.24Zm-4.64,6.56c5.6-.32,9.28-2.24,11.68-9.6l1.76.8c-2.4,7.04-5.92,9.92-12.96,10.72Z" transform="translate(63.979 8.18)"/><path d="M150.781,41.86a11.007,11.007,0,0,1-1.12,2.08l-1.6-.96c.16-.32.32-.32.48-.64h-1.92v1.28a11.192,11.192,0,0,0,2.24,2.72l-.96,1.44a6.607,6.607,0,0,1-1.12-1.76V52.9h-1.76V45.54a10.119,10.119,0,0,1-1.92,4l-.8-2.08a15.033,15.033,0,0,0,2.4-5.12h-2.08v-1.6h2.24V37.86h1.44v2.88h1.92v1.6c.48-.64.8-1.6,1.44-4l1.6.16a8.622,8.622,0,0,1-.48,1.6h1.28V37.7h1.6v2.4h3.36v1.6h-3.36v2.4h3.68v1.6h-3.2a10.186,10.186,0,0,0,3.52,4.16l-.8,1.76a10.884,10.884,0,0,1-3.04-4.16v5.28h-1.6V47.46a13.8,13.8,0,0,1-3.52,4l-.96-1.44a12.029,12.029,0,0,0,4.16-4.32h-3.52V44.1h4V41.86h-1.6" transform="translate(69.379 7.58)"/><path d="M166.081,40.42h1.76v1.6h-4.8a21.894,21.894,0,0,0,1.28,6.88c.16.48.96,1.92,1.44,1.92.64,0,.8-1.76.96-2.4l1.44.8c-.16,1.28-.64,3.52-2.08,3.52-1.6,0-2.56-1.76-3.04-2.56-1.44-2.72-1.44-5.6-1.6-8.32h-8.48v-1.6h8.48c0-.8-.16-2.24-.16-2.56h1.76v2.56h2.88a19.049,19.049,0,0,0-2.4-1.44l.8-1.12a20.64,20.64,0,0,1,2.56,1.44ZM152.8,50.66h.8c.32,0,2.24-.32,2.56-.32V45.7h-3.04V44.1h7.68v1.6h-2.88v4.48c1.76-.32,2.88-.48,3.52-.64v1.44a60.46,60.46,0,0,1-8.16,1.28Z" transform="translate(75.679 7.58)"/><path d="M166.181,42.82a15.46,15.46,0,0,1-2.72,1.44l-.96-1.6c2.56-.96,5.6-2.88,6.88-4.96h1.76c1.12,1.92,3.84,3.68,6.88,4.8l-.96,1.6a23.3,23.3,0,0,1-2.56-1.44v.96h-8.48v-.8Zm9.44,10.08c-.16-.32-.32-.48-.64-1.12-8.32.64-8.96.64-11.36.64l-.16-1.6h2.24a27.9,27.9,0,0,0,1.6-3.68h-4.16v-1.6h14.4v1.6h-8.32c-.8,1.76-1.28,2.72-1.76,3.68,3.36,0,4-.16,6.56-.16a19.159,19.159,0,0,0-1.92-2.24l1.28-.8a22.786,22.786,0,0,1,3.68,4.64ZM173.7,42.18h0a15.226,15.226,0,0,1-3.36-3.04,13.111,13.111,0,0,1-3.36,3.04Z" transform="translate(81.499 7.58)"/><path d="M176.861,52.9h-1.6V46.66a13.854,13.854,0,0,1-1.92,1.44l-.64-1.6a9.909,9.909,0,0,0,4.32-4.64h-4.16v-1.6h2.4V37.7h1.6v2.56h1.92v1.6a17,17,0,0,1-1.6,2.72,8.421,8.421,0,0,0,2.24,1.92l-.8,1.44a17.521,17.521,0,0,1-1.76-1.6Zm5.44-15.2h1.76v4.48h3.36v1.76h-3.36V50.5h3.84v1.76h-9.44V50.5h4V43.94H179.1V42.18h3.36V37.7Z" transform="translate(87.619 7.58)"/><path d="M82.821,34.04a13.423,13.423,0,0,1-11.04,5.76,13.6,13.6,0,0,1,0-27.2,13.991,13.991,0,0,1,7.2,2.08l-7.2,11.68,13.44-7.84a18.789,18.789,0,0,0-9.12-7.36,27.062,27.062,0,0,0-19.2,0,18.212,18.212,0,0,0-7.84,5.6,15.206,15.206,0,0,0-3.36,9.6,15.546,15.546,0,0,0,3.36,9.6,18.212,18.212,0,0,0,7.84,5.6,27.6,27.6,0,0,0,9.6,1.76,39.245,39.245,0,0,0,6.24-.64,21.463,21.463,0,0,0,10.72-6.24Z" transform="translate(11.419 -9.4)" fill="#c00"/><path d="M114.3,13a4.429,4.429,0,0,0-2.08.48l-7.84,3.68a4.83,4.83,0,0,0-4.8-4.16,4.429,4.429,0,0,0-2.08.48l-9.6,4.48h6.72V40.04h9.92V20.36a2.4,2.4,0,1,1,4.8,0V40.04h9.92V17.96A4.985,4.985,0,0,0,114.3,13" transform="translate(36.739 -7.24)" fill="#c00"/><path d="M152.9,13a4.429,4.429,0,0,0-2.08.48l-7.84,3.68a4.83,4.83,0,0,0-4.8-4.16,4.429,4.429,0,0,0-2.08.48l-9.6,4.48h6.72V40.04h9.92V20.36a2.4,2.4,0,0,1,4.8,0V40.04h9.92V17.96A4.985,4.985,0,0,0,152.9,13" transform="translate(59.899 -7.24)" fill="#c00"/><path d="M124.021,13a13.92,13.92,0,1,0,13.92,13.92A13.93,13.93,0,0,0,124.021,13m3.2,25.92a3.1,3.1,0,0,1-3.84-2.24l-4.8-17.76a3.143,3.143,0,1,1,6.08-1.6l4.8,17.76a3.38,3.38,0,0,1-2.24,3.84" transform="translate(50.059 -7.24)" fill="#c00"/><path d="M89.8,31.88a4.96,4.96,0,1,1-4.96-4.96,4.985,4.985,0,0,1,4.96,4.96m2.4,8.32h9.92l-5.76-21.28A8.062,8.062,0,0,0,88.681,13a7.474,7.474,0,0,0-2.72.48L73.8,17.96h12.48l2.08,8a12.09,12.09,0,0,0-7.84-2.88,12.73,12.73,0,0,0-6.08,1.6,11.252,11.252,0,0,0-3.52,3.2,8.313,8.313,0,0,0-1.12,4,8.313,8.313,0,0,0,1.12,4,7.569,7.569,0,0,0,3.52,3.2,12.73,12.73,0,0,0,6.08,1.6,12.577,12.577,0,0,0,10.24-5.28Z" transform="translate(25.879 -7.24)" fill="#c00"/></svg>