<svg height="60" viewBox="0 0 60 60" width="60" xmlns="http://www.w3.org/2000/svg"><g fill="#1a1311"><path d="m39.569 215.483v-.106h.44l-.258-.757h-.914l-.263.757h.432v.106h-.9v-.106h.343l1.012-2.815h.139l.97 2.815h.338v.106zm-.258-2.163-.428 1.193h.825z" transform="translate(-31.789 -162.703)"/><path d="m51.112 217.568c-.081 0-.144-.084-.173-.148-.051 0-.085.06-.114.094a.5.5 0 0 1 .1.313c0 .542-.432.567-.838.567-.132 0-.407.008-.407.191 0 .466 1.512-.335 1.512.584 0 .546-.453.8-.948.8-.3 0-.694-.14-.694-.492a.406.406 0 0 1 .271-.359.4.4 0 0 1 -.275-.39c0-.249.161-.368.381-.436a.533.533 0 0 1 -.284-.444.6.6 0 0 1 .643-.6.713.713 0 0 1 .482.191c.08-.1.165-.208.309-.208a.18.18 0 0 1 .186.174.138.138 0 0 1 -.152.156m-.4 1.558h-.72c-.152 0-.169.211-.169.321a.4.4 0 0 0 .441.419c.333 0 .787-.161.787-.571 0-.174-.216-.169-.339-.169m-.191-1.609c0-.149-.094-.178-.225-.178s-.24.042-.24.178v.593c0 .156.067.211.224.211s.241-.03.241-.211z" transform="translate(-40.33 -166.194)"/><path d="m57.51 219.088a.862.862 0 0 1 -.795-.884.893.893 0 0 1 .841-.9.723.723 0 0 1 .758.7c0 .157-.909.076-1.1.076v.342c0 .284.012.58.377.58a.662.662 0 0 0 .622-.512h.106a.76.76 0 0 1 -.813.6m.022-1.7c-.284 0-.313.2-.313.436v.148h.618c0-.081 0-.157 0-.237 0-.224-.063-.347-.309-.347" transform="translate(-45.682 -166.245)"/><path d="m64.805 219.025v-.106h.267v-1.029c0-.186 0-.431-.245-.431-.41 0-.466.558-.466.846v.614h.267v.106h-1v-.106h.288v-1.481h-.288v-.106c.246 0 .492-.008.736-.017v.4h.009a.658.658 0 0 1 .63-.411c.56 0 .516.4.516.821v.791h.267v.106z" transform="translate(-50.844 -166.246)"/><path d="m72.924 219.089a.85.85 0 0 1 -.842-.927.86.86 0 0 1 .879-.855c.264 0 .632.118.632.436a.242.242 0 0 1 -.212.25c-.136 0-.262-.068-.262-.22 0-.122.131-.153.131-.228 0-.119-.207-.152-.3-.152-.352 0-.377.322-.377.6v.474c0 .292.025.542.372.542a.614.614 0 0 0 .584-.512h.1a.69.69 0 0 1 -.706.6" transform="translate(-57.155 -166.246)"/><path d="m80.058 217.512-.745 1.93c-.085.22-.253.656-.541.656a.232.232 0 0 1 -.233-.216.212.212 0 0 1 .2-.22c.144 0 .152.06.245.144a2.366 2.366 0 0 0 .326-.707l-.745-1.587h-.205v-.106h.97v.106h-.271l.47 1.041.4-1.041h-.305v-.106h.665v.106z" transform="translate(-61.842 -166.32)"/><path d="m92.3 213.121a.188.188 0 0 1 -.2-.19c0-.132.109-.144.122-.2a.145.145 0 0 0 -.127-.085c-.2 0-.309.313-.309.474v.669h.4v.106h-.4v1.481h.364v.106h-1.15v-.106h.33v-1.476h-.338v-.106h.338c0-.487.144-1.228.771-1.228.2 0 .427.11.427.339a.221.221 0 0 1 -.229.22" transform="translate(-71.273 -162.703)"/><path d="m97.325 219.088a.9.9 0 0 1 -.889-.88.889.889 0 1 1 1.778 0 .9.9 0 0 1 -.889.88m.385-1.054c0-.3.013-.643-.385-.643s-.385.339-.385.643v.174c0 .326-.067.8.385.8s.385-.47.385-.8z" transform="translate(-75.338 -166.245)"/><path d="m105.622 217.822c-.207 0-.207-.178-.186-.322l-.038-.034c-.377 0-.441.821-.441 1.054v.4h.381v.106h-1.087v-.106h.25v-1.481h-.28v-.106c.246 0 .491-.009.736-.017v.474c.136-.233.288-.482.593-.482.169 0 .339.089.339.279a.236.236 0 0 1 -.267.237" transform="translate(-81.15 -166.245)"/><path d="m118.838 215.508-.174-.2a1.111 1.111 0 0 1 -.724.241 1.5 1.5 0 0 1 .034-2.984 1.018 1.018 0 0 1 .656.225l.17-.183h.093v.826h-.123a.812.812 0 0 0 -.8-.762c-.635 0-.719.592-.719 1.1 0 .537-.115 1.672.677 1.672.528 0 .762-.339.884-.808h.119v.876z" transform="translate(-90.416 -162.703)"/><path d="m127.475 219.082v-.382h-.012a.707.707 0 0 1 -.623.406c-.278 0-.511-.105-.511-.415v-1.231h-.276v-.106c.241 0 .483-.009.724-.017v1.33c0 .169-.008.309.2.309.335 0 .5-.415.5-.69v-.825h-.321v-.106c.258 0 .512-.009.77-.017v1.6h.3v.106a3.967 3.967 0 0 0 -.745.034" transform="translate(-97.449 -166.268)"/><path d="m134.955 215.484v-.106h.318v-2.641h-.3v-.11a4.185 4.185 0 0 0 .762-.064v2.815h.309v.106z" transform="translate(-104.095 -162.704)"/><path d="m140.051 217.779c-.292 0-.448-.055-.448-.368v-1.211h-.271v-.127h.271v-.495c.152 0 .3-.017.457-.026v.52h.4v.127h-.4v1.177c0 .131 0 .237.165.237a.287.287 0 0 0 .258-.229l.085.043a.513.513 0 0 1 -.517.352" transform="translate(-107.363 -164.936)"/><path d="m146.016 219.082v-.382h-.016a.706.706 0 0 1 -.622.406c-.279 0-.512-.105-.512-.415v-1.231h-.276v-.106c.241 0 .483-.009.724-.017v1.33c0 .169-.008.309.2.309.334 0 .495-.415.495-.69v-.825h-.321v-.106c.258 0 .512-.009.77-.017v1.6h.3v.106a3.969 3.969 0 0 0 -.745.034" transform="translate(-111.292 -166.268)"/><path d="m155.014 217.822c-.207 0-.207-.178-.186-.322l-.038-.034c-.377 0-.44.821-.44 1.054v.4h.382v.106h-1.089v-.106h.25v-1.481h-.28v-.106c.246 0 .492-.009.737-.017v.474c.136-.233.288-.482.592-.482.17 0 .339.089.339.279a.235.235 0 0 1 -.267.237" transform="translate(-118.024 -166.245)"/><path d="m161.819 219.089a.319.319 0 0 1 -.33-.3.8.8 0 0 1 -.618.3.4.4 0 0 1 -.44-.415c0-.5.669-.622 1.058-.592v-.533c0-.11-.2-.156-.279-.156-.067 0-.309.034-.309.131a.76.76 0 0 1 .072.237.2.2 0 0 1 -.2.186.2.2 0 0 1 -.22-.2c0-.326.411-.44.673-.44s.7.051.7.377v1.138c0 .055.055.081.1.081s.115-.063.149-.1l.05.063a.506.506 0 0 1 -.4.225m-.33-.919c-.267 0-.614.038-.614.381 0 .182.076.33.275.33.245 0 .339-.271.339-.474z" transform="translate(-123.115 -166.246)"/><path d="m167.63 215.484v-.106h.318v-2.641h-.3v-.11a4.18 4.18 0 0 0 .761-.064v2.815h.309v.106z" transform="translate(-128.49 -162.704)"/><path d="m178.531 215.483v-.106h.441l-.258-.757h-.914l-.262.757h.431v.106h-.9v-.106h.344l1.011-2.815h.144l.97 2.815h.339v.106zm-.258-2.163-.428 1.193h.825z" transform="translate(-135.535 -162.703)"/><path d="m189.667 213.121a.189.189 0 0 1 -.2-.19c0-.132.11-.144.123-.2a.146.146 0 0 0 -.128-.085c-.194 0-.309.313-.309.474v.669h.4v.106h-.4v1.481h.364v.106h-1.151v-.106h.33v-1.476h-.339v-.106h.339c0-.487.144-1.228.77-1.228.2 0 .427.11.427.339a.221.221 0 0 1 -.228.22" transform="translate(-143.966 -162.703)"/><path d="m195.13 213.121a.19.19 0 0 1 -.2-.19c0-.132.11-.144.123-.2a.146.146 0 0 0 -.127-.085c-.195 0-.309.313-.309.474v.669h.4v.106h-.4v1.481h.364v.106h-1.151v-.106h.331v-1.476h-.339v-.106h.339c0-.487.143-1.228.769-1.228.2 0 .428.11.428.339a.221.221 0 0 1 -.228.22" transform="translate(-148.044 -162.703)"/><path d="m200.12 219.089a.32.32 0 0 1 -.33-.3.8.8 0 0 1 -.618.3.4.4 0 0 1 -.44-.415c0-.5.669-.622 1.058-.592v-.533c0-.11-.195-.156-.279-.156-.067 0-.309.034-.309.131a.756.756 0 0 1 .072.237.2.2 0 0 1 -.2.186.2.2 0 0 1 -.22-.2c0-.326.411-.44.673-.44s.7.051.7.377v1.138c0 .055.055.081.1.081s.115-.063.148-.1l.051.063a.506.506 0 0 1 -.4.225m-.33-.919c-.267 0-.614.038-.614.381 0 .182.076.33.275.33.246 0 .339-.271.339-.474z" transform="translate(-151.71 -166.246)"/><path d="m206.082 216.058v-.106h.309v-1.482h-.309v-.106c.254 0 .508-.008.767-.017v1.6h.313v.106zm.5-2.239a.254.254 0 0 1 -.229-.258.246.246 0 0 1 .229-.228.243.243 0 1 1 0 .487" transform="translate(-157.198 -163.278)"/><path d="m211.961 217.822c-.208 0-.208-.178-.187-.322l-.038-.034c-.377 0-.44.821-.44 1.054v.4h.38v.106h-1.086v-.106h.249v-1.481h-.281v-.106c.246 0 .491-.009.737-.017v.474c.135-.233.288-.482.592-.482.17 0 .338.089.338.279a.235.235 0 0 1 -.266.237" transform="translate(-160.54 -166.245)"/><path d="m218.307 219.089a.66.66 0 0 1 -.423-.178l-.124.114h-.067v-.609h.115c.042.287.211.588.537.588a.365.365 0 0 0 .385-.343c0-.457-1.016-.021-1.016-.834a.5.5 0 0 1 .534-.52.694.694 0 0 1 .415.136l.067-.11h.073v.5h-.11a.485.485 0 0 0 -.444-.444.314.314 0 0 0 -.344.3c0 .432 1.008-.034 1.008.813a.531.531 0 0 1 -.605.588" transform="translate(-165.866 -166.246)"/><path d="m223.234 223.33c-.038 0-.085-.008-.081-.055.173-.169.4-.351.4-.622 0-.038-.021-.174-.072-.174-.1 0-.038.225-.293.225a.249.249 0 0 1 -.233-.267.291.291 0 0 1 .31-.287.415.415 0 0 1 .41.465.907.907 0 0 1 -.439.715" transform="translate(-169.794 -169.862)"/><path d="m65.055 230.541a.993.993 0 0 1 -1.074.995 1.385 1.385 0 0 1 -1.364-1.486 1.45 1.45 0 0 1 1.321-1.5 1.187 1.187 0 0 1 .711.224l.169-.182h.093v.826h-.123a.873.873 0 0 0 -.8-.762c-.9 0-.753 1.05-.753 1.673 0 .5.051 1.1.7 1.1.449 0 .533-.258.525-.648v-.241h-.427v-.105h1.325v.105z" transform="translate(-50.089 -174.641)"/><path d="m74.866 235.077a.9.9 0 0 1 -.889-.88.889.889 0 1 1 1.778 0 .9.9 0 0 1 -.889.88m.386-1.054c0-.3.011-.643-.386-.643s-.385.339-.385.643v.174c0 .326-.068.8.385.8s.386-.47.386-.8z" transform="translate(-58.57 -178.182)"/><path d="m82.3 233.5-.682 1.651h-.11l-.685-1.651h-.216v-.1h.961v.105h-.268l.423 1.071.448-1.071h-.291v-.105h.647v.105z" transform="translate(-63.521 -178.258)"/><path d="m88.487 235.077a.863.863 0 0 1 -.8-.885.893.893 0 0 1 .843-.9.724.724 0 0 1 .758.7c0 .156-.91.076-1.1.076v.343c0 .284.012.58.376.58a.662.662 0 0 0 .622-.512h.114a.76.76 0 0 1 -.813.6m.021-1.7c-.284 0-.313.2-.313.436v.148h.617c0-.081.006-.156.006-.237 0-.224-.064-.347-.309-.347" transform="translate(-68.808 -178.182)"/><path d="m95.759 233.811c-.207 0-.207-.178-.186-.321l-.038-.034c-.378 0-.441.822-.441 1.054v.4h.382v.106h-1.089v-.106h.25v-1.481h-.279v-.105c.245 0 .49-.008.736-.017v.474c.136-.233.288-.482.593-.482.169 0 .339.089.339.279a.235.235 0 0 1 -.267.237" transform="translate(-73.786 -178.182)"/><path d="m102.884 235.014v-.106h.266v-1.028c0-.187 0-.432-.246-.432-.411 0-.466.559-.466.847v.613h.266v.106h-1v-.106h.296v-1.481h-.288v-.105c.246 0 .491-.008.736-.017v.4h.009a.658.658 0 0 1 .631-.411c.559 0 .516.4.516.821v.791h.267v.106z" transform="translate(-79.273 -178.182)"/><path d="m112.718 235.014v-.106h.224v-1.143c0-.136 0-.317-.177-.317-.318 0-.444.373-.444.635v.825h.233v.106h-.9v-.106h.22v-1.193c0-.148-.034-.267-.207-.267-.267 0-.419.428-.419.643v.817h.233v.106h-.956v-.106h.275v-1.481h-.293v-.105c.249 0 .495-.008.741-.017v.41h.008a.623.623 0 0 1 .588-.419.491.491 0 0 1 .487.356.646.646 0 0 1 .551-.356c.558 0 .508.36.508.787v.825h.27v.106z" transform="translate(-85.844 -178.182)"/><path d="m123.583 235.077a.863.863 0 0 1 -.8-.885.894.894 0 0 1 .843-.9.724.724 0 0 1 .757.7c0 .156-.91.076-1.1.076v.343c0 .284.012.58.376.58a.663.663 0 0 0 .623-.512h.105a.759.759 0 0 1 -.813.6m.021-1.7c-.283 0-.312.2-.312.436v.148h.617c0-.081 0-.156 0-.237 0-.224-.064-.347-.309-.347" transform="translate(-95.011 -178.182)"/><path d="m130.546 235.014v-.106h.266v-1.028c0-.187 0-.432-.245-.432-.411 0-.466.559-.466.847v.613h.267v.106h-1v-.106h.288v-1.481h-.288v-.105c.246 0 .491-.008.736-.017v.4h.009a.659.659 0 0 1 .63-.411c.559 0 .517.4.517.821v.791h.267v.106z" transform="translate(-99.925 -178.182)"/><path d="m138.155 233.769c-.291 0-.449-.055-.449-.369v-1.21h-.271v-.127h.271v-.5c.153 0 .3-.017.456-.025v.52h.4v.127h-.4v1.177c0 .132 0 .237.165.237a.286.286 0 0 0 .258-.229l.085.043a.513.513 0 0 1 -.517.351" transform="translate(-105.947 -176.874)"/><path d="m148.348 235.077a.9.9 0 0 1 -.889-.88.889.889 0 1 1 1.778 0 .9.9 0 0 1 -.889.88m.385-1.054c0-.3.012-.643-.385-.643s-.385.339-.385.643v.174c0 .326-.068.8.385.8s.385-.47.385-.8z" transform="translate(-113.43 -178.182)"/><path d="m155.816 229.111a.189.189 0 0 1 -.2-.19c0-.131.11-.144.122-.2a.145.145 0 0 0 -.126-.085c-.195 0-.309.313-.309.474v.669h.4v.105h-.4v1.481h.363v.106h-1.151v-.106h.33v-1.481h-.338v-.105h.338c0-.487.144-1.228.771-1.228.2 0 .427.11.427.339a.22.22 0 0 1 -.229.219" transform="translate(-118.693 -174.642)"/><path d="m166.216 228.913v2.078c0 .533-.2 1.041-.83 1.041-.254 0-.593-.111-.593-.419a.27.27 0 0 1 .245-.292.241.241 0 0 1 .246.246c0 .106-.123.174-.123.267s.169.093.229.093c.224 0 .279-.2.279-.385v-2.628h-.454v-.114h1.405v.111z" transform="translate(-126.375 -174.828)"/><path d="m172.751 235.077a.32.32 0 0 1 -.33-.3.8.8 0 0 1 -.618.3.4.4 0 0 1 -.44-.415c0-.5.668-.622 1.058-.592v-.532c0-.111-.2-.157-.279-.157-.068 0-.309.034-.309.131a.746.746 0 0 1 .072.237.2.2 0 0 1 -.2.185.2.2 0 0 1 -.22-.2c0-.326.41-.44.673-.44s.7.051.7.377v1.138c0 .055.055.081.1.081s.115-.064.148-.1l.051.064a.506.506 0 0 1 -.4.224m-.33-.919c-.267 0-.614.038-.614.381 0 .183.076.33.275.33.246 0 .339-.27.339-.474z" transform="translate(-131.277 -178.182)"/><path d="m179.256 235.077a.537.537 0 0 1 -.52-.305h-.009v1.135h.3v.106h-1.058v-.106h.305v-2.481h-.309v-.105c.254 0 .512-.008.766-.017v.347h.009a.6.6 0 0 1 .52-.356.854.854 0 0 1 .791.885.877.877 0 0 1 -.791.9m.288-1.325c0-.229-.067-.372-.322-.372a.607.607 0 0 0 -.495.491v.558a.538.538 0 0 0 .487.563.294.294 0 0 0 .33-.326z" transform="translate(-136.203 -178.181)"/><path d="m188.1 235.077a.32.32 0 0 1 -.33-.3.8.8 0 0 1 -.618.3.4.4 0 0 1 -.44-.415c0-.5.669-.622 1.058-.592v-.532c0-.111-.195-.157-.28-.157-.068 0-.309.034-.309.131a.743.743 0 0 1 .073.237.2.2 0 0 1 -.2.185.2.2 0 0 1 -.22-.2c0-.326.41-.44.672-.44s.7.051.7.377v1.138c0 .055.055.081.1.081s.115-.064.148-.1l.051.064a.506.506 0 0 1 -.4.224m-.33-.919c-.267 0-.614.038-.614.381 0 .183.077.33.276.33.245 0 .338-.27.338-.474z" transform="translate(-142.738 -178.182)"/><path d="m195.458 235.014v-.106h.267v-1.028c0-.187 0-.432-.246-.432-.411 0-.465.559-.465.847v.613h.266v.106h-1v-.106h.288v-1.481h-.288v-.105c.245 0 .491-.008.737-.017v.4h.008a.659.659 0 0 1 .631-.411c.558 0 .515.4.515.821v.791h.268v.106z" transform="translate(-148.387 -178.182)"/><path d="m42.036 167.481c-.045.02-.085.031-.108.071-.011.016-.049.018-.075.022s-.045-.006-.067 0a.121.121 0 0 0 -.059.023.612.612 0 0 0 -.131.119c-.035.052-.1.066-.137.111a.059.059 0 0 1 -.034.019.354.354 0 0 0 -.132.06.206.206 0 0 1 -.09.017.607.607 0 0 0 -.113.014.255.255 0 0 1 -.125.012.213.213 0 0 0 -.18.049.2.2 0 0 1 -.1.038c-.049.006-.1.017-.144.022a.313.313 0 0 1 -.069-.008.288.288 0 0 0 -.049.142c0 .035-.017.044-.052.035s-.171 0-.186.021c-.036.057-.087.055-.146.057a.238.238 0 0 0 -.121.041.436.436 0 0 1 -.178.045.552.552 0 0 0 -.184.053c-.034.022-.079.024-.106.061-.008.012-.037.01-.056.014-.087.018-.174.036-.259.056a.054.054 0 0 0 -.029.015.16.16 0 0 1 -.121.047c-.087 0-.174 0-.26 0a.869.869 0 0 1 -.12-.005c-.05-.006-.1-.017-.15-.028-.14-.032-.283-.062-.423-.1a1.573 1.573 0 0 1 -.2-.086.11.11 0 0 0 -.038-.014.2.2 0 0 1 -.159-.051s-.016 0-.025 0-.015.007-.019 0a.984.984 0 0 1 -.147-.056c-.052-.029-.1-.07-.146-.1a.522.522 0 0 1 -.114-.108c-.012-.013-.025-.034-.038-.034-.082 0-.134-.066-.209-.082a.2.2 0 0 1 -.088-.057.722.722 0 0 0 -.209-.137 1.11 1.11 0 0 1 -.178-.114 1.972 1.972 0 0 0 -.226-.157.686.686 0 0 1 -.1-.084c-.056-.048-.111-.1-.17-.142s-.094-.06-.139-.092-.084-.064-.125-.1c-.015-.012-.031-.029-.048-.033a.114.114 0 0 1 -.08-.062.276.276 0 0 0 -.087-.079c-.064-.046-.133-.086-.2-.128a1.671 1.671 0 0 1 -.156-.111.961.961 0 0 1 -.092-.1.848.848 0 0 0 -.126-.134 1.476 1.476 0 0 0 -.27-.166.385.385 0 0 1 -.1-.088c-.032-.033-.062-.068-.091-.1a.191.191 0 0 0 -.109-.089c-.012 0-.021-.015-.032-.024a.5.5 0 0 0 -.142-.117.065.065 0 0 1 -.031-.032.215.215 0 0 0 -.117-.1.3.3 0 0 1 -.12-.092 1.812 1.812 0 0 0 -.294-.277.459.459 0 0 1 -.114-.124c-.017-.031-.06-.049-.09-.074-.012-.01-.028-.016-.035-.029a1.7 1.7 0 0 0 -.267-.275c-.069-.068-.165-.092-.235-.156-.011-.01-.027-.015-.038-.026-.052-.047-.1-.1-.155-.141s-.136-.1-.2-.146a.042.042 0 0 0 -.055 0 .817.817 0 0 0 -.155.155.194.194 0 0 1 -.04.032.5.5 0 0 0 -.06.042c-.03.027-.052.064-.1.058-.011 0-.028.015-.035.028a.468.468 0 0 1 -.089.1c-.03.033-.055.071-.084.105a.449.449 0 0 1 -.075.082.711.711 0 0 0 -.153.161s0 .009-.009.01c-.076.032-.087.1-.115.165-.01.022-.023.038-.047.039-.066 0-.1.058-.138.092-.02.017-.041.032-.061.048s-.057.047-.085.073-.047.044-.071.066c0 0-.011.007-.015.011-.073.08-.178.127-.243.215a.085.085 0 0 1 -.031.024.061.061 0 0 0 -.037.051c-.008.055-.051.077-.1.092a.671.671 0 0 0 -.075.023.14.14 0 0 0 -.079.074.177.177 0 0 1 -.058.076c-.03.024-.071.036-.093.072 0 .007-.019.008-.029.012-.037.015-.074.03-.111.042a.357.357 0 0 1 -.073.01c-.028 0-.054.006-.064.037s-.051.034-.076.048a1.066 1.066 0 0 1 -.128.053c-.016.006-.039.008-.048.02a.188.188 0 0 1 -.112.05.338.338 0 0 0 -.173.088.135.135 0 0 1 -.071.046.09.09 0 0 0 -.049.03.109.109 0 0 1 -.1.04.172.172 0 0 0 -.137.048.4.4 0 0 1 -.145.062.117.117 0 0 0 -.067.036.1.1 0 0 1 -.1.041.246.246 0 0 0 -.14.037.5.5 0 0 1 -.152.042.1.1 0 0 0 -.068.034.1.1 0 0 1 -.052.024.748.748 0 0 1 -.107.006.267.267 0 0 0 -.145.04.486.486 0 0 1 -.054.026c-.013 0-.033.006-.037.014-.026.052-.08.045-.124.06a.555.555 0 0 0 -.093.049.082.082 0 0 1 -.03.014 1.979 1.979 0 0 0 -.227.067c-.08.012-.16.019-.24.027a.294.294 0 0 1 -.066 0 .212.212 0 0 0 -.142.028.133.133 0 0 1 -.146 0 .343.343 0 0 0 -.145-.042.085.085 0 0 1 -.049-.016.187.187 0 0 0 -.159-.042.463.463 0 0 1 -.147-.036.348.348 0 0 1 -.061-.025.631.631 0 0 1 -.061-.036c-.011-.007-.02-.024-.03-.025a1.023 1.023 0 0 1 -.185-.067c-.012 0-.029-.006-.035-.014a.16.16 0 0 0 -.139-.067.047.047 0 0 1 -.053-.046.783.783 0 0 1 0-.3.226.226 0 0 0 -.014-.1.151.151 0 0 0 -.067-.075.2.2 0 0 1 -.115-.164.149.149 0 0 0 -.028-.072c-.033-.057-.035-.056-.024-.111l.1-.07a.077.077 0 0 1 .028-.1c.037-.027.026-.071.043-.105.007-.015.006-.035.017-.047a.25.25 0 0 0 .048-.166.719.719 0 0 1 .006-.077.179.179 0 0 1 .023-.041c.051.047.015.138.1.162.022-.039.044-.074.063-.111a.153.153 0 0 0 .024-.066.329.329 0 0 1 .045-.146.067.067 0 0 0 -.007-.084c-.023-.023-.014-.047 0-.072a.054.054 0 0 1 .059-.033.04.04 0 0 1 .043.041c0 .065.048.1.08.153s.053.035.085.007.057-.054.085-.082a.054.054 0 0 0 0-.077c-.009-.011-.017-.024-.026-.034s0 0 0-.011a.277.277 0 0 1 .245.078.22.22 0 0 0 .037.038.084.084 0 0 1 .039.1c-.01.046 0 .059.058.081a.131.131 0 0 1 .053-.155c.037-.033.054-.03.076.011l.028.059a.209.209 0 0 0 .111.091.185.185 0 0 0 .1 0 .2.2 0 0 1 .092-.009c.013 0 .031-.013.05-.023l.052.026c.023-.013.049-.039.08-.013h.02a1.136 1.136 0 0 1 .375-.031.325.325 0 0 0 .136-.022.256.256 0 0 1 .124-.018.3.3 0 0 0 .092 0 .643.643 0 0 0 .2-.059c.012-.009.038 0 .065 0 0 0 .008-.014.016-.016.1-.021.176-.1.29-.1a.206.206 0 0 0 .181-.08.064.064 0 0 1 .025-.02l.157-.081c.017-.009.033-.022.05-.03a.254.254 0 0 1 .089-.04.637.637 0 0 0 .263-.1c.02-.012.044-.019.066-.032s.051-.034.077-.049a2.063 2.063 0 0 0 .178-.14c.024-.017.06-.019.086-.034.043-.024.1-.034.124-.082a.018.018 0 0 1 .012-.007c.076-.012.116-.074.169-.116a.254.254 0 0 1 .034-.019c.01 0 .024-.006.03-.013a.284.284 0 0 1 .115-.083.621.621 0 0 1 .091-.05c.062-.018.108-.071.178-.072a.089.089 0 0 0 .053-.028.649.649 0 0 1 .125-.1.282.282 0 0 1 .11-.054.1.1 0 0 0 .072-.058.511.511 0 0 1 .106-.145 2.569 2.569 0 0 0 .218-.216c.026-.027.02-.057-.012-.084a.623.623 0 0 0 -.118-.1c-.054-.026-.072-.079-.113-.115a.426.426 0 0 1 -.078-.1.173.173 0 0 0 -.067-.078c-.013-.008-.017-.038-.02-.059a.536.536 0 0 1 0-.057.076.076 0 0 0 -.05-.071.342.342 0 0 1 -.14-.1.307.307 0 0 0 -.08-.057c-.046-.031-.094-.06-.139-.092a.775.775 0 0 1 -.064-.054.682.682 0 0 0 -.077-.062.758.758 0 0 0 -.169-.1.078.078 0 0 1 -.027-.017.155.155 0 0 0 -.1-.057c-.033 0-.044-.03-.047-.056a.5.5 0 0 0 -.1-.206.069.069 0 0 1 -.011-.041c0-.043.037-.058.068-.027s.071 0 .106.015a.158.158 0 0 0 -.012-.129c-.033-.058 0-.107.02-.154.009-.022.055-.031.084-.046a.362.362 0 0 0 .071-.043.316.316 0 0 1 .145-.077.183.183 0 0 0 .074-.028.179.179 0 0 1 .12-.033h.29a.546.546 0 0 1 .093.009.043.043 0 0 1 .032.02.09.09 0 0 0 .058.049.048.048 0 0 1 .032.052.116.116 0 0 0 .038.087.209.209 0 0 1 .029.063c.008.027.011.055.019.082a.058.058 0 0 0 .064.045c.041 0 .081.015.122-.014a.049.049 0 0 1 .065.019c.022.028.045.057.068.085 0 .007.014.016.02.015.047-.005.057.032.08.057a.447.447 0 0 0 .091.066c.06.04.122.079.185.115a.734.734 0 0 0 .112.054.151.151 0 0 1 .08.054.164.164 0 0 0 .168.065.077.077 0 0 0 .03-.014 1.231 1.231 0 0 0 .095-.105.677.677 0 0 1 .122-.152.026.026 0 0 0 .012-.015c.007-.069.067-.11.094-.169a.6.6 0 0 1 .185-.2c.009-.007.021-.012.024-.021a2.275 2.275 0 0 1 .159-.28.111.111 0 0 1 .089-.059c.049-.007.049-.009.049-.058 0-.031-.01-.063-.01-.095a.486.486 0 0 1 .01-.075.385.385 0 0 1 .054-.166.138.138 0 0 0 .012-.062c0-.031.007-.06.043-.075a.049.049 0 0 0 .022-.036 1.458 1.458 0 0 0 .009-.155c0-.053-.026-.072-.081-.073-.092 0-.184 0-.275 0s-.174 0-.262.007-.174 0-.262 0a.99.99 0 0 0 -.146.02.675.675 0 0 1 -.184.026.813.813 0 0 0 -.107.007.063.063 0 0 0 -.036.013c-.048.057-.116.048-.179.053-.036 0-.073-.006-.108 0a.531.531 0 0 0 -.2.045.57.57 0 0 1 -.2.029c-.027 0-.054 0-.081 0s-.053 0-.065.036-.03.029-.054.028h-.085a.2.2 0 0 0 -.132.038.207.207 0 0 1 -.107.034c-.039 0-.08.007-.119.012a.033.033 0 0 0 -.019 0 .5.5 0 0 1 -.276.054c-.043 0-.085.006-.127.009a.084.084 0 0 0 -.033.007c-.052.027-.106.054-.158.083-.008 0-.008.019-.015.028a.121.121 0 0 1 -.107.054c-.029 0-.058 0-.087 0a.072.072 0 0 0 -.072.038.076.076 0 0 1 -.075.033c-.021 0-.041 0-.06 0-.07 0-.1.054-.149.085-.015.01-.028.025-.044.029a.448.448 0 0 0 -.2.095c-.017.014-.035.026-.052.039s-.019.024-.03.025a.264.264 0 0 0 -.153.12.057.057 0 0 1 -.029.015.97.97 0 0 1 -.121 0 .065.065 0 0 1 -.045-.023.092.092 0 0 0 -.1-.046.108.108 0 0 1 -.11-.045c-.02-.031-.056-.026-.086-.022a.137.137 0 0 1 -.133-.043.094.094 0 0 0 -.067-.02.1.1 0 0 1 -.1-.056.163.163 0 0 1 -.025-.135c.011-.046 0-.058-.044-.082s-.056-.071-.014-.1a.106.106 0 0 0 .051-.1.061.061 0 0 1 0-.012c.066-.061.129-.117.19-.177a.085.085 0 0 0 .019-.053.081.081 0 0 1 .05-.081c.041-.022.091-.04.1-.1.062-.026.054-.085.073-.134a.186.186 0 0 1 .179-.1.062.062 0 0 0 .068-.025.381.381 0 0 1 .092-.082.116.116 0 0 1 .064-.011h.276a.111.111 0 0 0 .1-.045.125.125 0 0 1 .062-.032.832.832 0 0 1 .1-.02c.035-.006.071-.012.106-.016a.271.271 0 0 0 .138-.044.165.165 0 0 1 .081-.025c.091-.007.184-.007.276-.011.047 0 .095-.011.142-.018a.019.019 0 0 0 .011-.007c.028-.046.075-.041.12-.043a.6.6 0 0 0 .292-.058.294.294 0 0 1 .118-.019.46.46 0 0 1 .157-.021.033.033 0 0 0 .029-.011c.017-.032.049-.026.077-.029s.071-.009.107-.009a.189.189 0 0 0 .135-.055.223.223 0 0 1 .25-.065.135.135 0 0 0 .032 0l.1.011a.363.363 0 0 1 .086-.021.227.227 0 0 0 .184-.089.1.1 0 0 0 .02-.06c0-.108 0-.216-.006-.324 0-.138-.006-.276-.007-.414a.07.07 0 0 1 .016-.047.121.121 0 0 0 .029-.1c0-.046-.009-.1.048-.125.016-.009.023-.041.027-.063a.09.09 0 0 1 .054-.067c.054-.029.121-.038.158-.093a.049.049 0 0 1 .024-.013.645.645 0 0 0 .148-.072.284.284 0 0 0 .131-.106.071.071 0 0 1 .05-.026 1.445 1.445 0 0 1 .321-.007.068.068 0 0 1 .042.018.145.145 0 0 0 .117.037l.309.007c.031 0 .059 0 .075.033 0 .007.013.017.02.016.045 0 .052.04.079.057.062.042.068.114.11.165.008.01.011.028.022.032.058.023.05.073.05.117a.115.115 0 0 0 .045.114.064.064 0 0 1 .017.04c0 .045.007.091.007.136v.531c0 .075.017.093.092.093h.1a.7.7 0 0 1 .19.035 1.771 1.771 0 0 0 .307.012 1.234 1.234 0 0 1 .321.013h.047a.246.246 0 0 1 .146.028.281.281 0 0 0 .124.023.269.269 0 0 1 .132.04.245.245 0 0 0 .1.028.46.46 0 0 1 .18.047.274.274 0 0 0 .11.025.537.537 0 0 1 .168.041.335.335 0 0 0 .1.021c.048.006.1.007.147.011a.123.123 0 0 1 .057.016.3.3 0 0 0 .192.045.2.2 0 0 1 .143.042.159.159 0 0 0 .095.022.2.2 0 0 1 .142.048.109.109 0 0 0 .054.022.418.418 0 0 1 .165.048.22.22 0 0 0 .084.02l.178.027.179.03a.161.161 0 0 1 .063.021.163.163 0 0 0 .113.031.044.044 0 0 1 .027 0c.059.037.134.05.19.088a.363.363 0 0 0 .141.052.1.1 0 0 0 .034 0 .337.337 0 0 1 .27.083c.048.033.109.049.147.1.006.008.023.01.035.014.047.015.058.029.057.075s-.006.069-.009.1a.071.071 0 0 0 .041.075.342.342 0 0 1 .093.08.126.126 0 0 1 .024.077c0 .052-.007.1-.009.155a.058.058 0 0 1 -.055.056.108.108 0 0 0 -.1.059s0 .005 0 0c-.073 0-.112.07-.18.081a.237.237 0 0 0 -.047.02.237.237 0 0 1 -.051.021.07.07 0 0 0 -.059.1c.013.055.01.062-.049.07a.123.123 0 0 0 -.089.05.361.361 0 0 1 -.068.071.084.084 0 0 1 -.041.019.873.873 0 0 1 -.094.008.061.061 0 0 1 -.032-.008.714.714 0 0 0 -.38-.073.072.072 0 0 1 -.058-.025c-.128-.128-.083-.109-.271-.111a.489.489 0 0 0 -.061.005.078.078 0 0 1 -.071-.027c-.008-.01-.016-.026-.026-.028-.1-.019-.178-.113-.289-.117-.042-.035-.1-.026-.146-.041a.221.221 0 0 1 -.068-.027.228.228 0 0 0 -.146-.036.776.776 0 0 1 -.159-.013c-.021 0-.04-.025-.058-.04a.444.444 0 0 1 -.041-.04c-.034.016-.06.029-.085.038a.072.072 0 0 1 -.086-.014.044.044 0 0 0 -.036-.013c-.064.024-.109-.018-.155-.041a.738.738 0 0 0 -.156-.057.532.532 0 0 1 -.085-.035c-.021-.008-.041-.018-.062-.025s-.072-.022-.108-.035a.158.158 0 0 0 -.122.007.218.218 0 0 1 -.057.017 1.476 1.476 0 0 0 -.225.028c-.053.014-.1.052-.153.066-.01 0-.015.029-.017.046a.1.1 0 0 1 -.046.082.119.119 0 0 0 -.028.034c-.015.023-.029.048-.043.072a.146.146 0 0 0 -.022.046.084.084 0 0 1 -.038.064.09.09 0 0 0 -.028.055c-.01.048-.008.1-.059.131-.01.006-.011.027-.015.041a.53.53 0 0 1 -.052.159 1.847 1.847 0 0 1 -.119.186s0 0 0 .005c-.007.065-.064.105-.091.161a1.767 1.767 0 0 1 -.088.158c-.006.01-.022.013-.032.023a1.016 1.016 0 0 0 -.069.076.691.691 0 0 1 -.054.073.8.8 0 0 0 -.165.247 1.569 1.569 0 0 1 -.092.159c-.02.031-.059.052-.085.08a.6.6 0 0 0 -.083.108.554.554 0 0 1 -.113.15.061.061 0 0 0 -.007.1.3.3 0 0 0 .079.057.4.4 0 0 1 .105.066.545.545 0 0 0 .105.068.428.428 0 0 1 .164.166.06.06 0 0 0 .021.024c.054.03.11.056.162.089.034.022.057.061.09.085a.52.52 0 0 0 .2.122.2.2 0 0 1 .061.036c.06.037.119.076.178.113.01.006.018.016.028.018.065.013.1.065.155.1.032.02.066.033.1.051.015.008.028.02.042.03s.041.031.063.045a.511.511 0 0 1 .169.148.063.063 0 0 0 .039.028.968.968 0 0 1 .286.106c.013.007.029.009.043.016l.092.05c.052.029.1.059.158.083.036.015.081.011.105.049a.029.029 0 0 0 .025.008.172.172 0 0 1 .133.052 1.029 1.029 0 0 0 .2.107.763.763 0 0 1 .118.058.8.8 0 0 0 .223.1c.017.006.034.008.051.013a.1.1 0 0 1 .039.02.149.149 0 0 0 .091.049c.074.019.092.044.091.12a.081.081 0 0 0 .064.094 1.039 1.039 0 0 1 .165.068c.052.032.113.041.163.069.068.04.147.051.213.089.006 0 .012.008.018.008a.409.409 0 0 1 .192.062 1.092 1.092 0 0 1 .106.054s.008.006.011.007c.083.009.142.07.217.1a.14.14 0 0 1 .035.018.351.351 0 0 0 .109.047.352.352 0 0 1 .119.053.352.352 0 0 0 .168.072.1.1 0 0 1 .051.015.8.8 0 0 0 .143.076 2.137 2.137 0 0 0 .246.1c.02.007.037.022.057.031a.515.515 0 0 0 .08.031.1.1 0 0 1 .072.048c.015.024.047.037.071.055a.391.391 0 0 0 .233.042c.017 0 .044 0 .052.005.051.054.128.044.188.072a.037.037 0 0 0 .019.006.183.183 0 0 1 .127.027.457.457 0 0 0 .138.02c.066.009.131.024.2.029.183.014.365.028.546.036.143.006.287 0 .429 0h.261c.038 0 .075.009.114.008.079 0 .159-.009.239-.01.244 0 .487 0 .731-.006.1 0 .195-.012.293-.019a.075.075 0 0 1 .026 0c.022.007.053 0 .06.032s-.018.035-.035.049a.144.144 0 0 1 -.108.043c-.034 0-.049.02-.051.047a.226.226 0 0 1 -.1.159.074.074 0 0 0 -.021.024.2.2 0 0 1 -.185.1.979.979 0 0 0 -.274.076c-.039.014-.047.037-.036.078s.021.066.031.1l.011.048m-16.141-1.111c-.009 0-.028.006-.032.017a.048.048 0 0 0 0 .04.145.145 0 0 0 .032.048.063.063 0 0 0 .089-.006.054.054 0 0 0 -.021-.077.461.461 0 0 0 -.07-.021m4.493-4.415c.043.006.058-.011.066-.034a.029.029 0 0 0 -.011-.026.032.032 0 0 0 -.029 0 .319.319 0 0 0 -.026.056" transform="translate(-22.543 -122.102)"/><path d="m135.768 168.054c.011-.087.023-.174.032-.261.014-.109.029-.22.037-.329.01-.136.011-.273.02-.409 0-.076.014-.151.02-.227a.215.215 0 0 0 0-.071.425.425 0 0 1 -.007-.21 1.752 1.752 0 0 0 .009-.254.036.036 0 0 0 -.015-.029c-.045-.033-.036-.079-.035-.123.007-.1.014-.21.021-.314a.592.592 0 0 1 .011-.065c0-.019.008-.038.01-.057a.123.123 0 0 1 .128-.126.2.2 0 0 0 .116-.039.826.826 0 0 1 .134-.069.086.086 0 0 1 .053-.005c.061.013.121.03.181.047a.27.27 0 0 1 .15.08.059.059 0 0 0 .028.02.138.138 0 0 1 .089.1.292.292 0 0 1 .024.165.6.6 0 0 0 -.019.126v.268a.165.165 0 0 0 .032.087.078.078 0 0 1 0 .1c-.009.015-.019.031-.027.046a.071.071 0 0 0 0 .083.075.075 0 0 1 0 .082.314.314 0 0 0 -.021.091c-.005.061-.01.124-.009.187a.363.363 0 0 0 .021.1c.025.083.075.1.146.047.038-.026.075-.054.114-.077a.573.573 0 0 1 .083-.03s.01 0 .013 0a2.448 2.448 0 0 0 .228-.1.974.974 0 0 0 .125-.1.089.089 0 0 1 .051-.019.393.393 0 0 0 .2-.09.216.216 0 0 1 .053-.03.228.228 0 0 0 .144-.1.079.079 0 0 1 .069-.035.2.2 0 0 0 .093-.022.765.765 0 0 1 .248-.084l.04-.011a.063.063 0 0 0 .05-.057.184.184 0 0 1 .125-.141.164.164 0 0 0 .057-.035c.031-.028.058-.057.086-.087a.3.3 0 0 0 .1-.179.238.238 0 0 1 .028-.068.611.611 0 0 0 .04-.092.105.105 0 0 1 .049-.07l.171-.125c.015-.01.033-.024.048-.022a.152.152 0 0 0 .1-.027.18.18 0 0 1 .164-.021.159.159 0 0 0 .115 0 .422.422 0 0 1 .144-.022c.085 0 .172.007.257.011a.151.151 0 0 1 .1.035.105.105 0 0 0 .035.02 1.329 1.329 0 0 1 .265.144.159.159 0 0 0 .072.019.323.323 0 0 1 .136.045c.059.038.124.068.184.105a.919.919 0 0 1 .1.081c.035.032.067.068.1.1a.083.083 0 0 1 .035.068.487.487 0 0 1 0 .094.132.132 0 0 1 -.035.077c-.053.037-.042.085-.037.133a.473.473 0 0 1 .008.053c-.006.066-.02.081-.091.083a.238.238 0 0 0 -.205.145.143.143 0 0 1 -.028.046 1.022 1.022 0 0 1 -.231.161.317.317 0 0 0 -.119.086.352.352 0 0 1 -.2.12.128.128 0 0 0 -.034.008c-.092.049-.185.1-.276.149a.071.071 0 0 0 -.033.048.083.083 0 0 1 -.054.071.038.038 0 0 0 -.019.017.259.259 0 0 1 -.169.11c-.035.009-.065.032-.1.044a.4.4 0 0 1 -.106.023.274.274 0 0 0 -.2.082.13.13 0 0 1 -.041.023c-.012.006-.031.008-.037.016-.027.05-.077.045-.122.044a.317.317 0 0 0 -.193.041.1.1 0 0 1 -.053.012.207.207 0 0 0 -.1.047.353.353 0 0 1 -.174.093.043.043 0 0 0 -.031.011c-.036.044-.092.036-.137.055a.954.954 0 0 1 -.238.066.441.441 0 0 0 -.093.027c-.036.013-.073.028-.11.041s-.079.02-.119.03c0 0-.009 0-.014 0s-.043 0-.053.013c-.058.062-.163.033-.214.113a.675.675 0 0 1 -.225.187c-.01.008-.023.015-.033.023a.055.055 0 0 0 -.019.072.151.151 0 0 0 .079.09.419.419 0 0 1 .147.122.365.365 0 0 0 .123.115c.022.009.033.042.05.062a.44.44 0 0 0 .085.095 1.074 1.074 0 0 0 .2.141.192.192 0 0 1 .068.063c.039.05.07.1.147.111.019 0 .037.023.054.037.048.041.086.1.158.1a.052.052 0 0 1 .03.017 1.568 1.568 0 0 1 .2.223.1.1 0 0 0 .042.033c.04.022.082.041.123.062a.307.307 0 0 1 .036.029c.009.007.016.019.025.021a.677.677 0 0 1 .172.087.208.208 0 0 1 .039.027c.009.007.015.022.024.023.1.005.14.1.217.131.012.005.024.02.035.02.09 0 .143.068.21.11a.383.383 0 0 0 .089.046.386.386 0 0 1 .188.1.171.171 0 0 0 .052.032.6.6 0 0 1 .139.074.4.4 0 0 0 .138.071.692.692 0 0 1 .148.087.452.452 0 0 0 .167.061.541.541 0 0 1 .062.024.12.12 0 0 0 .03.014c.08.012.16.025.24.035a.081.081 0 0 1 .059.029.092.092 0 0 0 .085.037.111.111 0 0 1 .1.043.076.076 0 0 0 .047.024c.029.006.06.007.09.01a.217.217 0 0 1 .081.012c.12.068.26.035.385.071h.034a1.358 1.358 0 0 0 .418.061.255.255 0 0 1 .191.061c.013.014.046.013.071.013h.186.02c.069-.052.156-.029.234-.04a1.168 1.168 0 0 1 .22 0 2.673 2.673 0 0 0 .432-.006h.063a.225.225 0 0 0 .12-.021.166.166 0 0 1 .074-.017c.109-.006.219-.006.327-.012s.194-.021.29-.032c.008 0 .017 0 .02-.006.057-.062.138-.039.208-.055a.4.4 0 0 0 .1-.036.172.172 0 0 1 .109-.034.151.151 0 0 0 .042 0 2.278 2.278 0 0 0 .236-.058c.065-.023.133-.035.2-.053a.553.553 0 0 0 .145-.079c.03-.021.051-.024.078 0a.686.686 0 0 0 .063.054c-.017.018-.032.032-.046.049s-.036.038-.039.059a.406.406 0 0 1 -.038.085.144.144 0 0 1 -.128.1.062.062 0 0 0 -.057.052.064.064 0 0 1 -.065.058.075.075 0 0 0 -.078.083.056.056 0 0 1 -.05.062c-.018 0-.032.023-.048.037s-.037.025-.053.04a.267.267 0 0 0 -.043.041c-.04.054-.074.112-.158.108a.059.059 0 0 0 -.062.052.1.1 0 0 0 -.006.04c.022.1-.05.143-.123.185a.164.164 0 0 0 -.034.023.429.429 0 0 1 -.08.062 2.2 2.2 0 0 1 -.209.117.212.212 0 0 0 -.093.067.144.144 0 0 1 -.086.051.351.351 0 0 0 -.148.073.148.148 0 0 1 -.048.027.673.673 0 0 0 -.185.1.808.808 0 0 1 -.1.048c-.092.048-.181.1-.277.145a1.363 1.363 0 0 1 -.33.134 1.326 1.326 0 0 0 -.157.037c-.017.006-.04.013-.046.027a.111.111 0 0 1 -.12.062.251.251 0 0 0 -.191.09.121.121 0 0 1 -.046.028c-.041.01-.089.006-.107.057 0 0-.008.006-.011.007l-.156.07s-.009 0-.012.005c-.048.062-.12.048-.186.052-.021 0-.047 0-.063 0a.526.526 0 0 1 -.338.033 1.9 1.9 0 0 1 -.221-.051.1.1 0 0 0 -.071.006.275.275 0 0 1 -.19.05.337.337 0 0 1 -.2-.051.463.463 0 0 0 -.167-.042.116.116 0 0 1 -.086-.048 1.66 1.66 0 0 1 -.112-.134.21.21 0 0 0 -.145-.085.248.248 0 0 1 -.069-.041c-.055-.035-.085-.1-.157-.116a.678.678 0 0 0 -.216-.115.288.288 0 0 1 -.045-.032s-.007-.014-.011-.015c-.064-.014-.105-.064-.162-.089a.145.145 0 0 1 -.049-.023.767.767 0 0 0 -.219-.127l-.082-.048a.123.123 0 0 0 -.036-.02c-.1-.02-.155-.1-.229-.152a.1.1 0 0 0 -.06-.024.123.123 0 0 1 -.093-.039.263.263 0 0 0 -.056-.034.761.761 0 0 1 -.244-.158c-.012-.013-.019-.032-.031-.045s-.043-.056-.072-.067a.185.185 0 0 1 -.085-.065.344.344 0 0 0 -.056-.05c-.009-.007-.023-.01-.028-.02a.642.642 0 0 0 -.188-.156.827.827 0 0 1 -.127-.139l-.1-.11c-.069-.074-.138-.15-.209-.223a.292.292 0 0 0 -.066-.05.552.552 0 0 1 -.136-.128 1.214 1.214 0 0 0 -.111-.089c-.06-.051-.12-.1-.176-.158a2.164 2.164 0 0 0 -.274-.265.1.1 0 0 1 -.039-.054.584.584 0 0 0 -.182-.253.991.991 0 0 1 -.182-.18s0-.009-.009-.01c-.067-.021-.064-.074-.062-.125a.343.343 0 0 0 -.035-.154 1.671 1.671 0 0 1 -.063-.226.45.45 0 0 0 -.039-.084c0-.01-.013-.018-.016-.029a.966.966 0 0 0 -.1-.225.426.426 0 0 1 -.048-.2.21.21 0 0 0 -.03-.095.106.106 0 0 1 -.016-.083.116.116 0 0 0 .006-.04c-.006-.1-.01-.2-.02-.293 0-.023-.025-.046-.038-.066" transform="translate(-104.702 -127.52)"/><path d="m103.535 167.948c.006-.061.01-.131.021-.2a.606.606 0 0 1 .037-.129.272.272 0 0 0 .016-.2.141.141 0 0 1 0-.092.227.227 0 0 0 0-.146.207.207 0 0 1 -.015-.092c.01-.071.028-.141.042-.211a.808.808 0 0 0 .014-.107c0-.093.008-.185.008-.278a.175.175 0 0 0 -.031-.122.047.047 0 0 1 0-.044c.058-.06.028-.127.009-.184a.457.457 0 0 1 -.028-.212 1.187 1.187 0 0 0 -.008-.317 1.02 1.02 0 0 1 .015-.3.1.1 0 0 0 -.007-.058.064.064 0 0 0 -.1-.02.842.842 0 0 0 -.183.181.228.228 0 0 0 -.026.07.273.273 0 0 1 -.088.126.243.243 0 0 0 -.1.175.189.189 0 0 1 -.094.157.087.087 0 0 0 -.043.093.2.2 0 0 1 -.086.194c-.025.02-.044.046-.067.068-.051.055-.1.109-.157.162a1.16 1.16 0 0 1 -.1.091.608.608 0 0 1 -.249.1c-.009 0-.019 0-.027.005-.031.015-.033.063-.078.06a.139.139 0 0 0 -.094.035.26.26 0 0 1 -.092.02l-.093.02-.047.01s-.005 0-.005 0a.874.874 0 0 1 -.115.034.2.2 0 0 0 -.1.054.177.177 0 0 1 -.1.03c-.028 0-.049-.028-.05-.06a.213.213 0 0 0 0-.041c-.007-.026-.023-.048-.055-.036a.057.057 0 0 1 -.067-.023c-.056-.061-.112-.123-.167-.186-.009-.011-.008-.031-.014-.045-.016-.039-.033-.078-.05-.117a.121.121 0 0 1 -.018-.036c-.008-.069-.014-.138-.02-.207 0-.011.006-.025 0-.033-.061-.081-.036-.174-.044-.263 0-.038-.009-.075-.013-.114a.16.16 0 0 1 0-.033c.006-.061.015-.12.021-.181a.12.12 0 0 1 .043-.088.106.106 0 0 0 .04-.1.123.123 0 0 1 .051-.122c.041-.036.1-.074.095-.142a.028.028 0 0 1 .009-.017.27.27 0 0 0 .076-.134c.005-.018.034-.034.056-.044a.25.25 0 0 0 .137-.152.153.153 0 0 1 .039-.054.325.325 0 0 0 .113-.133.039.039 0 0 1 .023-.023c.058-.015.093-.065.14-.1l.073-.051a.452.452 0 0 0 .118-.1.286.286 0 0 1 .163-.125c.008 0 .014-.011.021-.016a1.327 1.327 0 0 1 .213-.135.432.432 0 0 0 .083-.061.355.355 0 0 1 .134-.083.024.024 0 0 0 .017-.011.19.19 0 0 1 .148-.074.084.084 0 0 0 .044-.018 1.645 1.645 0 0 1 .3-.16.063.063 0 0 1 .034-.008.119.119 0 0 0 .094-.035c.012-.012.034-.014.051-.023s.056-.032.083-.046a.151.151 0 0 1 .043-.022.21.21 0 0 0 .1-.049.161.161 0 0 1 .05-.021h.02a.615.615 0 0 1 .2-.067l.113-.032a.173.173 0 0 0 .048-.012.445.445 0 0 1 .213-.054c.012 0 .028 0 .033-.008.045-.06.122-.049.181-.08a.272.272 0 0 1 .1-.017c.073-.006.147-.007.222-.012a.1.1 0 0 0 .051-.017.216.216 0 0 1 .126-.034c.1-.006.2-.008.3-.009a.527.527 0 0 1 .143.009.312.312 0 0 0 .183-.015.461.461 0 0 1 .134-.028c.172 0 .344 0 .516.01.048 0 .1.016.144.022h.089a.182.182 0 0 1 .081.015.355.355 0 0 0 .2.051.083.083 0 0 1 .075.04.066.066 0 0 1 -.011.087.611.611 0 0 1 -.209.133.422.422 0 0 0 -.117.069.992.992 0 0 1 -.2.136.544.544 0 0 1 -.174.036.191.191 0 0 0 -.072.03c-.062.032-.11.087-.189.09a.193.193 0 0 0 -.127.046.112.112 0 0 1 -.072.017.146.146 0 0 0 -.091.028.665.665 0 0 1 -.246.107.6.6 0 0 0 -.131.061.406.406 0 0 1 -.041.024.8.8 0 0 0 -.2.12c-.065.046-.129.093-.194.137a.066.066 0 0 1 -.032.013.234.234 0 0 0 -.136.075c-.042.033-.081.067-.124.1a.133.133 0 0 0 -.068.145 1.44 1.44 0 0 1 0 .256 1.269 1.269 0 0 0 .019.3.416.416 0 0 1 -.007.139c-.006.058-.014.116-.015.174 0 .02.015.04.019.061.008.043.011.087.019.131a.316.316 0 0 1 -.034.178.467.467 0 0 0 -.015.106.03.03 0 0 0 .007.025c.055.049.035.118.052.176.006.021.011.043.016.064.01.049.021.1.028.146a.081.081 0 0 1 -.007.045.359.359 0 0 0 0 .32.086.086 0 0 1 .01.039v.271s0 .17.012.254a1.084 1.084 0 0 0 .028.135.053.053 0 0 1 0 .033.664.664 0 0 0 -.059.323 1.671 1.671 0 0 0 -.006.216.8.8 0 0 0 .034.135.648.648 0 0 1 0 .308s0 .01 0 .013c-.069.063-.055.149-.064.228-.013.1-.016.2-.025.3a.23.23 0 0 1 -.026.091.245.245 0 0 0 -.044.112.044.044 0 0 1 -.012.03c-.073.043-.072.123-.1.187a.142.142 0 0 1 -.046.073.113.113 0 0 0 -.031.043c-.015.031-.022.065-.058.081a.023.023 0 0 0 -.012.016c0 .068-.048.116-.076.172a.619.619 0 0 1 -.155.186c-.042.036-.075.079-.115.117s-.079.068-.119.1l-.089.073a.123.123 0 0 0 -.013.016c-.032.041-.088.028-.125.05s-.063.068-.119.062a.046.046 0 0 0 -.033.006c-.038.026-.071.055-.11.079s-.066.031-.1.047a.729.729 0 0 0 -.083.046.421.421 0 0 1 -.26.107c-.071 0-.11.048-.149.088a2.16 2.16 0 0 1 -.2.187c-.021.017-.037.039-.058.057a.559.559 0 0 1 -.187.087c-.038.015-.07.043-.106.06-.064.029-.109.092-.185.1a.044.044 0 0 0 -.031.013.119.119 0 0 1 -.1.047.028.028 0 0 0 -.019.008c-.04.052-.1.044-.157.055a.369.369 0 0 0 -.075.031l-.049.023-.085.039a.171.171 0 0 1 -.046.015c-.06 0-.12.01-.18.01a.143.143 0 0 0 -.121.038.046.046 0 0 1 -.024.013.994.994 0 0 1 -.3.044.544.544 0 0 1 -.127-.033.44.44 0 0 0 -.24-.013.735.735 0 0 1 -.274-.012.253.253 0 0 1 -.088-.017.874.874 0 0 0 -.158-.071c-.008 0-.01-.019-.015-.028a1.044 1.044 0 0 0 -.051-.093.076.076 0 0 0 -.044-.016.249.249 0 0 0 -.055 0c-.071.005-.069 0-.081-.064a.148.148 0 0 0 -.034-.071.1.1 0 0 1 -.028-.066 1.221 1.221 0 0 1 .024-.314.07.07 0 0 1 .008-.025.334.334 0 0 0 .062-.243 1.582 1.582 0 0 1 .006-.162.194.194 0 0 1 .026-.069c.009-.016.028-.028.031-.044.019-.087.088-.141.135-.209a.11.11 0 0 1 .035-.03.424.424 0 0 1 .067-.044 1.156 1.156 0 0 1 .167-.063.6.6 0 0 0 .189-.062.447.447 0 0 1 .14-.055.653.653 0 0 1 .131-.005l.173-.006a.125.125 0 0 0 .089-.033.09.09 0 0 1 .049-.022.1.1 0 0 0 .085-.05c.007-.012.037-.018.055-.018a.138.138 0 0 0 .1-.035.051.051 0 0 1 .024-.014c.078-.01.127-.071.194-.1l.119-.052a.476.476 0 0 0 .057-.033.628.628 0 0 1 .082-.048c.057-.024.116-.044.175-.065.006 0 .012-.008.018-.008.077 0 .131-.052.2-.08a.073.073 0 0 0 .032-.024.073.073 0 0 1 .068-.037.065.065 0 0 0 .061-.046.094.094 0 0 1 .089-.074.039.039 0 0 0 .02-.006l.168-.1a.289.289 0 0 1 .1-.052.283.283 0 0 0 .169-.1.819.819 0 0 1 .2-.124c.037-.021.081-.03.12-.049a.131.131 0 0 0 .051-.05c.021-.038.038-.078.087-.089a.067.067 0 0 0 .025-.022.424.424 0 0 1 .072-.081.732.732 0 0 0 .159-.144.165.165 0 0 0 .029-.052.138.138 0 0 1 .051-.077c.055-.044.107-.091.167-.144" transform="translate(-77.571 -125.72)"/><path d="m183.7 159.34c.049.025.1-.006.149-.009a.657.657 0 0 0 .092-.016.186.186 0 0 0 .084-.022.256.256 0 0 1 .173-.04h.23c.188 0 .377-.008.566-.007.087 0 .175.014.264.018a1.027 1.027 0 0 0 .113-.008c.029 0 .059 0 .088-.006a.183.183 0 0 1 .1.017.343.343 0 0 0 .2.029 2.227 2.227 0 0 1 .23-.008.5.5 0 0 0 .162-.037 1.069 1.069 0 0 1 -.038-.466c0-.063.006-.127.008-.189a.041.041 0 0 1 .035-.043.84.84 0 0 1 .094-.011c.056 0 .064-.013.061-.067a.126.126 0 0 1 .071-.108.094.094 0 0 0 .058-.049.28.28 0 0 1 .059-.062.04.04 0 0 1 .061 0 .171.171 0 0 0 .112.039c.049.006.1 0 .138.044a.008.008 0 0 0 .007 0 1.013 1.013 0 0 0 .227.022 2.366 2.366 0 0 1 .251 0 .158.158 0 0 1 .107.063.065.065 0 0 0 .061.018c.035-.005.072-.009.108-.011a.171.171 0 0 1 .1.032.242.242 0 0 0 .2.064c.009.032.019.061.027.09a.093.093 0 0 0 .05.066.5.5 0 0 1 .059.044.05.05 0 0 1 .016.069.126.126 0 0 0 -.009.062.332.332 0 0 0 .07.207c.02.028.044.053.04.087a.326.326 0 0 1 -.044.188c-.013.016-.022.035 0 .053s.063.016.072-.005c.02-.047.06-.041.1-.042h.184.244a.147.147 0 0 1 .047 0 .775.775 0 0 0 .333.044 2.78 2.78 0 0 1 .312.012.286.286 0 0 1 .113.041.122.122 0 0 0 .077.018 1.81 1.81 0 0 1 .188-.017.541.541 0 0 1 .213.019.421.421 0 0 0 .146.01h.148a.07.07 0 0 1 .045.013.156.156 0 0 0 .113.037h.074a.146.146 0 0 1 .136.06c.032-.008.06-.025.093-.011.01 0 .025-.007.037-.01s.024-.009.03 0c.03.023.054.007.079-.009a.176.176 0 0 0 .1.025c.088 0 .175.024.261.036.007 0 .013.007.02.006a.2.2 0 0 1 .176.076.159.159 0 0 0 .111.057c.015 0 .033.024.04.041a.062.062 0 0 0 .058.046.512.512 0 0 1 .092.036.286.286 0 0 0 .037.017.442.442 0 0 1 .186.115c.012.009.029.023.039.021a.426.426 0 0 1 .154.02.069.069 0 0 1 .066.07.521.521 0 0 0 .069.209.233.233 0 0 1 .009.2c0 .012-.023.021-.036.027a.084.084 0 0 0 -.052.085v.059c0 .068-.03.109-.1.116a.211.211 0 0 0 -.174.105c-.008.013-.027.021-.043.03s-.047.03-.074.044a.6.6 0 0 1 -.1-.019.549.549 0 0 1 -.109-.052.159.159 0 0 0 -.182 0 .376.376 0 0 0 -.056.091.366.366 0 0 0 -.064.036c-.057.047-.07.05-.149.022a.417.417 0 0 1 .033-.033.408.408 0 0 1 .04-.023c-.009-.018-.011-.04-.024-.051a.129.129 0 0 0 -.062-.025c-.028 0-.052.031-.062.082-.04.016-.056-.015-.069-.031-.07-.005-.132-.008-.193-.014a.219.219 0 0 1 -.061-.025c-.033-.014-.061-.04-.1-.027a.025.025 0 0 1 -.019 0c-.035-.02-.057-.056-.112-.048-.035.005-.074-.026-.114-.036a.522.522 0 0 0 -.1-.013c-.027 0-.053 0-.07-.025a.07.07 0 0 0 -.041-.022.492.492 0 0 0 -.114-.014.479.479 0 0 1 -.2-.048c-.017-.007-.029-.019-.045-.028s-.03-.02-.042-.017a.3.3 0 0 1 -.079-.006 1.122 1.122 0 0 0 -.135.014c-.009 0-.019.006-.026 0-.055-.017-.109-.037-.169-.055a.168.168 0 0 1 -.157.035.982.982 0 0 0 -.371-.005.515.515 0 0 1 -.221-.021.506.506 0 0 0 -.254 0 .25.25 0 0 1 -.146 0 .246.246 0 0 0 -.1-.016c-.07 0-.14 0-.209 0h-.252-.135-.305c-.079 0-.158 0-.237 0a3.275 3.275 0 0 0 -.353.009c-.078.01-.14-.029-.212-.028-.011 0-.024-.006-.032 0-.085.044-.174.012-.261.015-.008 0-.019-.005-.027 0a.08.08 0 0 1 -.088-.037l-.052.037h-.018c-.014-.005-.025-.024-.046-.005s-.054.013-.077-.018c-.028.021-.056.034-.088 0a.034.034 0 0 0 -.03 0c-.029.025-.051-.005-.083 0a.087.087 0 0 1 -.1.04 1.55 1.55 0 0 0 -.182.013c-.09 0-.181 0-.271 0-.041 0-.081.006-.122.008a.282.282 0 0 1 -.088 0 .574.574 0 0 0 -.262.01.367.367 0 0 0 -.167.048c-.007.006-.021 0-.033 0a.3.3 0 0 0 -.153.02c-.053.018-.108.024-.16.046a.482.482 0 0 1 -.214.016.168.168 0 0 0 -.089.019.994.994 0 0 1 -.192.081c-.009 0-.019.007-.025 0-.059-.032-.109.01-.165.01-.013 0-.026.009-.039.008a.111.111 0 0 0 -.125.083c0 .014-.021.024-.032.035a.283.283 0 0 0 .049.03.348.348 0 0 1 .2.293.731.731 0 0 1 0 .247c-.006.043.008.087.006.131a1.184 1.184 0 0 1 -.032.345s0 .009 0 .012c.029.049 0 .09-.017.135a.382.382 0 0 1 -.062.13.061.061 0 0 0 -.007.026l.167.054a.351.351 0 0 0 .056-.041.278.278 0 0 1 .213-.08.082.082 0 0 0 .047-.008.606.606 0 0 1 .226-.06c.013 0 .031 0 .038-.009a.357.357 0 0 1 .163-.057.222.222 0 0 0 .117-.047.136.136 0 0 1 .056-.021c.036-.01.079 0 .1-.038a.015.015 0 0 1 .012-.005.687.687 0 0 0 .226-.049 1.033 1.033 0 0 1 .114-.008c.093-.016.185-.038.279-.053a.9.9 0 0 1 .114-.006.288.288 0 0 0 .053 0c.083-.015.164-.033.245-.049a.076.076 0 0 1 .027 0 .07.07 0 0 0 .084-.042.1.1 0 0 0 .081.007.531.531 0 0 1 .161-.019 1.425 1.425 0 0 0 .343-.041.276.276 0 0 1 .147-.01.24.24 0 0 0 .067-.006c.133-.009.267-.022.4-.024h.612a2.117 2.117 0 0 1 .216.01c.043 0 .082.025.124.031.067.01.136.017.2.021a.48.48 0 0 1 .181.042.4.4 0 0 0 .106.022 1.15 1.15 0 0 0 .335.037.078.078 0 0 1 .034 0 .287.287 0 0 1 .041.013v.067c.021.012.043.034.064-.005a.037.037 0 0 1 .027-.012h.262a.255.255 0 0 1 .1.041.23.23 0 0 1 .094.01c.054.02.11.031.164.056a.429.429 0 0 0 .158.023.125.125 0 0 1 .1.038l.061-.022c.024.033.059.027.1.027s.1.013.148.015c.1 0 .207 0 .311.007a.9.9 0 0 1 .133.022.792.792 0 0 0 .1.026c.141.006.281.009.42.011.092 0 .183-.006.273 0a.479.479 0 0 1 .111.035c.009 0 .018.013.024.011.078-.02.155.015.236 0a2.4 2.4 0 0 1 .286-.013c.04 0 .08.005.119.007a.1.1 0 0 0 .046-.006.056.056 0 0 1 .057-.006.034.034 0 0 0 .026 0 .813.813 0 0 1 .335-.051.067.067 0 0 1 .061.034.176.176 0 0 0 .038.034.4.4 0 0 1 .075-.061.473.473 0 0 1 .094-.017.116.116 0 0 0 .056-.021c.057-.065.126-.044.2-.037a.24.24 0 0 1 -.09.246c-.026.02-.054.037-.079.058-.009.006-.011.018-.014.028s-.009.038-.014.058a.078.078 0 0 1 -.082.064.487.487 0 0 0 -.061.007.048.048 0 0 0 -.043.045c-.006.084-.074.12-.137.155a.178.178 0 0 0 -.061.049c-.015.019-.034.034-.05.052l-.035.038a.286.286 0 0 1 -.04.043.092.092 0 0 0 -.047.076.185.185 0 0 1 -.056.118.139.139 0 0 0 -.043.132.11.11 0 0 1 -.063.129c-.023.013-.041.036-.064.049a.329.329 0 0 1 -.088.033c-.053.011-.059.014-.071.062-.005.02-.011.04-.019.066l-.036-.022c-.041-.029-.047-.028-.087 0a.143.143 0 0 1 -.046.024.379.379 0 0 0 -.148.07.489.489 0 0 1 -.1.058.176.176 0 0 1 -.125 0 .355.355 0 0 0 -.17.012.282.282 0 0 1 -.258-.025.13.13 0 0 0 -.09-.024 1.183 1.183 0 0 1 -.121 0c-.02-.037-.025-.078-.068-.09-.006 0-.006-.022-.009-.038a.1.1 0 0 1 -.124 0c-.033-.019-.079-.015-.1-.055 0-.006-.017-.007-.026-.008a.43.43 0 0 1 -.247-.1c-.06 0-.094-.055-.148-.069l-.156-.042a.162.162 0 0 1 -.025-.008.488.488 0 0 0 -.268-.051c-.044-.027-.107.014-.14-.048-.033.033-.059.021-.094.01a.509.509 0 0 0 -.127-.017.116.116 0 0 1 -.082-.034.238.238 0 0 0 -.1-.03c-.027-.005-.053-.006-.079-.01s-.035-.011-.047-.006c-.043.02-.069 0-.095-.033-.03.016-.059.024-.085-.005a.006.006 0 0 0 -.006 0c-.044.024-.09-.015-.133 0s-.084-.017-.12.015c-.031-.023-.069 0-.1-.01-.05-.017-.092.022-.139.006a.083.083 0 0 1 -.091 0 .246.246 0 0 0 -.094.211v.407.19a.069.069 0 0 1 -.04.063.153.153 0 0 0 -.091.162.859.859 0 0 1 0 .111v.256s0 .2-.007.3a.244.244 0 0 0 0 .059.658.658 0 0 1 0 .226c-.009.076-.014.153-.018.23a.276.276 0 0 1 -.025.1.1.1 0 0 0 0 .116.049.049 0 0 1 0 .043 1.418 1.418 0 0 0 -.038.311c-.013.116.005.231-.006.346a.046.046 0 0 1 0 .025.407.407 0 0 0 -.043.26v.086c0 .072 0 .144-.008.217a.179.179 0 0 1 -.031.1.234.234 0 0 0 -.026.119.623.623 0 0 1 -.04.172.109.109 0 0 1 -.03.048.106.106 0 0 0 -.037.075c-.005.035-.011.069-.017.1 0 .01 0 .028-.01.03-.047.015-.045.055-.054.091a.061.061 0 0 1 -.018.034.275.275 0 0 0 -.112.169c-.015.041-.033.08-.052.12 0 .008-.017.011-.027.017-.036.026-.073.05-.108.078s-.03.033-.008.064a.092.092 0 0 1 .017.05s-.026.012-.042.013-.046 0-.051-.03a.409.409 0 0 0 -.171-.22c-.037-.032-.072-.066-.108-.1s-.084-.069-.124-.1a.124.124 0 0 1 -.031-.041c-.016-.033-.029-.068-.042-.1a.415.415 0 0 1 -.023-.062.193.193 0 0 0 -.065-.139c-.02-.014-.021-.056-.025-.086-.007-.058-.012-.117-.017-.176-.012-.153-.024-.306-.034-.459 0-.022 0-.043 0-.065-.011-.1-.025-.2-.029-.3a1.3 1.3 0 0 1 .013-.177c0-.042.012-.082-.029-.115-.02-.016-.012-.039 0-.058a.109.109 0 0 0 .005-.148c-.032-.044-.032-.047 0-.091a.141.141 0 0 0 .009-.156.1.1 0 0 1 0-.074 1.7 1.7 0 0 0 .021-.207c0-.055 0-.109 0-.164a.143.143 0 0 1 .013-.057.123.123 0 0 0 .005-.136c-.013-.021 0-.055 0-.084 0-.059 0-.118 0-.176 0-.02 0-.039 0-.058 0-.063.009-.126.013-.19a.112.112 0 0 0 -.011-.037c-.006-.032-.014-.064-.022-.1a.6.6 0 0 0 -.021-.1.932.932 0 0 1 -.05-.392c0-.063-.012-.127-.017-.19a.759.759 0 0 0 -.012-.13.278.278 0 0 1 .019-.174.1.1 0 0 0 -.033-.126.2.2 0 0 0 -.031.005.066.066 0 0 1 -.083-.027.072.072 0 0 0 -.075-.033c-.045 0-.09 0-.135 0a.733.733 0 0 1 -.215-.022c-.014 0-.036-.007-.045 0-.039.032-.085.024-.13.029l-.128.016c-.018 0-.035 0-.054 0a.32.32 0 0 0 -.126.011 1 1 0 0 1 -.207.056.853.853 0 0 0 -.115.039.271.271 0 0 1 -.121.035.128.128 0 0 0 -.111.047.377.377 0 0 1 -.135.08c-.028.013-.06.017-.081.046a.079.079 0 0 1 -.041.021l-.124.032-.111.141s0 0 0 0c-.083.036-.125.111-.186.17 0 .005-.01.008 0 0a1.317 1.317 0 0 1 -.04.141c-.019.051-.073.06-.12.076a.109.109 0 0 0 -.05.027.138.138 0 0 1 -.072.03c-.042 0-.086 0-.128 0a.57.57 0 0 0 -.18.018c-.044.019-.089.037-.136.053a.066.066 0 0 0 -.034.053c.017.053-.031.084-.038.129a.416.416 0 0 1 -.024.075c-.009.026-.022.051-.034.076s-.014.023-.019.035a1.433 1.433 0 0 0 -.076.225.068.068 0 0 1 -.033.047c-.035.016-.038.043-.04.075a.671.671 0 0 1 -.023.088c-.007.032-.013.065-.017.1a.171.171 0 0 1 -.064.145c-.015.009-.017.039-.02.06a.452.452 0 0 1 -.021.147.522.522 0 0 0 -.042.2.2.2 0 0 1 -.027.058.34.34 0 0 1 -.022.037c-.019.029-.04.058-.06.085a.189.189 0 0 0 -.022.032.177.177 0 0 1 -.062.1c-.01.006-.013.027-.015.042s0 .057 0 .086v.039c-.07.077-.078.184-.136.266a.8.8 0 0 1 -.087.09c-.01.009-.024.017-.026.028-.011.088-.087.141-.12.217-.006.012-.025.019-.036.029s-.027.026-.04.04 0 .015-.008.017c-.092.047-.138.141-.223.2a.22.22 0 0 1 -.131.061.051.051 0 0 0 -.053.05.138.138 0 0 1 -.075.114 1.215 1.215 0 0 1 -.217.126h-.012a.318.318 0 0 0 -.14.052c-.047.026-.1.044-.145.075a.1.1 0 0 1 -.1.017.045.045 0 0 0 -.036.018c-.013.031-.036.032-.065.038-.073.015-.146.033-.217.054a.319.319 0 0 0 -.058.034c-.01.006-.025.019-.033.016-.05-.015-.079.016-.1.044s-.031.03-.057.017a.024.024 0 0 0 -.019 0c-.049.051-.112.023-.167.028s-.118 0-.177 0a.084.084 0 0 0 -.075.046.17.17 0 0 1 -.168.1c-.084-.006-.167 0-.251 0h-.04l-.149.007c-.035 0-.071.01-.106.016s-.087.04-.136.012h-.007a.559.559 0 0 1 -.209 0c-.033 0-.066-.006-.1-.008l-.264-.016a.119.119 0 0 1 -.033-.006.734.734 0 0 0 -.086-.032.572.572 0 0 0 -.093 0 .122.122 0 0 1 -.141 0 .128.128 0 0 0 -.095-.027.255.255 0 0 1 -.214-.114c-.036-.042-.075-.08-.116-.119a.088.088 0 0 1 -.034-.1.565.565 0 0 0 .012-.137.1.1 0 0 1 .059-.1.151.151 0 0 0 .026-.021c.056-.042.053-.041.016-.1a.276.276 0 0 1 -.043-.182c0-.026.016-.049.047-.048.081 0 .121-.06.174-.1a1.52 1.52 0 0 0 .142-.127.227.227 0 0 1 .121-.052c.05-.01.105-.008.135-.062 0-.009.025-.01.036-.015l.125-.051a.483.483 0 0 1 .052-.01l.131-.031a.6.6 0 0 1 .065-.015c.065-.009.131-.015.195-.026.018 0 .035-.029.05-.027.063.007.114-.036.177-.031a1.712 1.712 0 0 0 .177 0 .316.316 0 0 0 .177-.031.084.084 0 0 1 .037-.013l.187-.022c.047-.005.1 0 .12-.056a.008.008 0 0 1 0 0c.072-.01.117-.07.18-.1a.117.117 0 0 0 .062-.037.068.068 0 0 1 .047-.019h.1c.071 0 .088-.019.086-.086 0-.011 0-.022 0-.031a.293.293 0 0 1 .238-.1.163.163 0 0 0 .064-.016c.036-.012.072-.024.108-.038a.085.085 0 0 0 .042-.029.1.1 0 0 1 .079-.045.145.145 0 0 0 .134-.126.333.333 0 0 1 .148-.21l.041-.034a.566.566 0 0 1 .086-.074c.026-.017.053-.029.065-.061 0-.009.021-.015.032-.022a.216.216 0 0 0 .032-.022.536.536 0 0 1 .131-.132.31.31 0 0 0 .132-.167.29.29 0 0 1 .044-.064s.015-.008.015-.013c.005-.073.086-.112.094-.184a.024.024 0 0 1 0-.013.325.325 0 0 0 .074-.169c0-.021.04-.034.052-.063.03-.075.076-.142.108-.215a.626.626 0 0 0 .034-.144c.006-.034 0-.069.009-.1a.314.314 0 0 1 .022-.06.284.284 0 0 0 .028-.086c0-.148 0-.3.006-.447a.5.5 0 0 1 .029-.213.32.32 0 0 0 .012-.124c0-.039 0-.078.034-.108.011-.008.015-.026.019-.041s.016-.058.055-.069c.012 0 .024-.03.025-.047 0-.053-.005-.1-.007-.157 0-.032 0-.065 0-.1s0-.1 0-.144c0-.1 0-.206 0-.309 0-.059 0-.118 0-.178a.085.085 0 0 0 -.033-.075.131.131 0 0 1 -.032-.07.259.259 0 0 0 -.04-.073.159.159 0 0 0 -.15-.068.15.15 0 0 1 -.086-.032 1.123 1.123 0 0 0 -.152-.072c-.015-.007-.04-.01-.047-.022-.022-.04-.061-.039-.1-.044a.077.077 0 0 0 -.072.026.371.371 0 0 1 -.268.106.139.139 0 0 0 -.13.079.1.1 0 0 1 -.071.062.066.066 0 0 0 -.019.007.394.394 0 0 1 -.222.066.719.719 0 0 1 -.255-.016c-.062-.019-.121-.054-.182-.078a.051.051 0 0 1 -.026-.029 1.46 1.46 0 0 1 -.058-.153.07.07 0 0 1 .013-.048.3.3 0 0 0 .048-.162.116.116 0 0 1 .07-.1c.084-.052.1-.09.048-.171-.02-.031-.012-.053.013-.067a.482.482 0 0 0 .117-.123s.008-.006.008-.009c.009-.1.113-.151.142-.242 0-.014.017-.028.017-.042 0-.1.1-.142.133-.221.049-.023.1-.049.146-.068a.448.448 0 0 1 .093-.02c.043-.006.087-.01.1-.061.079-.037.115-.131.21-.146a.041.041 0 0 0 .022-.016.235.235 0 0 1 .164-.066c.019 0 .044-.007.053-.02a.162.162 0 0 1 .123-.048.1.1 0 0 0 .083-.036.093.093 0 0 1 .057-.027.6.6 0 0 0 .255-.093.31.31 0 0 1 .07-.024c.037-.015.073-.034.112-.045s.1-.021.145-.031l.079-.018.055-.016s.011 0 .013 0c.085-.063.2-.034.29-.072a1.03 1.03 0 0 1 .23-.043.981.981 0 0 1 .193-.011c.018 0 .039-.016.067-.028m-5.136 8.137a.425.425 0 0 0 -.011-.043.1.1 0 0 0 -.168-.026.039.039 0 0 0 -.007.029.146.146 0 0 0 .089.05l.1-.01m2.341-1.587.075-.019c-.012-.035-.032-.049-.058-.041s-.028.028-.017.059" transform="translate(-136.072 -122.147)"/></g><path d="m91.055 48.759h3.291v-3.29h3.291v3.291h3.291v-3.292h-3.292v-3.291h-3.291v3.291h-3.29v3.291h-3.292v-3.291h3.291v-3.291h3.291v-3.291h3.291v-3.291h3.291v3.292h-3.291v3.291h3.291v3.291h3.29v-3.292h-3.29v-3.291h3.29v-3.286h-3.29v-3.3h-3.291v3.3h-3.291v3.291h-3.29v-3.291h-3.292v3.291h3.291v3.291h-3.291v3.291h-3.29v-3.296h3.291v-3.291h-3.291v-3.286h3.291v-3.3h3.291v3.3h3.291v-3.3h-3.29v-3.287h3.29v3.287h3.292v-3.287h-3.293v-3.29h-3.245a14.809 14.809 0 0 0 0 29.617h3.244v-3.291h3.291v-3.29h-3.29v3.291h-3.29" fill="#dc000c" transform="translate(-60.322 -23.212)"/><path d="m0 0h60v60h-60z" fill="none"/></svg>